<svg id="svg" version="1.1" xmlns="http://www.w3.org/2000/svg" xmlns:xlink="http://www.w3.org/1999/xlink" width="400" height="380.95238095238096" viewBox="0, 0, 400,380.95238095238096"><g id="svgg"><path id="path0" d="M97.568 31.524 L 95.653 33.333 95.541 38.187 L 95.429 43.040 96.533 43.425 C 98.924 44.258,100.096 43.947,101.182 42.190 C 103.431 38.555,106.500 36.173,111.151 34.454 C 114.324 33.280,114.320 32.999,111.103 31.460 C 109.871 30.871,107.870 30.373,105.714 30.119 C 99.937 29.440,99.735 29.475,97.568 31.524 M89.579 49.346 C 88.424 54.375,88.091 87.762,87.931 214.476 L 87.810 311.048 88.672 314.476 C 89.841 319.129,90.125 319.715,91.539 320.413 C 93.113 321.189,94.295 323.309,94.878 326.398 C 95.781 331.183,97.984 332.684,105.043 333.321 C 111.714 333.924,114.331 333.132,116.104 329.976 L 116.942 328.487 113.614 326.968 C 111.783 326.133,109.686 325.220,108.952 324.939 C 105.967 323.794,103.826 321.980,102.000 319.048 C 100.762 317.059,99.962 316.420,98.020 315.866 C 93.859 314.679,94.167 321.520,93.919 224.762 C 93.684 132.922,93.106 58.105,92.585 51.932 C 92.009 45.103,90.794 44.058,89.579 49.346 M232.248 60.893 C 230.963 62.234,230.957 63.418,232.232 64.252 C 233.216 64.898,233.237 64.890,234.498 63.431 C 235.895 61.814,235.889 61.713,234.331 60.604 L 233.257 59.839 232.248 60.893 M193.142 66.644 C 189.724 68.452,188.846 70.920,190.736 73.405 C 192.627 75.892,194.171 77.248,196.077 78.100 C 197.059 78.538,198.038 79.375,198.608 80.264 C 203.069 87.217,210.347 88.283,214.355 82.571 C 215.054 81.576,215.467 80.762,215.273 80.762 C 215.079 80.762,213.771 79.820,212.367 78.669 C 210.833 77.412,209.185 76.420,208.240 76.184 C 203.867 75.094,203.361 74.887,202.466 73.823 C 201.948 73.207,201.524 72.449,201.524 72.139 C 201.524 70.776,196.381 65.877,194.997 65.922 C 194.710 65.931,193.876 66.256,193.142 66.644 M225.613 66.292 C 221.026 66.961,216.744 73.740,218.654 77.310 C 220.886 81.481,229.979 74.913,230.199 68.972 C 230.317 65.804,230.046 65.646,225.613 66.292 M173.227 125.319 C 172.226 125.710,170.558 126.575,169.520 127.240 L 167.634 128.451 168.534 129.654 C 170.011 131.628,170.532 132.932,171.607 137.333 C 173.304 144.283,175.197 147.640,177.201 147.256 C 177.798 147.141,178.803 146.948,179.435 146.825 C 181.043 146.515,181.628 145.147,182.051 140.706 C 182.262 138.496,182.731 136.208,183.192 135.142 C 184.047 133.163,185.689 130.580,185.939 130.824 C 187.390 132.242,199.753 131.711,203.367 130.075 C 206.146 128.817,205.825 128.438,200.541 126.740 C 195.463 125.108,194.480 125.087,188.621 126.487 C 186.130 127.082,185.303 127.146,184.650 126.797 C 181.235 124.969,175.891 124.278,173.227 125.319 M249.245 125.523 C 247.939 126.025,246.106 126.884,245.172 127.432 L 243.474 128.427 244.880 129.876 C 246.438 131.481,247.922 134.458,249.136 138.412 C 251.576 146.360,254.797 145.872,257.706 137.113 C 258.828 133.736,259.874 131.602,261.553 129.269 C 262.295 128.237,260.579 127.102,255.933 125.549 C 252.405 124.370,252.242 124.369,249.245 125.523 M231.257 126.153 C 228.537 128.241,228.236 130.227,230.323 132.314 C 232.202 134.193,233.092 134.061,237.922 131.187 L 242.285 128.590 240.857 127.721 C 236.440 125.034,233.369 124.532,231.257 126.153 M212.571 133.775 C 209.087 134.769,208.239 137.029,209.942 140.777 C 212.452 146.297,212.592 147.008,212.335 152.913 C 212.121 157.828,212.186 158.659,213.098 162.664 C 213.647 165.072,214.095 167.563,214.095 168.198 C 214.095 168.834,214.339 169.703,214.638 170.129 C 214.936 170.555,215.693 172.350,216.319 174.119 C 216.945 175.887,217.887 178.362,218.412 179.619 C 219.525 182.283,221.330 190.721,221.408 193.619 C 221.451 195.217,221.098 196.493,219.652 199.967 C 217.683 204.700,217.622 205.587,219.071 208.426 C 221.551 213.287,226.866 212.434,228.168 206.965 C 228.637 204.997,228.622 204.928,226.674 199.982 L 224.706 194.986 225.121 182.350 C 225.350 175.400,225.605 169.059,225.688 168.259 C 225.876 166.451,224.456 163.073,222.682 161.110 C 221.608 159.921,221.235 158.922,220.049 154.053 C 218.333 147.013,218.210 148.053,221.253 143.906 C 225.804 137.704,225.707 138.110,223.021 136.536 C 219.521 134.485,214.621 133.190,212.571 133.775 M179.280 148.475 C 176.667 148.588,176.182 148.722,175.572 149.497 C 174.601 150.732,172.303 151.568,169.048 151.870 C 166.314 152.124,166.268 152.147,164.097 154.319 C 161.550 156.865,161.441 157.465,163.024 160.224 C 165.192 164.004,165.792 164.079,171.588 161.292 L 176.031 159.155 181.950 160.342 C 188.758 161.707,189.208 161.892,189.937 163.637 C 191.787 168.064,189.436 173.703,185.078 175.292 L 182.775 176.132 184.054 176.788 C 185.243 177.397,188.028 177.912,193.148 178.470 C 196.429 178.828,197.355 177.642,198.623 171.454 L 199.593 166.718 198.676 164.447 C 197.567 161.703,195.481 158.549,194.584 158.262 C 193.736 157.990,188.581 152.438,186.966 150.057 C 185.565 147.990,186.411 148.164,179.280 148.475 M259.916 149.838 C 257.211 150.965,254.736 152.791,253.385 154.656 C 252.766 155.510,252.202 156.070,252.130 155.900 C 251.610 154.666,246.391 152.762,243.529 152.762 C 242.326 152.762,238.857 156.070,238.857 157.217 C 238.857 158.311,240.457 161.825,241.568 163.172 L 242.770 164.629 244.337 163.121 C 245.985 161.537,249.785 158.857,251.469 158.093 C 252.297 157.717,252.706 157.767,253.945 158.396 C 257.480 160.193,261.711 161.187,265.513 161.116 L 269.143 161.049 269.072 165.305 C 268.971 171.372,267.869 172.867,263.456 172.931 C 262.517 172.944,260.752 173.537,258.711 174.525 L 255.461 176.098 256.588 177.023 C 260.486 180.223,261.903 180.301,268.070 177.652 L 271.242 176.289 272.177 173.192 C 274.208 166.469,274.178 166.861,272.876 163.944 C 271.891 161.740,271.540 161.303,270.617 161.141 C 269.607 160.963,269.515 160.804,269.404 159.056 C 269.284 157.150,268.350 155.877,262.504 149.647 C 261.944 149.051,261.773 149.064,259.916 149.838 M241.226 169.776 C 239.715 171.360,238.476 174.142,238.476 175.951 C 238.476 176.612,239.121 177.534,240.553 178.921 L 242.629 180.932 244.261 180.356 C 246.912 179.421,249.905 177.178,249.905 176.126 C 249.905 175.855,248.292 173.959,246.321 171.912 L 242.738 168.190 241.226 169.776 M164.466 171.280 C 161.478 174.268,161.467 176.403,164.427 179.009 C 166.509 180.841,166.767 180.871,169.524 179.591 C 174.203 177.419,174.468 176.521,171.333 173.472 C 167.149 169.404,166.537 169.209,164.466 171.280 M337.789 186.286 C 337.161 198.481,335.783 259.876,335.429 291.429 C 335.143 316.935,335.240 316.450,330.285 317.107 C 328.607 317.330,328.297 317.536,327.011 319.288 C 325.256 321.679,322.714 323.714,319.984 324.914 C 311.530 328.628,311.930 328.303,313.312 330.336 C 315.019 332.848,317.058 333.475,323.188 333.374 C 330.758 333.248,333.382 331.449,333.895 326.035 C 334.235 322.438,335.251 320.238,336.872 319.594 C 337.545 319.326,338.144 319.073,338.204 319.032 C 339.316 318.267,340.190 309.326,340.186 298.761 C 340.177 278.477,338.923 203.328,338.332 187.619 L 338.073 180.762 337.789 186.286 M202.266 202.305 C 200.776 203.796,200.021 204.839,200.130 205.258 C 200.223 205.614,200.501 206.676,200.748 207.619 C 202.451 214.123,208.761 212.838,210.430 205.648 C 210.722 204.389,209.383 202.663,206.885 201.079 C 204.698 199.692,204.946 199.626,202.266 202.305 M128.185 242.609 C 128.112 242.682,128.128 242.939,128.221 243.180 C 128.452 243.783,195.330 243.679,195.934 243.075 C 196.162 242.847,196.183 242.660,195.981 242.652 C 193.571 242.554,128.282 242.512,128.185 242.609 M224.095 242.940 C 224.671 243.027,225.614 243.027,226.190 242.940 C 226.767 242.852,226.295 242.781,225.143 242.781 C 223.990 242.781,223.519 242.852,224.095 242.940 M126.762 270.285 C 125.028 271.456,125.032 271.350,126.665 272.596 L 127.996 273.611 176.855 273.566 C 271.722 273.478,300.175 273.186,301.664 272.281 L 302.946 271.502 301.623 270.703 L 300.300 269.905 222.817 269.805 C 180.201 269.751,141.476 269.619,136.762 269.514 L 128.190 269.321 126.762 270.285 M126.762 298.855 C 125.012 300.058,125.010 299.966,126.817 301.162 L 128.302 302.144 214.151 302.071 L 300.000 301.999 301.619 301.059 C 303.583 299.918,303.583 300.082,301.619 298.941 L 300.000 298.001 214.095 297.937 L 128.190 297.872 126.762 298.855 " stroke="none" fill="#3e5b5c" fill-rule="evenodd"></path><path id="path1" d="M0.000 190.476 L 0.000 380.952 200.000 380.952 L 400.000 380.952 400.000 190.476 L 400.000 0.000 200.000 0.000 L 0.000 0.000 0.000 190.476 M159.619 20.953 C 172.924 21.169,190.067 21.542,197.714 21.781 C 205.362 22.021,234.590 22.330,262.667 22.469 C 318.487 22.744,315.063 22.599,320.952 24.938 C 322.210 25.437,324.670 26.116,326.420 26.446 C 332.190 27.535,334.458 29.131,336.476 33.524 C 337.102 34.886,338.174 36.621,338.858 37.381 C 343.470 42.498,343.233 39.074,343.624 106.286 C 343.804 137.400,344.131 180.257,344.348 201.524 C 344.838 249.359,344.867 312.209,344.400 316.639 C 343.861 321.764,342.050 325.593,339.238 327.552 C 338.511 328.059,337.846 329.050,337.410 330.277 C 336.024 334.181,333.943 335.672,327.810 337.155 C 325.372 337.745,324.051 338.286,323.238 339.028 C 318.293 343.541,326.187 343.238,213.731 343.238 C 102.319 343.238,110.037 343.525,105.524 339.218 C 104.463 338.206,103.433 337.750,100.480 336.985 C 94.642 335.472,92.787 334.095,91.376 330.226 C 90.769 328.561,90.238 327.817,89.131 327.085 C 85.815 324.890,84.482 321.704,83.800 314.341 C 83.141 307.217,83.511 54.127,84.191 47.429 C 84.829 41.145,85.588 39.290,88.825 36.103 C 90.257 34.693,91.430 33.236,91.432 32.865 C 91.448 29.847,95.207 26.803,100.190 25.773 C 104.865 24.806,106.707 24.110,108.058 22.801 C 110.441 20.491,116.892 20.260,159.619 20.953 M205.714 37.339 C 197.438 37.501,174.467 37.834,154.667 38.079 C 126.972 38.423,118.183 38.644,116.571 39.040 C 115.419 39.323,113.705 39.667,112.762 39.804 C 108.621 40.406,107.323 41.423,105.949 45.143 C 104.820 48.198,103.477 50.065,101.517 51.305 C 99.926 52.311,99.888 52.385,99.592 55.023 C 99.245 58.110,99.323 293.212,99.674 303.074 L 99.905 309.576 101.589 310.469 C 103.786 311.635,105.514 313.863,106.506 316.809 C 107.579 320.000,108.685 320.859,112.519 321.482 C 114.167 321.750,116.162 322.197,116.953 322.476 C 119.768 323.470,309.125 323.358,312.762 322.361 C 314.333 321.930,316.388 321.458,317.327 321.312 C 319.717 320.940,321.350 319.577,322.096 317.332 C 322.964 314.719,324.647 312.567,327.003 311.060 L 329.031 309.762 329.287 271.548 C 329.648 217.538,330.237 162.422,330.673 141.905 C 331.091 122.255,331.185 54.876,330.797 52.939 C 330.631 52.107,329.746 50.882,328.160 49.289 C 326.848 47.970,325.203 45.824,324.506 44.520 C 322.336 40.462,320.644 39.375,314.451 38.063 L 309.213 36.952 285.368 36.964 C 272.254 36.971,260.238 37.138,258.667 37.336 C 257.095 37.534,252.878 38.143,249.295 38.689 L 242.780 39.681 239.009 38.446 C 234.497 36.968,230.847 36.847,205.714 37.339 M245.933 44.996 C 248.615 45.999,250.789 48.166,251.618 50.665 L 252.236 52.523 250.861 55.500 C 248.698 60.181,247.271 61.842,236.223 72.534 C 234.512 74.189,232.744 76.075,232.294 76.724 C 231.843 77.373,230.479 78.982,229.261 80.300 C 228.044 81.617,227.048 82.845,227.048 83.029 C 227.048 83.213,226.233 83.971,225.238 84.713 C 224.243 85.455,222.314 87.212,220.952 88.617 C 214.278 95.505,214.987 94.963,213.027 94.669 C 209.667 94.165,204.778 92.539,203.791 91.598 C 203.258 91.088,201.832 90.076,200.624 89.349 C 196.708 86.991,188.297 79.235,186.767 76.571 C 186.226 75.629,185.231 74.257,184.556 73.524 C 182.779 71.594,180.952 65.901,180.952 62.293 C 180.952 61.216,183.182 58.531,184.751 57.720 C 186.545 56.792,194.404 58.817,196.571 60.766 C 197.305 61.426,198.807 62.528,199.911 63.217 C 201.014 63.905,202.562 65.201,203.350 66.097 C 204.210 67.073,205.772 68.199,207.249 68.907 C 208.605 69.557,210.483 70.526,211.422 71.059 C 213.881 72.457,214.465 72.235,215.353 69.567 C 216.391 66.442,218.864 63.937,221.818 63.017 C 223.993 62.339,224.030 62.303,225.337 59.586 C 226.780 56.586,228.749 54.889,231.791 54.021 C 233.911 53.416,234.191 53.142,235.395 50.502 C 237.774 45.285,241.501 43.338,245.933 44.996 M187.238 120.462 C 202.227 120.414,208.884 121.917,212.880 126.252 L 214.492 128.000 219.173 128.000 L 223.853 128.000 224.497 126.540 C 226.595 121.786,232.178 119.833,240.326 121.003 C 241.238 121.134,244.372 121.017,247.291 120.744 C 259.778 119.572,266.409 121.457,269.359 127.017 L 270.259 128.715 268.647 131.881 C 267.760 133.623,266.464 135.723,265.765 136.549 L 264.495 138.051 265.552 140.381 C 266.133 141.662,266.894 143.815,267.244 145.165 C 267.981 148.011,270.400 151.176,272.756 152.378 C 281.688 156.935,281.201 178.862,272.081 182.786 C 266.198 185.317,246.129 186.047,240.485 183.935 C 236.928 182.604,234.379 178.756,234.256 174.531 C 234.240 173.977,234.017 172.838,233.760 172.000 L 233.293 170.476 232.436 172.952 C 231.204 176.513,230.492 182.528,230.484 189.450 L 230.476 195.471 231.873 198.688 C 233.253 201.865,233.288 201.905,234.635 201.905 C 252.450 201.903,254.645 202.740,256.750 210.334 C 257.953 214.675,257.294 216.327,253.392 218.754 L 252.000 219.619 218.857 219.810 C 180.743 220.029,183.209 220.231,179.535 216.587 C 177.558 214.626,177.549 214.607,177.956 213.117 C 179.246 208.398,181.292 204.897,183.820 203.081 L 185.517 201.862 190.473 201.979 C 193.200 202.043,195.430 201.982,195.429 201.844 C 195.428 201.227,198.697 197.543,200.162 196.511 C 201.664 195.451,201.826 195.163,202.435 192.447 C 202.796 190.839,203.937 187.810,204.970 185.714 C 207.812 179.953,208.253 177.736,207.892 171.048 C 207.727 168.010,207.547 161.324,207.492 156.190 L 207.390 146.857 206.110 144.327 C 205.189 142.507,204.492 141.636,203.625 141.222 C 202.963 140.907,201.615 139.951,200.630 139.098 C 199.645 138.246,198.115 137.348,197.229 137.103 C 194.389 136.317,190.239 137.374,190.631 138.784 C 190.759 139.243,191.055 141.419,191.289 143.619 C 191.780 148.238,192.746 149.875,196.347 152.193 C 201.581 155.560,203.482 161.494,202.688 171.980 C 201.897 182.429,201.621 182.933,196.432 183.430 C 194.937 183.573,191.914 184.045,189.714 184.479 C 185.018 185.406,177.845 185.532,171.048 184.808 C 161.673 183.809,159.356 182.230,157.897 175.840 C 157.526 174.218,156.882 172.679,156.222 171.840 C 152.941 167.669,152.977 165.000,156.377 160.543 C 156.871 159.895,157.399 158.694,157.550 157.873 C 158.544 152.485,160.605 149.952,165.247 148.410 C 167.527 147.652,167.489 147.741,167.832 142.357 C 168.139 137.531,167.625 135.764,165.660 134.894 C 164.103 134.205,162.086 132.135,161.113 130.226 C 158.326 124.764,167.914 118.754,176.952 120.297 C 177.581 120.404,182.210 120.479,187.238 120.462 M239.810 136.337 C 238.133 137.309,236.076 138.762,235.238 139.566 C 234.400 140.370,233.319 141.397,232.836 141.847 C 232.353 142.298,231.216 143.771,230.309 145.120 L 228.660 147.573 229.400 150.245 C 230.115 152.823,232.541 159.623,233.141 160.729 C 233.323 161.063,233.607 160.244,233.888 158.576 C 234.758 153.417,237.211 149.806,240.978 148.140 C 244.504 146.580,246.241 139.523,243.931 136.142 L 242.857 134.570 239.810 136.337 M250.249 165.264 L 248.499 166.691 250.341 168.583 C 251.355 169.624,252.185 170.596,252.187 170.742 C 252.189 170.889,252.781 170.762,253.503 170.460 C 254.225 170.159,256.410 169.637,258.358 169.301 C 262.209 168.636,262.713 168.450,263.740 167.315 C 265.110 165.802,258.373 163.735,252.381 163.831 C 252.171 163.834,251.212 164.479,250.249 165.264 M173.905 165.653 C 171.640 166.711,171.628 166.725,172.571 167.215 C 173.095 167.487,174.136 168.294,174.884 169.008 L 176.244 170.307 178.693 169.747 C 180.041 169.439,182.189 169.072,183.467 168.931 C 188.534 168.375,187.943 165.600,182.667 165.178 C 180.990 165.043,178.848 164.855,177.905 164.759 C 176.575 164.624,175.678 164.824,173.905 165.653 M197.631 237.147 C 200.098 237.729,202.744 238.893,203.894 239.903 C 204.480 240.418,204.816 240.412,207.054 239.850 C 209.402 239.260,216.970 237.719,220.381 237.135 C 223.363 236.626,233.451 236.930,235.072 237.578 C 240.958 239.933,241.132 245.935,235.470 251.331 L 233.370 253.333 228.512 253.333 C 222.304 253.333,215.776 251.653,207.793 248.000 L 204.728 246.598 203.296 248.244 C 202.508 249.150,200.485 250.739,198.800 251.776 L 195.736 253.662 181.201 253.479 C 173.207 253.379,158.095 253.436,147.619 253.606 L 128.571 253.915 126.667 252.607 C 122.893 250.015,121.920 248.847,120.140 244.769 L 119.311 242.872 120.123 241.722 C 121.565 239.681,123.344 238.433,126.476 237.268 C 128.932 236.355,193.802 236.244,197.631 237.147 M302.857 265.365 C 305.663 266.168,307.627 267.369,309.842 269.636 L 311.685 271.521 309.375 273.990 C 307.743 275.735,306.363 276.784,304.675 277.563 L 302.286 278.667 269.143 278.902 C 196.153 279.420,128.710 279.294,126.450 278.634 C 123.350 277.729,121.431 276.457,119.276 273.877 L 117.332 271.551 119.067 269.521 C 121.283 266.927,122.249 266.303,125.531 265.349 C 129.212 264.279,299.113 264.294,302.857 265.365 M304.782 294.380 C 307.119 295.326,312.000 299.127,312.000 300.000 C 312.000 300.873,307.119 304.674,304.782 305.620 L 302.667 306.476 214.286 306.476 L 125.905 306.476 123.806 305.626 C 121.745 304.791,116.941 300.826,116.949 299.967 C 116.952 299.581,118.963 297.586,121.133 295.817 C 121.652 295.394,123.195 294.666,124.562 294.198 L 127.048 293.349 214.857 293.436 L 302.667 293.524 304.782 294.380 " stroke="none" fill="#fafafa" fill-rule="evenodd"></path><path id="path2" d="M104.118 27.845 C 98.361 28.260,94.607 30.445,93.888 33.800 C 93.353 36.295,92.371 38.295,90.827 40.034 C 86.168 45.279,86.193 44.379,86.091 211.626 C 86.020 327.409,85.666 317.910,90.245 323.105 C 91.104 324.079,92.332 326.050,92.974 327.486 C 95.107 332.257,97.483 334.005,103.508 335.239 C 108.965 336.356,111.822 337.064,115.196 338.136 L 118.201 339.090 213.923 339.022 C 308.110 338.955,309.677 338.942,311.679 338.204 C 312.799 337.792,314.743 337.286,316.000 337.081 C 317.257 336.877,319.143 336.474,320.190 336.187 C 321.238 335.900,323.552 335.455,325.333 335.198 C 331.441 334.318,334.127 332.134,336.181 326.378 C 336.536 325.381,337.425 323.850,338.155 322.976 C 341.766 318.654,342.096 316.107,342.093 292.555 C 342.089 266.403,340.681 180.667,340.000 165.143 C 339.890 162.629,339.536 153.114,339.215 144.000 C 338.893 134.886,338.573 127.171,338.502 126.857 C 338.191 125.467,338.324 186.786,338.662 200.000 C 339.829 245.702,340.487 308.597,339.831 311.810 C 338.346 319.083,338.355 319.060,336.965 319.563 C 335.270 320.175,334.244 322.338,333.895 326.035 C 333.382 331.449,330.758 333.248,323.188 333.374 C 317.058 333.475,315.019 332.848,313.312 330.336 C 311.930 328.303,311.530 328.628,319.984 324.914 C 322.714 323.714,325.256 321.679,327.011 319.288 C 328.297 317.536,328.607 317.330,330.285 317.107 C 335.235 316.450,335.142 316.911,335.426 291.619 C 335.697 267.530,336.613 223.662,337.200 206.667 C 337.614 194.685,338.060 128.480,337.724 128.816 C 336.289 130.250,333.821 211.453,332.752 292.381 L 332.516 310.286 331.539 311.714 C 331.002 312.500,330.439 313.143,330.288 313.143 C 329.637 313.143,326.331 316.453,325.170 318.269 C 323.514 320.858,320.625 322.937,317.217 323.991 C 315.710 324.458,313.362 325.408,312.000 326.103 L 309.524 327.367 214.339 327.269 L 119.155 327.171 117.006 326.050 C 115.824 325.434,113.447 324.497,111.722 323.968 C 108.118 322.863,105.188 320.801,104.043 318.567 C 103.003 316.537,101.135 314.289,99.645 313.277 C 98.940 312.798,97.960 311.758,97.468 310.965 L 96.571 309.524 96.333 214.857 C 96.201 162.790,95.979 110.419,95.840 98.476 C 95.258 48.773,95.148 50.520,99.048 47.820 C 99.994 47.164,101.482 45.545,102.369 44.204 C 105.383 39.649,107.989 37.534,112.000 36.387 C 113.362 35.997,115.571 35.194,116.910 34.601 C 119.317 33.536,119.426 33.524,126.973 33.524 C 131.170 33.524,134.528 33.449,134.437 33.357 C 134.345 33.266,130.882 33.008,126.742 32.785 L 119.213 32.379 118.031 31.033 C 116.329 29.094,111.634 27.249,108.996 27.483 C 108.658 27.513,106.462 27.676,104.118 27.845 M105.714 30.119 C 107.870 30.373,109.871 30.871,111.103 31.460 C 114.320 32.999,114.324 33.280,111.151 34.454 C 106.500 36.173,103.431 38.555,101.182 42.190 C 100.096 43.947,98.924 44.258,96.533 43.425 L 95.429 43.040 95.541 38.187 L 95.653 33.333 97.568 31.524 C 99.735 29.475,99.937 29.440,105.714 30.119 M91.748 47.007 C 93.079 49.738,93.575 90.359,93.919 224.762 C 94.167 321.520,93.859 314.679,98.020 315.866 C 99.962 316.420,100.762 317.059,102.000 319.048 C 103.826 321.980,105.967 323.794,108.952 324.939 C 109.686 325.220,111.783 326.133,113.614 326.968 L 116.942 328.487 116.104 329.976 C 114.331 333.132,111.714 333.924,105.043 333.321 C 97.984 332.684,95.781 331.183,94.878 326.398 C 94.295 323.309,93.113 321.189,91.539 320.413 C 90.125 319.715,89.841 319.129,88.672 314.476 L 87.810 311.048 87.931 214.476 C 88.134 53.838,88.444 40.227,91.748 47.007 M240.941 49.232 C 239.861 50.183,238.777 51.611,238.272 52.750 C 237.283 54.982,236.442 55.835,234.857 56.215 C 232.000 56.900,229.315 59.077,227.427 62.238 C 226.802 63.285,225.981 63.967,224.606 64.581 C 220.629 66.357,217.952 69.083,217.078 72.248 C 216.889 72.932,216.229 73.998,215.611 74.617 L 214.486 75.741 209.736 74.475 C 204.077 72.966,204.439 73.165,202.873 70.717 C 197.650 62.552,189.023 61.685,187.800 69.202 C 187.282 72.385,189.872 76.487,194.115 79.203 C 194.963 79.746,196.731 81.338,198.043 82.741 C 201.778 86.733,203.667 87.792,208.000 88.320 C 209.990 88.563,212.270 88.871,213.066 89.005 C 214.499 89.246,214.550 89.210,218.589 85.104 C 220.832 82.824,223.407 80.482,224.312 79.900 C 226.828 78.280,229.407 75.507,231.191 72.504 C 232.176 70.847,233.396 69.379,234.321 68.738 C 236.340 67.339,240.197 63.182,241.114 61.416 C 241.519 60.637,242.445 59.535,243.171 58.968 C 244.403 58.005,248.000 53.063,248.000 52.333 C 248.000 52.153,247.329 53.033,246.508 54.289 C 244.783 56.927,243.637 58.086,241.865 58.981 C 241.051 59.391,240.267 60.271,239.667 61.448 C 238.570 63.599,233.916 67.810,232.634 67.810 C 231.230 67.810,230.095 68.861,230.095 70.161 C 230.095 72.589,225.135 77.905,222.472 78.330 C 221.104 78.549,220.885 78.726,220.686 79.766 C 220.530 80.579,219.565 81.818,217.622 83.700 L 214.786 86.448 209.774 86.217 C 205.635 86.026,204.563 85.852,203.619 85.219 C 201.807 84.003,199.619 81.839,198.608 80.264 C 198.038 79.375,197.059 78.538,196.077 78.100 C 192.338 76.430,189.072 72.220,189.928 70.172 C 191.143 67.263,194.216 65.343,196.091 66.320 C 197.646 67.131,201.524 71.204,201.524 72.027 C 201.524 74.589,206.857 76.628,213.789 76.715 C 218.155 76.770,218.293 76.680,218.731 73.475 C 219.256 69.635,221.961 66.826,225.609 66.331 C 228.326 65.962,228.442 65.855,228.743 63.448 C 229.055 60.953,232.248 57.524,234.260 57.524 C 237.124 57.524,237.938 56.689,238.683 52.986 C 238.850 52.155,239.616 51.014,240.803 49.828 C 242.931 47.699,243.021 47.709,246.055 50.409 L 247.810 51.970 246.388 50.452 C 245.606 49.617,244.470 48.641,243.863 48.283 L 242.760 47.631 240.941 49.232 M173.333 123.241 C 170.469 123.939,168.044 125.025,166.560 126.274 C 164.411 128.082,164.396 128.413,166.362 130.708 C 168.731 133.474,169.771 135.889,170.622 140.608 C 171.016 142.788,171.624 145.257,171.975 146.095 L 172.613 147.619 171.544 148.482 C 170.957 148.956,169.335 149.687,167.940 150.106 C 160.186 152.436,157.319 162.145,163.549 164.974 C 165.865 166.025,166.408 165.932,171.507 163.599 L 176.130 161.483 180.922 162.144 C 189.164 163.281,190.844 165.717,187.054 171.038 C 186.487 171.835,185.571 172.333,183.542 172.950 C 182.032 173.408,179.760 174.282,178.493 174.890 L 176.190 175.997 175.647 175.142 C 169.875 166.044,161.535 165.580,160.565 174.302 C 160.213 177.471,163.943 182.095,166.852 182.095 C 169.937 182.095,174.516 179.789,175.491 177.744 L 176.100 176.467 177.682 177.582 C 181.068 179.969,184.899 180.887,190.570 180.672 C 198.129 180.385,199.161 179.427,200.291 171.648 C 201.378 164.170,200.186 160.961,193.914 154.476 C 189.129 149.529,188.162 148.258,187.256 145.714 C 186.882 144.667,186.261 143.255,185.876 142.577 C 183.769 138.871,184.296 135.598,187.122 134.837 C 193.247 133.188,204.289 133.732,205.241 135.730 C 205.462 136.193,206.726 138.886,208.050 141.714 L 210.457 146.857 210.343 152.952 C 210.265 157.122,210.414 160.193,210.815 162.674 C 211.138 164.668,211.662 169.640,211.981 173.721 C 212.665 182.475,213.127 185.270,214.168 186.966 C 214.591 187.655,215.487 189.760,216.159 191.644 L 217.382 195.069 216.461 197.816 C 215.954 199.327,215.229 201.936,214.850 203.615 C 214.470 205.293,214.145 206.287,214.127 205.824 C 213.969 201.674,210.747 198.384,206.029 197.556 C 203.554 197.121,197.724 202.740,197.190 206.074 C 196.659 209.394,195.620 210.741,193.791 210.478 C 192.911 210.351,190.710 210.122,188.902 209.969 L 185.613 209.691 184.661 211.226 C 182.721 214.360,182.727 214.285,184.296 215.344 L 185.714 216.300 193.905 215.984 C 198.410 215.811,210.657 215.657,221.121 215.644 C 237.770 215.622,248.887 215.260,251.714 214.647 C 255.994 213.720,244.099 211.265,234.391 211.072 C 232.914 211.043,232.291 210.047,231.481 206.421 C 231.184 205.089,230.070 202.029,229.005 199.619 L 227.068 195.238 227.063 191.048 C 227.056 185.186,228.036 174.204,228.947 169.949 L 229.712 166.374 227.603 161.519 C 226.056 157.958,225.258 155.459,224.608 152.142 L 223.722 147.619 224.476 146.095 C 226.808 141.378,230.852 136.381,232.337 136.381 C 232.700 136.381,235.203 135.093,237.901 133.519 L 242.805 130.657 243.848 131.656 C 245.429 133.170,247.127 136.659,247.759 139.690 C 248.635 143.892,250.902 147.040,253.061 147.053 C 258.114 147.084,252.668 149.874,246.752 150.285 C 241.723 150.634,238.022 153.122,237.107 156.769 C 236.523 159.096,238.429 165.809,239.826 166.345 C 240.259 166.511,240.181 166.714,239.472 167.272 C 235.499 170.397,236.461 178.540,241.143 181.409 L 242.857 182.460 245.126 181.864 C 248.363 181.014,250.140 180.004,251.360 178.320 L 252.424 176.851 253.693 178.184 C 256.923 181.579,261.363 182.518,266.286 180.847 C 273.010 178.565,273.390 178.156,275.036 171.414 L 276.193 166.676 275.236 163.814 C 273.857 159.687,272.718 157.952,267.821 152.520 C 265.381 149.814,263.075 146.862,262.600 145.837 C 262.132 144.826,261.598 144.000,261.412 144.000 C 260.926 144.000,260.201 142.252,259.793 140.101 C 259.376 137.902,260.431 135.303,263.467 131.054 L 265.231 128.584 263.444 126.966 C 258.902 122.854,249.808 122.100,244.234 125.373 C 242.957 126.123,242.928 126.123,241.377 125.398 C 240.515 124.996,238.371 124.304,236.614 123.862 L 233.418 123.058 231.526 124.087 C 228.948 125.491,226.831 127.964,226.514 129.943 C 226.191 131.967,224.361 133.934,223.320 133.377 C 222.463 132.918,218.691 132.047,214.857 131.422 C 211.560 130.885,210.158 130.264,209.306 128.964 C 206.757 125.073,196.944 122.646,189.219 123.996 C 186.273 124.511,185.602 124.516,183.695 124.035 C 181.617 123.511,176.382 122.632,175.737 122.698 C 175.567 122.716,174.486 122.960,173.333 123.241 M180.582 125.464 C 182.366 125.955,184.197 126.555,184.650 126.797 C 185.303 127.146,186.130 127.082,188.621 126.487 C 194.480 125.087,195.463 125.108,200.541 126.740 C 205.825 128.438,206.146 128.817,203.367 130.075 C 199.753 131.711,187.390 132.242,185.939 130.824 C 185.689 130.580,184.047 133.163,183.192 135.142 C 182.731 136.208,182.262 138.496,182.051 140.706 C 181.628 145.147,181.043 146.515,179.435 146.825 C 178.803 146.948,177.798 147.141,177.201 147.256 C 175.197 147.640,173.304 144.283,171.607 137.333 C 170.532 132.932,170.011 131.628,168.534 129.654 L 167.634 128.451 169.520 127.240 C 173.867 124.451,175.783 124.144,180.582 125.464 M255.933 125.549 C 260.579 127.102,262.295 128.237,261.553 129.269 C 259.874 131.602,258.828 133.736,257.706 137.113 C 256.151 141.795,255.850 142.346,254.357 143.257 C 252.040 144.670,250.665 143.394,249.136 138.412 C 247.922 134.458,246.438 131.481,244.880 129.876 L 243.474 128.427 245.172 127.432 C 249.992 124.607,252.041 124.248,255.933 125.549 M237.333 126.058 C 238.486 126.495,240.071 127.243,240.857 127.721 L 242.285 128.590 237.922 131.187 C 233.092 134.061,232.202 134.193,230.323 132.314 C 228.236 130.227,228.537 128.241,231.257 126.153 C 233.127 124.718,233.773 124.708,237.333 126.058 M218.755 134.675 C 221.315 135.537,224.520 137.206,224.949 137.899 C 225.222 138.340,224.623 139.314,221.253 143.906 C 218.210 148.053,218.333 147.013,220.049 154.053 C 221.235 158.922,221.608 159.921,222.682 161.110 C 224.456 163.073,225.876 166.451,225.688 168.259 C 225.605 169.059,225.350 175.400,225.121 182.350 L 224.706 194.986 226.674 199.982 C 228.622 204.928,228.637 204.997,228.168 206.965 C 226.866 212.434,221.551 213.287,219.071 208.426 C 217.622 205.587,217.683 204.700,219.652 199.967 C 221.098 196.493,221.451 195.217,221.408 193.619 C 221.330 190.721,219.525 182.283,218.412 179.619 C 217.887 178.362,216.945 175.887,216.319 174.119 C 215.693 172.350,214.936 170.555,214.638 170.129 C 214.339 169.703,214.095 168.834,214.095 168.198 C 214.095 167.563,213.647 165.072,213.098 162.664 C 212.186 158.659,212.121 157.828,212.335 152.913 C 212.592 147.008,212.452 146.297,209.942 140.777 C 207.233 134.818,211.144 132.110,218.755 134.675 M186.966 150.057 C 188.581 152.438,193.736 157.990,194.584 158.262 C 195.481 158.549,197.567 161.703,198.676 164.447 L 199.593 166.718 198.623 171.454 C 197.355 177.642,196.429 178.828,193.148 178.470 C 188.028 177.912,185.243 177.397,184.054 176.788 L 182.775 176.132 185.078 175.292 C 189.436 173.703,191.787 168.064,189.937 163.637 C 189.208 161.892,188.758 161.707,181.950 160.342 L 176.031 159.155 171.588 161.292 C 165.792 164.079,165.192 164.004,163.024 160.224 C 161.441 157.465,161.550 156.865,164.097 154.319 C 166.268 152.147,166.314 152.124,169.048 151.870 C 172.303 151.568,174.601 150.732,175.572 149.497 C 176.302 148.569,176.223 148.580,184.000 148.277 C 185.650 148.213,185.761 148.280,186.966 150.057 M266.194 153.724 C 269.082 156.938,269.292 157.287,269.404 159.056 C 269.515 160.804,269.607 160.963,270.617 161.141 C 271.540 161.303,271.891 161.740,272.876 163.944 C 274.178 166.861,274.208 166.469,272.177 173.192 L 271.242 176.289 268.070 177.652 C 261.903 180.301,260.486 180.223,256.588 177.023 L 255.461 176.098 258.711 174.525 C 260.752 173.537,262.517 172.944,263.456 172.931 C 267.869 172.867,268.971 171.372,269.072 165.305 L 269.143 161.049 265.513 161.116 C 261.711 161.187,257.480 160.193,253.945 158.396 C 252.706 157.767,252.297 157.717,251.469 158.093 C 249.785 158.857,245.985 161.537,244.337 163.121 L 242.770 164.629 241.568 163.172 C 240.457 161.825,238.857 158.311,238.857 157.217 C 238.857 156.070,242.326 152.762,243.529 152.762 C 246.391 152.762,251.610 154.666,252.130 155.900 C 252.202 156.070,252.766 155.510,253.385 154.656 C 255.627 151.561,261.350 148.418,262.504 149.647 C 262.834 149.998,264.494 151.833,266.194 153.724 M253.763 160.534 C 254.470 160.827,257.096 161.526,259.600 162.086 C 269.607 164.324,269.862 168.743,260.161 171.837 C 257.933 172.548,255.563 173.614,254.391 174.434 L 252.401 175.824 249.694 172.579 C 248.205 170.794,246.310 168.726,245.484 167.983 L 243.981 166.633 245.895 164.894 C 247.448 163.483,252.075 160.000,252.398 160.000 C 252.442 160.000,253.056 160.240,253.763 160.534 M249.905 176.126 C 249.905 177.178,246.912 179.421,244.261 180.356 L 242.629 180.932 240.553 178.921 C 239.121 177.534,238.476 176.612,238.476 175.951 C 238.476 174.142,239.715 171.360,241.226 169.776 L 242.738 168.190 246.321 171.912 C 248.292 173.959,249.905 175.855,249.905 176.126 M168.010 170.531 C 169.442 171.483,173.714 175.731,173.714 176.203 C 173.714 177.322,168.601 180.557,166.816 180.568 C 166.129 180.572,162.852 177.819,162.287 176.765 C 160.874 174.124,165.628 168.947,168.010 170.531 M206.885 201.079 C 209.383 202.663,210.722 204.389,210.430 205.648 C 208.761 212.838,202.451 214.123,200.748 207.619 C 200.501 206.676,200.223 205.614,200.130 205.258 C 199.968 204.639,204.157 200.000,204.878 200.000 C 205.046 200.000,205.950 200.485,206.885 201.079 M126.191 241.374 L 124.211 242.761 125.395 244.410 C 127.952 247.970,123.742 247.598,161.921 247.644 L 195.619 247.684 198.223 245.271 L 200.827 242.857 198.604 241.524 L 196.381 240.190 162.276 240.089 L 128.171 239.988 126.191 241.374 M218.742 241.589 L 215.198 242.778 216.266 243.513 C 216.853 243.918,218.705 244.936,220.381 245.777 L 223.429 247.304 228.381 247.062 C 233.815 246.796,234.229 246.598,235.477 243.664 C 236.930 240.246,226.575 238.962,218.742 241.589 M195.981 242.652 C 196.183 242.660,196.162 242.847,195.934 243.075 C 195.330 243.679,128.452 243.783,128.221 243.180 C 128.128 242.939,128.112 242.682,128.185 242.609 C 128.282 242.512,193.571 242.554,195.981 242.652 M226.190 242.940 C 225.614 243.027,224.671 243.027,224.095 242.940 C 223.519 242.852,223.990 242.781,225.143 242.781 C 226.295 242.781,226.767 242.852,226.190 242.940 M126.095 268.404 C 125.152 268.975,123.908 269.879,123.330 270.414 L 122.280 271.386 123.521 272.678 C 124.203 273.388,125.489 274.399,126.378 274.924 L 127.994 275.879 182.759 275.828 C 212.880 275.800,251.749 275.692,269.136 275.588 L 300.748 275.398 302.279 274.485 C 303.121 273.984,304.293 273.115,304.885 272.555 L 305.960 271.537 305.151 270.675 C 304.706 270.202,303.486 269.348,302.439 268.779 L 300.537 267.743 214.173 267.555 L 127.810 267.367 126.095 268.404 M222.817 269.805 L 300.300 269.905 301.623 270.703 L 302.946 271.502 301.664 272.281 C 300.175 273.186,271.722 273.478,176.855 273.566 L 127.996 273.611 126.665 272.596 C 125.032 271.350,125.028 271.456,126.762 270.285 L 128.190 269.321 136.762 269.514 C 141.476 269.619,180.201 269.751,222.817 269.805 M125.725 297.163 C 124.579 297.794,123.249 298.679,122.771 299.129 L 121.900 299.946 122.698 300.795 C 123.136 301.262,124.490 302.174,125.706 302.822 L 127.916 304.000 214.093 304.000 L 300.270 304.000 302.230 303.018 C 303.308 302.477,304.776 301.589,305.492 301.045 L 306.794 300.054 305.571 299.033 C 304.898 298.472,303.423 297.560,302.293 297.006 L 300.238 296.000 214.024 296.007 L 127.810 296.014 125.725 297.163 M301.619 298.941 C 303.583 300.082,303.583 299.918,301.619 301.059 L 300.000 301.999 214.151 302.071 L 128.302 302.144 126.817 301.162 C 125.010 299.966,125.012 300.058,126.762 298.855 L 128.190 297.872 214.095 297.937 L 300.000 298.001 301.619 298.941 " stroke="none" fill="#829492" fill-rule="evenodd"></path><path id="path3" d="M112.859 21.118 C 109.689 21.517,109.209 21.686,108.058 22.801 C 106.707 24.110,104.865 24.806,100.190 25.773 C 95.207 26.803,91.448 29.847,91.432 32.865 C 91.430 33.236,90.257 34.693,88.825 36.103 C 85.588 39.290,84.829 41.145,84.191 47.429 C 83.511 54.127,83.141 307.217,83.800 314.341 C 84.482 321.704,85.815 324.890,89.131 327.085 C 90.238 327.817,90.769 328.561,91.376 330.226 C 92.787 334.095,94.642 335.472,100.480 336.985 C 103.433 337.750,104.463 338.206,105.524 339.218 C 110.037 343.525,102.319 343.238,213.731 343.238 C 326.187 343.238,318.293 343.541,323.238 339.028 C 324.051 338.286,325.372 337.745,327.810 337.155 C 333.943 335.672,336.024 334.181,337.410 330.277 C 337.846 329.050,338.511 328.059,339.238 327.552 C 342.050 325.593,343.861 321.764,344.400 316.639 C 344.867 312.209,344.838 249.359,344.348 201.524 C 344.131 180.257,343.804 137.400,343.624 106.286 C 343.233 39.074,343.470 42.498,338.858 37.381 C 338.174 36.621,337.102 34.886,336.476 33.524 C 334.458 29.131,332.190 27.535,326.420 26.446 C 324.670 26.116,322.210 25.437,320.952 24.938 C 315.063 22.599,318.487 22.744,262.667 22.469 C 234.590 22.330,205.362 22.021,197.714 21.781 C 162.322 20.673,119.083 20.335,112.859 21.118 M111.566 27.799 C 114.367 28.331,116.669 29.482,118.031 31.033 L 119.213 32.379 126.742 32.785 C 130.882 33.008,134.345 33.266,134.437 33.357 C 134.528 33.449,131.170 33.524,126.973 33.524 C 119.426 33.524,119.317 33.536,116.910 34.601 C 115.571 35.194,113.362 35.997,112.000 36.387 C 107.989 37.534,105.383 39.649,102.369 44.204 C 101.482 45.545,99.994 47.164,99.048 47.820 C 95.148 50.520,95.258 48.773,95.840 98.476 C 95.979 110.419,96.201 162.790,96.333 214.857 L 96.571 309.524 97.468 310.965 C 97.960 311.758,98.940 312.798,99.645 313.277 C 101.135 314.289,103.003 316.537,104.043 318.567 C 105.188 320.801,108.118 322.863,111.722 323.968 C 113.447 324.497,115.824 325.434,117.006 326.050 L 119.155 327.171 214.339 327.269 L 309.524 327.367 312.000 326.103 C 313.362 325.408,315.710 324.458,317.217 323.991 C 320.625 322.937,323.514 320.858,325.170 318.269 C 326.331 316.453,329.637 313.143,330.288 313.143 C 330.439 313.143,331.002 312.500,331.539 311.714 L 332.516 310.286 332.752 292.381 C 333.722 218.958,335.474 156.241,337.174 134.095 C 337.406 131.071,337.554 116.081,337.533 97.714 C 337.513 80.533,337.631 63.476,337.796 59.810 C 338.005 55.149,338.163 64.948,338.321 92.381 C 338.445 113.962,338.739 135.305,338.976 139.810 C 340.352 166.071,342.087 251.103,342.093 292.555 C 342.096 316.107,341.766 318.654,338.155 322.976 C 337.425 323.850,336.536 325.381,336.181 326.378 C 334.127 332.134,331.441 334.318,325.333 335.198 C 323.552 335.455,321.238 335.900,320.190 336.187 C 319.143 336.474,317.257 336.877,316.000 337.081 C 314.743 337.286,312.799 337.792,311.679 338.204 C 309.677 338.942,308.110 338.955,213.923 339.022 L 118.201 339.090 115.196 338.136 C 111.822 337.064,108.965 336.356,103.508 335.239 C 97.483 334.005,95.107 332.257,92.974 327.486 C 92.332 326.050,91.104 324.079,90.245 323.105 C 85.666 317.910,86.020 327.409,86.091 211.626 C 86.193 44.379,86.168 45.279,90.827 40.034 C 92.371 38.295,93.353 36.295,93.888 33.800 C 94.607 30.445,98.361 28.260,104.118 27.845 C 106.462 27.676,108.658 27.513,108.996 27.483 C 109.334 27.453,110.490 27.595,111.566 27.799 M330.383 32.101 L 331.814 33.333 331.299 35.238 C 330.020 39.978,329.188 40.573,326.916 38.374 C 324.781 36.308,322.377 34.776,319.900 33.904 L 318.065 33.258 319.890 32.553 C 324.879 30.628,328.492 30.472,330.383 32.101 M239.009 38.446 L 242.780 39.681 249.295 38.689 C 252.878 38.143,257.095 37.534,258.667 37.336 C 260.238 37.138,272.254 36.971,285.368 36.964 L 309.213 36.952 314.451 38.063 C 320.644 39.375,322.336 40.462,324.506 44.520 C 325.203 45.824,326.848 47.970,328.160 49.289 C 329.746 50.882,330.631 52.107,330.797 52.939 C 331.185 54.876,331.091 122.255,330.673 141.905 C 330.237 162.422,329.648 217.538,329.287 271.548 L 329.031 309.762 327.003 311.060 C 324.647 312.567,322.964 314.719,322.096 317.332 C 321.350 319.577,319.717 320.940,317.327 321.312 C 316.388 321.458,314.333 321.930,312.762 322.361 C 309.125 323.358,119.768 323.470,116.953 322.476 C 116.162 322.197,114.167 321.750,112.519 321.482 C 108.685 320.859,107.579 320.000,106.506 316.809 C 105.514 313.863,103.786 311.635,101.589 310.469 L 99.905 309.576 99.674 303.074 C 99.323 293.212,99.245 58.110,99.592 55.023 C 99.888 52.385,99.926 52.311,101.517 51.305 C 103.477 50.065,104.820 48.198,105.949 45.143 C 107.323 41.423,108.621 40.406,112.762 39.804 C 113.705 39.667,115.419 39.323,116.571 39.040 C 118.183 38.644,126.972 38.423,154.667 38.079 C 174.467 37.834,197.438 37.501,205.714 37.339 C 230.847 36.847,234.497 36.968,239.009 38.446 M240.571 44.914 C 238.382 45.930,236.605 47.849,235.395 50.502 C 234.191 53.142,233.911 53.416,231.791 54.021 C 228.749 54.889,226.780 56.586,225.337 59.586 C 224.030 62.303,223.993 62.339,221.818 63.017 C 218.864 63.937,216.391 66.442,215.353 69.567 C 214.465 72.235,213.881 72.457,211.422 71.059 C 210.483 70.526,208.605 69.557,207.249 68.907 C 205.772 68.199,204.210 67.073,203.350 66.097 C 202.562 65.201,201.014 63.905,199.911 63.217 C 198.807 62.528,197.305 61.426,196.571 60.766 C 194.404 58.817,186.545 56.792,184.751 57.720 C 183.182 58.531,180.952 61.216,180.952 62.293 C 180.952 65.901,182.779 71.594,184.556 73.524 C 185.231 74.257,186.226 75.629,186.767 76.571 C 188.297 79.235,196.708 86.991,200.624 89.349 C 201.832 90.076,203.258 91.088,203.791 91.598 C 204.778 92.539,209.667 94.165,213.027 94.669 C 214.987 94.963,214.278 95.505,220.952 88.617 C 222.314 87.212,224.243 85.455,225.238 84.713 C 226.233 83.971,227.048 83.213,227.048 83.029 C 227.048 82.845,228.044 81.617,229.261 80.300 C 230.479 78.982,231.843 77.373,232.294 76.724 C 232.744 76.075,234.512 74.189,236.223 72.534 C 247.271 61.842,248.698 60.181,250.861 55.500 L 252.236 52.523 251.618 50.665 C 250.089 46.059,244.441 43.119,240.571 44.914 M245.768 49.808 C 248.261 52.061,248.278 52.242,246.267 55.266 C 245.291 56.734,243.898 58.400,243.171 58.968 C 242.445 59.535,241.519 60.637,241.114 61.416 C 240.197 63.182,236.340 67.339,234.321 68.738 C 233.396 69.379,232.176 70.847,231.191 72.504 C 229.407 75.507,226.828 78.280,224.312 79.900 C 223.407 80.482,220.832 82.824,218.589 85.104 C 214.550 89.210,214.499 89.246,213.066 89.005 C 212.270 88.871,209.990 88.563,208.000 88.320 C 203.667 87.792,201.778 86.733,198.043 82.741 C 196.731 81.338,194.963 79.746,194.115 79.203 C 189.872 76.487,187.282 72.385,187.800 69.202 C 189.023 61.685,197.650 62.552,202.873 70.717 C 204.439 73.165,204.077 72.966,209.736 74.475 L 214.486 75.741 215.611 74.617 C 216.229 73.998,216.889 72.932,217.078 72.248 C 217.952 69.083,220.629 66.357,224.606 64.581 C 225.981 63.967,226.802 63.285,227.427 62.238 C 229.315 59.077,232.000 56.900,234.857 56.215 C 236.442 55.835,237.283 54.982,238.272 52.750 C 238.777 51.613,239.861 50.183,240.937 49.236 C 242.991 47.428,243.155 47.447,245.768 49.808 M171.826 120.410 C 165.553 120.896,162.605 122.666,160.979 126.925 C 159.997 129.497,162.291 133.403,165.660 134.894 C 167.625 135.764,168.139 137.531,167.832 142.357 C 167.489 147.741,167.527 147.652,165.247 148.410 C 160.605 149.952,158.544 152.485,157.550 157.873 C 157.399 158.694,156.871 159.895,156.377 160.543 C 152.977 165.000,152.941 167.669,156.222 171.840 C 156.882 172.679,157.526 174.218,157.897 175.840 C 159.356 182.230,161.673 183.809,171.048 184.808 C 177.845 185.532,185.018 185.406,189.714 184.479 C 191.914 184.045,194.937 183.573,196.432 183.430 C 201.621 182.933,201.897 182.429,202.688 171.980 C 203.482 161.494,201.581 155.560,196.347 152.193 C 192.746 149.875,191.780 148.238,191.289 143.619 C 191.055 141.419,190.759 139.243,190.631 138.784 C 190.239 137.374,194.389 136.317,197.229 137.103 C 198.115 137.348,199.645 138.246,200.630 139.098 C 201.615 139.951,202.963 140.907,203.625 141.222 C 204.492 141.636,205.189 142.507,206.110 144.327 L 207.390 146.857 207.492 156.190 C 207.547 161.324,207.727 168.010,207.892 171.048 C 208.253 177.736,207.812 179.953,204.970 185.714 C 203.937 187.810,202.796 190.839,202.435 192.447 C 201.826 195.163,201.664 195.451,200.162 196.511 C 198.697 197.543,195.428 201.227,195.429 201.844 C 195.430 201.982,193.200 202.043,190.473 201.979 L 185.517 201.862 183.820 203.081 C 181.292 204.897,179.246 208.398,177.956 213.117 C 177.549 214.607,177.558 214.626,179.535 216.587 C 183.209 220.231,180.743 220.029,218.857 219.810 L 252.000 219.619 253.392 218.754 C 257.294 216.327,257.953 214.675,256.750 210.334 C 254.645 202.740,252.450 201.903,234.635 201.905 C 233.288 201.905,233.253 201.865,231.873 198.688 L 230.476 195.471 230.484 189.450 C 230.492 182.528,231.204 176.513,232.436 172.952 L 233.293 170.476 233.760 172.000 C 234.017 172.838,234.240 173.977,234.256 174.531 C 234.379 178.756,236.928 182.604,240.485 183.935 C 246.129 186.047,266.198 185.317,272.081 182.786 C 281.201 178.862,281.688 156.935,272.756 152.378 C 270.400 151.176,267.981 148.011,267.244 145.165 C 266.894 143.815,266.133 141.662,265.552 140.381 L 264.495 138.051 265.765 136.549 C 266.464 135.723,267.760 133.623,268.647 131.881 L 270.259 128.715 269.359 127.017 C 266.409 121.457,259.778 119.572,247.291 120.744 C 244.372 121.017,241.238 121.134,240.326 121.003 C 232.178 119.833,226.595 121.786,224.497 126.540 L 223.853 128.000 219.173 128.000 L 214.492 128.000 212.880 126.252 C 208.884 121.917,202.227 120.414,187.238 120.462 C 182.210 120.479,177.581 120.404,176.952 120.297 C 176.324 120.190,174.017 120.241,171.826 120.410 M178.784 123.077 C 180.291 123.303,182.501 123.734,183.695 124.035 C 185.602 124.516,186.273 124.511,189.219 123.996 C 196.944 122.646,206.757 125.073,209.306 128.964 C 210.158 130.264,211.560 130.885,214.857 131.422 C 218.691 132.047,222.463 132.918,223.320 133.377 C 224.361 133.934,226.191 131.967,226.514 129.943 C 226.831 127.964,228.948 125.491,231.526 124.087 L 233.418 123.058 236.614 123.862 C 238.371 124.304,240.515 124.996,241.377 125.398 C 242.928 126.123,242.957 126.123,244.234 125.373 C 249.808 122.100,258.902 122.854,263.444 126.966 L 265.231 128.584 263.467 131.054 C 260.431 135.303,259.376 137.902,259.793 140.101 C 260.201 142.252,260.926 144.000,261.412 144.000 C 261.598 144.000,262.132 144.826,262.600 145.837 C 263.075 146.862,265.381 149.814,267.821 152.520 C 272.718 157.952,273.857 159.687,275.236 163.814 L 276.193 166.676 275.036 171.414 C 273.390 178.156,273.010 178.565,266.286 180.847 C 261.363 182.518,256.923 181.579,253.693 178.184 L 252.424 176.851 251.360 178.320 C 250.140 180.004,248.363 181.014,245.126 181.864 L 242.857 182.460 241.143 181.409 C 236.461 178.540,235.499 170.397,239.472 167.272 C 240.181 166.714,240.259 166.511,239.826 166.345 C 238.429 165.809,236.523 159.096,237.107 156.769 C 238.022 153.122,241.723 150.634,246.752 150.285 C 252.668 149.874,258.114 147.084,253.061 147.053 C 250.902 147.040,248.635 143.892,247.759 139.690 C 247.127 136.659,245.429 133.170,243.848 131.656 L 242.805 130.657 237.901 133.519 C 235.203 135.093,232.700 136.381,232.337 136.381 C 230.852 136.381,226.808 141.378,224.476 146.095 L 223.722 147.619 224.608 152.142 C 225.258 155.459,226.056 157.958,227.603 161.519 L 229.712 166.374 228.947 169.949 C 228.036 174.204,227.056 185.186,227.063 191.048 L 227.068 195.238 229.005 199.619 C 230.070 202.029,231.184 205.089,231.481 206.421 C 232.291 210.047,232.914 211.043,234.391 211.072 C 244.099 211.265,255.994 213.720,251.714 214.647 C 248.887 215.260,237.770 215.622,221.121 215.644 C 210.657 215.657,198.410 215.811,193.905 215.984 L 185.714 216.300 184.296 215.344 C 182.727 214.285,182.721 214.360,184.661 211.226 L 185.613 209.691 188.902 209.969 C 190.710 210.122,192.911 210.351,193.791 210.478 C 195.620 210.741,196.659 209.394,197.190 206.074 C 197.724 202.740,203.554 197.121,206.029 197.556 C 210.747 198.384,213.969 201.674,214.127 205.824 C 214.145 206.287,214.470 205.293,214.850 203.615 C 215.229 201.936,215.954 199.327,216.461 197.816 L 217.382 195.069 216.159 191.644 C 215.487 189.760,214.591 187.655,214.168 186.966 C 213.127 185.270,212.665 182.475,211.981 173.721 C 211.662 169.640,211.138 164.668,210.815 162.674 C 210.414 160.193,210.265 157.122,210.343 152.952 L 210.457 146.857 208.050 141.714 C 206.726 138.886,205.462 136.193,205.241 135.730 C 204.289 133.732,193.247 133.188,187.122 134.837 C 184.296 135.598,183.769 138.871,185.876 142.577 C 186.261 143.255,186.882 144.667,187.256 145.714 C 188.162 148.258,189.129 149.529,193.914 154.476 C 200.186 160.961,201.378 164.170,200.291 171.648 C 199.161 179.427,198.129 180.385,190.570 180.672 C 184.899 180.887,181.068 179.969,177.682 177.582 L 176.100 176.467 175.491 177.744 C 174.516 179.789,169.937 182.095,166.852 182.095 C 165.766 182.095,162.727 179.886,161.505 178.209 C 158.939 174.685,161.147 168.534,165.254 167.764 C 167.526 167.337,173.293 171.431,175.647 175.142 L 176.190 175.997 178.493 174.890 C 179.760 174.282,182.032 173.408,183.542 172.950 C 185.571 172.333,186.487 171.835,187.054 171.038 C 190.844 165.717,189.164 163.281,180.922 162.144 L 176.130 161.483 171.507 163.599 C 166.408 165.932,165.865 166.025,163.549 164.974 C 157.319 162.145,160.186 152.436,167.940 150.106 C 169.335 149.687,170.957 148.956,171.544 148.482 L 172.613 147.619 171.975 146.095 C 171.624 145.257,171.016 142.788,170.622 140.608 C 169.771 135.889,168.731 133.474,166.362 130.708 C 164.396 128.413,164.411 128.082,166.560 126.274 C 168.044 125.025,170.469 123.939,173.333 123.241 C 176.010 122.588,175.604 122.601,178.784 123.077 M244.800 140.395 C 244.438 145.122,243.499 147.025,240.978 148.140 C 237.211 149.806,234.758 153.417,233.888 158.576 C 233.607 160.244,233.323 161.063,233.141 160.729 C 232.541 159.623,230.115 152.823,229.400 150.245 L 228.660 147.573 230.309 145.120 C 231.216 143.771,232.353 142.298,232.836 141.847 C 233.319 141.397,234.400 140.370,235.238 139.566 C 236.076 138.762,238.133 137.309,239.810 136.337 L 242.857 134.570 243.931 136.142 C 244.927 137.600,244.990 137.910,244.800 140.395 M250.063 161.577 C 248.824 162.444,246.948 163.937,245.895 164.894 L 243.981 166.633 245.484 167.983 C 246.310 168.726,248.205 170.794,249.694 172.579 L 252.401 175.824 254.391 174.434 C 255.563 173.614,257.933 172.548,260.161 171.837 C 269.862 168.743,269.607 164.324,259.600 162.086 C 257.096 161.526,254.470 160.827,253.763 160.534 C 253.056 160.240,252.442 160.000,252.398 160.000 C 252.353 160.000,251.303 160.710,250.063 161.577 M257.453 164.380 C 263.018 165.039,264.973 165.952,263.740 167.315 C 262.713 168.450,262.209 168.636,258.358 169.301 C 256.410 169.637,254.225 170.159,253.503 170.460 C 252.781 170.762,252.189 170.889,252.187 170.742 C 252.185 170.596,251.355 169.624,250.341 168.583 L 248.499 166.691 250.249 165.264 C 251.212 164.479,252.171 163.834,252.381 163.831 C 252.590 163.827,254.873 164.075,257.453 164.380 M182.667 165.178 C 187.943 165.600,188.534 168.375,183.467 168.931 C 182.189 169.072,180.041 169.439,178.693 169.747 L 176.244 170.307 174.884 169.008 C 174.136 168.294,173.095 167.487,172.571 167.215 C 171.118 166.460,175.372 164.502,177.905 164.759 C 178.848 164.855,180.990 165.043,182.667 165.178 M126.476 237.268 C 123.344 238.433,121.565 239.681,120.123 241.722 L 119.311 242.872 120.140 244.769 C 121.920 248.847,122.893 250.015,126.667 252.607 L 128.571 253.915 147.619 253.606 C 158.095 253.436,173.207 253.379,181.201 253.479 L 195.736 253.662 198.800 251.776 C 200.485 250.739,202.508 249.150,203.296 248.244 L 204.728 246.598 207.793 248.000 C 215.776 251.653,222.304 253.333,228.512 253.333 L 233.370 253.333 235.470 251.331 C 241.132 245.935,240.958 239.933,235.072 237.578 C 233.451 236.930,223.363 236.626,220.381 237.135 C 216.970 237.719,209.402 239.260,207.054 239.850 C 204.816 240.412,204.480 240.418,203.894 239.903 C 202.744 238.893,200.098 237.729,197.631 237.147 C 193.802 236.244,128.932 236.355,126.476 237.268 M198.604 241.524 L 200.827 242.857 198.223 245.271 L 195.619 247.684 161.921 247.644 C 123.742 247.598,127.952 247.970,125.395 244.410 L 124.211 242.761 126.191 241.374 L 128.171 239.988 162.276 240.089 L 196.381 240.190 198.604 241.524 M234.638 241.484 C 235.863 242.499,235.915 242.634,235.477 243.664 C 234.229 246.598,233.815 246.796,228.381 247.062 L 223.429 247.304 220.381 245.777 C 218.705 244.936,216.853 243.918,216.266 243.513 L 215.198 242.778 218.742 241.589 C 223.954 239.841,232.589 239.784,234.638 241.484 M125.531 265.349 C 122.249 266.303,121.283 266.927,119.067 269.521 L 117.332 271.551 119.276 273.877 C 121.431 276.457,123.350 277.729,126.450 278.634 C 128.710 279.294,196.153 279.420,269.143 278.902 L 302.286 278.667 304.675 277.563 C 306.363 276.784,307.743 275.735,309.375 273.990 L 311.685 271.521 309.842 269.636 C 307.627 267.369,305.663 266.168,302.857 265.365 C 299.113 264.294,129.212 264.279,125.531 265.349 M302.439 268.779 C 303.486 269.348,304.706 270.202,305.151 270.675 L 305.960 271.537 304.885 272.555 C 304.293 273.115,303.121 273.984,302.279 274.485 L 300.748 275.398 269.136 275.588 C 251.749 275.692,212.880 275.800,182.759 275.828 L 127.994 275.879 126.378 274.924 C 125.489 274.399,124.203 273.388,123.521 272.678 L 122.280 271.386 123.330 270.414 C 123.908 269.879,125.152 268.975,126.095 268.404 L 127.810 267.367 214.173 267.555 L 300.537 267.743 302.439 268.779 M124.562 294.198 C 123.195 294.666,121.652 295.394,121.133 295.817 C 118.963 297.586,116.952 299.581,116.949 299.967 C 116.941 300.826,121.745 304.791,123.806 305.626 L 125.905 306.476 214.286 306.476 L 302.667 306.476 304.782 305.620 C 307.119 304.674,312.000 300.873,312.000 300.000 C 312.000 299.127,307.119 295.326,304.782 294.380 L 302.667 293.524 214.857 293.436 L 127.048 293.349 124.562 294.198 M302.293 297.006 C 303.423 297.560,304.898 298.472,305.571 299.033 L 306.794 300.054 305.492 301.045 C 304.776 301.589,303.308 302.477,302.230 303.018 L 300.270 304.000 214.093 304.000 L 127.916 304.000 125.706 302.822 C 124.490 302.174,123.136 301.262,122.698 300.795 L 121.900 299.946 122.771 299.129 C 123.249 298.679,124.579 297.794,125.725 297.163 L 127.810 296.014 214.024 296.007 L 300.238 296.000 302.293 297.006 " stroke="none" fill="#96a29a" fill-rule="evenodd"></path><path id="path4" d="M324.000 31.390 C 322.743 31.643,320.893 32.166,319.890 32.553 L 318.065 33.258 319.900 33.904 C 322.377 34.776,324.781 36.308,326.916 38.374 C 329.188 40.573,330.020 39.978,331.299 35.238 L 331.814 33.333 330.383 32.101 C 328.785 30.724,327.843 30.619,324.000 31.390 M240.808 49.822 C 239.617 51.013,238.851 52.154,238.683 52.986 C 237.938 56.689,237.124 57.524,234.260 57.524 C 231.100 57.524,226.433 65.381,229.182 66.071 C 229.740 66.211,230.121 66.680,230.285 67.426 C 230.498 68.394,230.643 68.509,231.243 68.188 C 231.632 67.980,232.294 67.810,232.715 67.810 C 233.925 67.810,238.609 63.523,239.667 61.448 C 240.290 60.227,241.039 59.402,241.919 58.968 C 243.426 58.223,245.939 55.545,247.019 53.533 L 247.751 52.168 246.359 50.741 C 245.593 49.957,244.450 49.010,243.818 48.637 L 242.671 47.959 240.808 49.822 M337.708 61.574 C 337.433 69.651,337.826 180.609,338.131 180.921 C 338.216 181.008,338.286 152.337,338.286 117.206 C 338.286 82.076,338.219 53.333,338.137 53.333 C 338.056 53.333,337.863 57.042,337.708 61.574 M235.588 61.664 C 236.180 62.621,233.223 64.902,232.232 64.252 C 230.957 63.418,230.963 62.234,232.248 60.893 L 233.257 59.839 234.331 60.604 C 234.922 61.025,235.488 61.502,235.588 61.664 M216.952 76.651 C 216.324 76.839,214.451 76.892,212.791 76.768 L 209.773 76.543 212.346 78.652 C 213.762 79.813,215.079 80.762,215.273 80.762 C 215.881 80.762,213.144 84.341,211.883 85.195 C 210.546 86.101,210.992 86.459,213.472 86.471 C 216.485 86.485,222.525 78.953,220.007 78.321 C 219.490 78.192,218.848 77.686,218.581 77.197 C 218.160 76.427,217.942 76.354,216.952 76.651 " stroke="none" fill="#9c7424" fill-rule="evenodd"></path></g></svg>