<svg id="svg" version="1.1" xmlns="http://www.w3.org/2000/svg" xmlns:xlink="http://www.w3.org/1999/xlink" width="400" height="356.52173913043475" viewBox="0, 0, 400,356.52173913043475"><g id="svgg"><path id="path0" d="M150.899 20.626 L 149.714 21.685 149.728 28.237 C 149.736 31.842,149.778 37.279,149.820 40.321 C 149.862 43.363,149.735 48.662,149.537 52.096 C 149.340 55.531,149.068 75.602,148.933 96.699 L 148.687 135.058 149.598 136.842 C 150.099 137.823,150.908 138.998,151.395 139.453 L 152.282 140.279 152.990 139.274 C 155.306 135.987,155.220 136.731,155.200 120.175 C 155.173 97.336,154.557 51.990,154.181 45.138 C 153.714 36.620,155.338 27.174,157.925 23.362 C 159.098 21.632,159.104 21.641,156.378 20.770 C 152.255 19.454,152.212 19.453,150.899 20.626 M103.657 132.974 C 101.695 133.465,99.828 134.134,99.509 134.462 C 98.775 135.216,95.355 143.205,95.054 144.871 C 94.712 146.760,93.994 147.652,92.436 148.119 C 91.257 148.472,90.860 148.854,90.036 150.428 L 89.048 152.315 89.710 156.354 C 90.518 161.286,90.587 161.425,92.765 162.529 C 98.425 165.397,98.537 172.482,92.975 175.742 L 91.415 176.656 87.070 176.065 L 82.726 175.473 81.506 176.656 C 79.619 178.485,80.713 180.997,83.800 181.922 C 90.853 184.035,88.182 194.876,80.214 196.479 C 78.781 196.767,76.325 197.625,74.755 198.385 C 72.280 199.582,71.449 199.798,68.511 200.002 C 64.783 200.262,64.653 200.325,63.072 202.623 C 62.212 203.872,61.872 204.911,61.497 207.435 C 61.234 209.206,60.676 211.362,60.258 212.226 C 59.840 213.090,59.048 215.572,58.499 217.741 L 57.501 221.686 59.267 223.405 C 60.845 224.943,63.157 228.879,63.158 230.031 C 63.158 231.007,65.499 232.222,70.496 233.840 C 77.569 236.130,78.231 236.465,78.721 238.002 C 79.325 239.901,81.277 241.062,85.905 242.276 C 88.113 242.855,90.201 243.473,90.544 243.648 C 90.888 243.824,91.720 244.072,92.394 244.200 C 94.000 244.505,94.849 245.314,95.129 246.807 C 95.586 249.243,98.595 250.739,104.305 251.371 L 108.653 251.852 113.113 250.778 C 118.327 249.523,118.547 249.369,119.569 246.256 C 119.996 244.955,120.950 242.685,121.688 241.213 C 122.426 239.741,123.137 237.917,123.269 237.160 C 123.502 235.816,124.909 234.077,125.762 234.077 C 125.989 234.077,126.455 233.297,126.798 232.344 C 127.674 229.907,126.913 227.887,124.800 227.041 C 123.299 226.441,122.391 224.993,122.391 223.200 C 122.391 222.700,121.919 221.450,121.342 220.423 C 117.939 214.362,118.711 209.544,123.471 207.131 C 125.696 206.004,126.334 206.019,131.270 207.317 C 133.504 207.905,135.833 208.398,136.444 208.413 C 139.475 208.488,142.016 210.340,142.016 212.476 C 142.016 213.585,148.630 216.714,153.758 218.031 C 155.393 218.450,156.669 219.557,157.901 221.624 C 158.691 222.951,159.242 223.184,166.102 225.096 C 168.260 225.698,171.049 226.265,172.298 226.357 C 175.033 226.557,175.252 226.745,175.476 229.073 C 175.689 231.287,176.979 232.537,180.053 233.506 C 189.779 236.571,190.284 237.161,191.836 247.238 C 192.151 249.288,195.149 252.131,197.294 252.416 C 199.473 252.705,200.755 253.696,201.299 255.512 C 201.824 257.267,202.786 257.890,207.493 259.527 C 215.562 262.334,216.121 262.618,216.811 264.269 C 217.534 266.000,219.644 267.222,223.915 268.383 C 227.289 269.300,229.302 270.033,231.936 271.305 C 232.426 271.542,233.106 272.295,233.446 272.978 C 234.577 275.253,237.134 276.728,242.090 277.965 C 246.503 279.067,248.990 280.322,250.154 282.036 C 251.418 283.897,255.214 285.990,258.301 286.528 C 261.926 287.159,263.868 288.148,265.294 290.091 C 266.978 292.386,270.357 294.042,277.252 295.955 C 279.592 296.604,283.589 298.899,283.859 299.749 C 283.964 300.081,285.703 301.208,287.724 302.252 L 291.397 304.152 294.365 303.567 C 297.363 302.977,299.376 301.759,299.376 300.535 C 299.376 299.882,293.778 297.320,290.698 296.563 C 287.865 295.867,286.713 294.934,286.360 293.049 C 285.858 290.374,284.118 288.954,280.821 288.528 C 273.328 287.560,269.644 286.170,269.016 284.074 C 268.509 282.382,267.376 281.681,262.622 280.116 C 257.143 278.313,254.002 276.610,253.225 275.019 C 252.307 273.139,250.242 272.058,245.618 271.035 C 243.461 270.558,240.985 269.851,240.116 269.464 C 239.248 269.077,238.090 268.585,237.544 268.370 C 236.888 268.112,236.329 267.462,235.897 266.455 C 235.067 264.518,232.915 263.284,228.613 262.281 C 223.722 261.141,222.421 260.359,218.670 256.306 C 217.773 255.336,213.993 253.905,210.856 253.348 C 207.338 252.723,205.982 251.804,204.534 249.063 C 202.209 244.664,201.328 242.813,200.677 240.964 L 200.024 239.109 201.120 237.753 C 203.144 235.249,203.723 235.084,208.221 235.734 C 212.945 236.417,214.308 236.931,214.892 238.251 C 215.687 240.046,218.987 241.927,222.906 242.818 C 226.330 243.597,227.441 244.359,228.197 246.446 C 229.260 249.383,231.828 250.472,241.138 251.935 C 244.227 252.421,245.565 253.367,246.295 255.585 C 246.871 257.332,252.594 260.003,257.984 261.039 C 260.922 261.604,262.623 262.891,262.623 264.550 C 262.623 265.994,269.645 268.790,275.290 269.593 C 278.796 270.092,280.075 271.225,280.107 273.863 C 280.115 274.480,282.344 275.747,284.520 276.371 C 285.671 276.701,287.698 277.418,289.024 277.964 C 290.349 278.511,292.079 279.067,292.868 279.201 C 294.461 279.470,295.594 280.493,295.946 281.980 C 296.254 283.283,298.288 284.589,301.368 285.461 C 302.725 285.845,305.035 286.764,306.501 287.503 C 307.966 288.243,309.732 288.895,310.426 288.953 C 312.470 289.124,312.578 289.233,312.578 291.109 C 312.578 293.197,311.688 294.540,310.092 294.859 C 309.498 294.978,308.177 295.736,307.156 296.542 C 306.135 297.349,304.328 298.496,303.141 299.092 C 301.953 299.687,300.922 300.228,300.849 300.294 C 300.125 300.949,304.324 305.628,306.886 307.022 L 308.594 307.952 309.755 305.922 C 310.394 304.805,311.586 303.070,312.403 302.066 C 313.221 301.062,314.003 299.792,314.141 299.242 C 314.451 298.005,315.889 296.521,316.778 296.521 C 317.401 296.521,319.015 292.961,319.005 291.610 C 318.992 290.047,317.402 288.680,315.593 288.675 C 313.201 288.669,312.935 288.322,312.935 285.209 L 312.935 282.603 310.755 280.998 C 309.133 279.804,308.242 279.390,307.276 279.381 C 302.824 279.337,298.241 277.191,297.638 274.867 C 297.280 273.488,292.478 271.035,289.500 270.710 C 285.241 270.246,282.716 268.825,281.659 266.296 C 281.085 264.922,276.585 262.550,273.327 261.904 C 267.130 260.674,266.288 260.273,265.128 257.999 C 263.702 255.204,260.443 253.387,255.105 252.410 C 251.516 251.754,250.047 250.868,249.205 248.853 C 248.703 247.650,245.551 246.083,240.143 244.349 C 235.144 242.745,234.574 242.486,233.452 241.309 C 232.814 240.640,232.293 239.888,232.293 239.638 C 232.293 239.389,231.771 238.927,231.133 238.611 C 229.722 237.913,221.958 234.722,219.982 234.027 C 218.854 233.630,218.368 233.168,217.663 231.823 C 215.679 228.037,209.865 226.910,200.125 228.421 C 195.614 229.121,195.607 229.121,191.739 228.396 C 189.610 227.997,186.384 227.505,184.571 227.302 C 178.872 226.666,176.499 225.595,176.104 223.481 C 175.690 221.264,172.349 219.120,167.834 218.175 C 164.898 217.560,162.781 216.429,162.058 215.087 C 161.731 214.480,161.202 213.707,160.883 213.369 C 159.956 212.390,152.782 209.754,150.138 209.422 C 146.455 208.959,145.003 207.949,144.378 205.415 C 144.118 204.356,144.215 204.410,135.631 200.612 C 130.538 198.358,129.381 196.689,130.858 193.725 C 132.500 190.430,133.788 189.831,139.226 189.831 C 145.434 189.831,147.040 189.163,148.438 186.003 C 148.979 184.780,149.459 184.302,150.700 183.753 C 152.336 183.030,154.447 180.971,155.333 179.236 C 155.664 178.589,155.925 176.464,156.071 173.238 C 156.196 170.491,156.502 166.637,156.753 164.674 L 157.208 161.106 154.632 157.895 C 153.215 156.128,151.726 154.483,151.322 154.237 C 150.919 153.992,150.365 153.253,150.090 152.595 C 149.157 150.363,147.065 149.404,141.369 148.598 C 136.421 147.898,134.104 146.668,133.625 144.490 C 133.276 142.898,127.538 140.130,123.344 139.530 C 119.737 139.014,118.709 138.365,117.956 136.128 C 116.930 133.079,109.658 131.475,103.657 132.974 M113.218 140.476 C 114.055 140.899,115.347 142.494,115.702 143.541 C 115.880 144.069,125.441 147.462,128.067 147.929 C 131.092 148.467,131.498 148.767,132.121 150.916 C 132.737 153.044,133.455 153.475,140.232 155.785 C 147.447 158.245,146.971 157.808,148.948 163.778 C 151.189 170.545,150.806 172.321,146.008 177.407 L 143.639 179.919 141.681 179.689 C 138.833 179.354,135.521 178.489,131.668 177.074 C 127.367 175.495,124.628 174.587,123.342 174.315 C 121.959 174.023,120.640 172.502,120.385 170.905 C 120.103 169.144,118.754 168.403,112.915 166.803 C 105.499 164.771,104.712 164.236,101.543 159.070 C 100.615 157.557,99.573 156.230,99.226 156.120 C 95.990 155.093,95.769 150.657,98.907 149.715 C 100.327 149.289,103.354 145.993,105.159 142.908 C 107.070 139.641,109.886 138.792,113.218 140.476 M187.427 143.699 C 187.969 143.781,188.772 143.779,189.211 143.695 C 189.650 143.610,189.206 143.543,188.225 143.545 C 187.244 143.548,186.884 143.617,187.427 143.699 M112.732 174.370 C 114.111 174.748,115.013 175.278,115.862 176.211 C 117.715 178.246,118.174 178.694,119.863 180.117 C 121.661 181.632,123.461 185.145,123.461 187.138 C 123.461 189.785,120.432 195.928,118.298 197.610 C 117.264 198.424,115.932 200.815,114.549 204.338 C 112.572 209.374,110.744 210.497,105.928 209.632 C 104.287 209.337,101.820 208.919,100.446 208.704 C 95.487 207.925,95.210 207.502,94.106 199.014 C 93.499 194.348,95.325 189.045,98.700 185.670 C 100.124 184.247,103.479 178.983,103.479 178.173 C 103.479 177.380,105.629 175.028,107.047 174.270 C 108.675 173.399,109.229 173.408,112.732 174.370 M334.438 193.399 C 334.207 195.067,333.920 197.636,333.801 199.108 C 333.682 200.580,333.283 204.514,332.913 207.850 C 332.544 211.186,332.146 217.449,332.027 221.766 C 331.512 240.548,331.493 240.766,330.216 242.723 C 328.704 245.040,327.001 245.626,322.629 245.334 C 320.583 245.196,311.342 244.920,302.095 244.718 C 292.847 244.517,282.891 244.277,279.969 244.184 C 273.641 243.983,273.377 244.036,271.344 245.909 C 269.527 247.584,269.407 248.234,270.644 249.703 C 272.266 251.631,272.782 251.693,281.963 251.061 C 287.217 250.699,295.070 250.487,303.301 250.486 C 312.335 250.484,317.855 250.320,321.320 249.952 C 324.068 249.660,328.255 249.421,330.625 249.421 C 336.392 249.420,336.284 249.536,336.809 242.819 C 337.024 240.071,337.367 236.378,337.572 234.612 C 338.007 230.863,337.481 215.159,336.681 208.029 C 336.405 205.575,335.987 201.561,335.750 199.108 C 335.514 196.655,335.216 193.684,335.090 192.507 L 334.859 190.366 334.438 193.399 M83.781 207.323 C 90.334 208.388,93.342 209.743,93.975 211.916 C 94.500 213.716,98.398 216.274,101.387 216.779 C 103.503 217.137,106.764 218.895,108.296 220.505 C 109.081 221.330,110.363 222.335,111.144 222.738 C 113.210 223.804,115.012 225.345,116.316 227.161 C 117.068 228.207,117.812 228.826,118.481 228.959 C 120.922 229.448,120.898 231.936,118.452 231.936 C 117.530 231.936,116.712 233.115,114.381 237.802 C 111.323 243.948,110.347 244.547,104.906 243.610 C 99.046 242.602,97.916 242.141,97.174 240.459 C 96.292 238.460,92.866 236.425,89.384 235.833 C 85.286 235.135,80.999 232.594,80.999 230.863 C 80.999 230.399,75.549 227.829,73.056 227.117 C 69.058 225.976,68.148 224.454,67.259 217.424 L 66.710 213.081 67.562 211.179 C 69.550 206.742,72.613 204.970,76.622 205.939 C 78.146 206.308,81.368 206.930,83.781 207.323 M150.869 228.624 C 149.399 230.552,148.801 235.085,148.797 244.308 L 148.796 248.294 150.310 249.590 L 151.824 250.886 165.088 250.778 L 178.352 250.669 179.870 249.599 C 181.888 248.176,181.916 247.922,180.247 246.133 L 178.821 244.603 169.785 244.288 L 160.749 243.974 159.241 242.939 C 156.682 241.183,155.964 239.462,154.162 230.763 C 153.927 229.627,153.386 228.293,152.960 227.798 L 152.186 226.898 150.869 228.624 M80.410 287.939 L 73.219 288.136 71.495 289.598 C 70.547 290.402,69.367 291.847,68.873 292.809 C 68.196 294.129,67.581 294.757,66.372 295.367 C 64.729 296.195,62.394 299.176,61.925 301.043 C 61.151 304.130,59.004 305.615,53.429 306.919 C 45.753 308.715,45.602 309.182,52.089 311.084 C 55.007 311.940,55.616 311.982,67.261 312.135 C 85.025 312.368,121.583 312.425,131.668 312.235 C 136.476 312.145,143.150 312.202,146.499 312.363 L 152.588 312.654 154.528 310.829 L 156.467 309.004 154.862 307.576 C 152.823 305.763,151.649 305.446,146.950 305.444 C 140.566 305.440,138.651 303.326,138.226 295.815 L 137.976 291.392 136.503 289.919 L 135.030 288.446 130.048 288.030 C 124.976 287.606,94.632 287.551,80.410 287.939 M123.004 295.120 C 130.787 295.988,133.314 301.199,127.581 304.559 L 126.114 305.418 103.756 305.455 C 78.547 305.496,78.840 305.523,75.808 302.854 C 72.993 300.377,73.899 298.431,79.027 295.944 L 81.514 294.737 100.539 294.737 C 111.734 294.737,120.980 294.895,123.004 295.120 " stroke="none" fill="#22373a" fill-rule="evenodd"></path><path id="path1" d="M0.000 178.412 L 0.000 356.824 200.000 356.824 L 400.000 356.824 400.000 178.412 L 400.000 0.000 200.000 0.000 L 0.000 0.000 0.000 178.412 M181.624 14.693 C 193.497 14.918,221.195 15.117,243.176 15.134 L 283.140 15.165 287.325 16.007 C 292.191 16.986,294.074 17.988,295.946 20.593 C 297.330 22.519,298.432 23.417,301.021 24.729 C 302.957 25.710,305.214 27.957,305.623 29.309 C 306.025 30.641,307.959 32.469,309.902 33.353 C 312.009 34.313,313.744 36.035,314.549 37.965 C 315.449 40.122,316.871 41.669,318.842 42.634 C 320.941 43.661,321.668 44.376,323.731 47.435 C 324.775 48.982,325.769 49.972,326.930 50.620 C 329.245 51.913,331.007 53.655,332.019 55.652 C 332.869 57.329,334.138 58.590,336.726 60.327 C 338.556 61.556,339.778 63.933,341.318 69.258 L 342.597 73.684 342.586 123.818 C 342.580 151.392,342.704 188.615,342.861 206.537 C 343.230 248.686,343.075 250.737,339.331 253.215 C 336.402 255.153,336.606 255.140,309.021 255.164 C 283.232 255.186,282.374 255.221,275.647 256.510 L 274.219 256.784 275.789 257.067 C 283.183 258.403,289.741 262.127,289.741 264.991 C 289.741 265.658,290.699 266.075,293.319 266.547 C 300.040 267.758,305.311 270.220,307.037 272.954 C 307.729 274.051,308.270 274.455,309.451 274.759 C 313.490 275.799,316.238 277.161,316.796 278.399 C 316.859 278.538,317.470 278.998,318.153 279.421 C 322.112 281.868,325.094 288.939,324.341 294.101 C 323.153 302.257,321.654 305.488,318.245 307.242 C 317.339 307.708,316.718 308.415,316.159 309.617 C 314.262 313.704,311.713 315.068,305.977 315.070 C 298.669 315.071,294.920 313.948,291.704 310.794 C 289.871 308.997,288.675 308.464,280.927 305.993 C 277.563 304.919,275.589 303.721,273.970 301.768 C 273.001 300.599,272.298 300.109,271.327 299.927 C 264.901 298.722,259.701 296.118,257.807 293.158 C 256.728 291.471,256.454 291.269,254.716 290.880 C 248.118 289.405,241.603 286.154,240.336 283.703 C 239.909 282.879,239.359 282.613,236.687 281.941 C 230.711 280.438,225.837 277.463,224.993 274.803 C 224.642 273.696,223.160 273.056,219.031 272.228 C 213.073 271.034,209.627 269.296,207.831 266.582 C 206.814 265.046,205.457 264.308,202.537 263.701 C 199.812 263.136,198.239 262.458,196.075 260.919 C 194.258 259.626,187.694 253.215,187.684 252.723 C 187.659 251.488,186.963 251.490,185.591 252.730 C 182.859 255.198,181.981 255.308,165.031 255.308 L 150.045 255.308 148.050 254.372 C 146.062 253.440,144.897 252.222,144.126 250.270 C 143.113 247.706,142.221 230.829,143.052 229.955 C 143.229 229.769,143.637 228.577,143.957 227.306 C 144.278 226.035,144.939 224.315,145.427 223.483 L 146.313 221.971 145.324 221.467 C 144.780 221.190,143.372 220.688,142.194 220.352 C 139.435 219.564,136.867 218.165,135.653 216.790 C 135.125 216.191,134.257 215.505,133.725 215.266 C 133.193 215.028,132.663 214.451,132.546 213.985 C 132.368 213.278,131.819 212.983,129.235 212.204 L 126.137 211.271 125.143 212.257 L 124.148 213.243 125.084 214.918 C 125.917 216.408,126.156 216.592,127.250 216.592 C 129.519 216.592,130.884 217.432,131.124 218.974 C 131.241 219.725,131.591 221.704,131.902 223.372 C 133.661 232.803,132.190 241.471,128.403 243.991 C 126.072 245.542,125.401 246.306,124.720 248.186 C 122.831 253.395,121.881 254.300,116.793 255.733 C 114.482 256.384,113.321 256.931,112.308 257.846 C 109.300 260.564,107.727 260.525,104.458 257.655 C 103.580 256.885,102.542 256.468,100.433 256.040 C 96.430 255.228,93.988 254.493,92.092 253.532 C 91.192 253.075,89.813 252.407,89.028 252.049 C 88.243 251.690,86.761 250.557,85.735 249.532 C 84.428 248.225,83.414 247.553,82.345 247.282 C 76.512 245.805,71.215 243.267,68.810 240.798 C 67.380 239.329,66.580 238.857,64.113 238.023 C 60.562 236.823,58.909 235.801,57.764 234.098 C 57.296 233.402,55.756 231.587,54.341 230.065 C 48.530 223.815,48.635 211.237,54.550 204.768 C 55.692 203.519,56.827 201.885,57.073 201.137 C 57.558 199.657,60.571 194.905,62.055 193.277 C 63.729 191.441,65.997 190.620,71.543 189.843 C 73.113 189.623,75.895 188.938,77.724 188.321 L 81.050 187.199 80.021 186.641 C 73.574 183.148,73.423 173.820,79.763 170.719 C 81.706 169.768,82.051 169.719,86.667 169.734 C 90.944 169.748,91.150 169.724,88.389 169.532 C 84.555 169.265,84.580 169.296,84.573 164.637 C 84.570 162.654,84.403 159.009,84.202 156.536 C 83.624 149.411,85.943 142.085,89.785 138.900 C 91.539 137.446,92.094 136.583,92.984 133.926 C 94.414 129.657,96.710 128.330,104.098 127.502 C 113.167 126.486,121.995 128.575,126.072 132.702 C 128.726 135.389,133.278 137.200,138.091 137.485 C 142.685 137.757,143.087 138.109,143.087 141.861 C 143.087 142.927,143.236 143.800,143.419 143.800 C 143.622 143.800,143.684 139.230,143.577 132.114 C 143.481 125.687,143.537 98.109,143.702 70.830 L 144.001 21.231 144.819 19.400 C 147.284 13.875,146.145 14.021,181.624 14.693 M207.850 31.056 C 203.533 31.191,193.176 31.488,184.835 31.716 C 168.517 32.163,161.264 32.640,160.859 33.296 C 159.515 35.471,159.474 37.127,159.509 88.351 C 159.543 138.593,159.481 141.366,158.289 143.394 C 158.215 143.519,158.357 145.572,158.604 147.955 C 159.112 152.851,159.426 153.513,162.048 155.229 C 167.977 159.109,168.130 172.022,162.321 178.234 C 161.587 179.019,160.568 180.705,160.057 181.980 C 159.546 183.256,158.642 184.978,158.049 185.808 L 156.970 187.316 157.263 191.647 C 157.505 195.224,157.456 196.296,156.982 197.810 C 156.323 199.912,154.692 203.232,154.155 203.564 C 153.218 204.143,154.036 204.720,156.913 205.509 C 165.847 207.961,167.558 208.862,169.129 211.943 C 169.689 213.040,170.067 213.300,171.690 213.706 C 172.738 213.967,174.880 214.656,176.450 215.236 C 183.422 217.813,183.954 218.131,185.698 220.767 L 186.638 222.186 191.171 222.843 C 195.409 223.457,195.988 223.464,200.064 222.946 C 210.930 221.568,224.041 224.866,226.585 229.619 C 227.081 230.546,229.961 232.293,230.994 232.293 C 233.381 232.293,239.860 235.655,242.509 238.268 C 244.394 240.127,247.115 240.856,252.168 240.856 L 256.637 240.856 258.740 239.275 C 262.926 236.129,262.191 236.212,282.476 236.583 C 292.261 236.762,304.250 236.914,309.118 236.920 L 317.968 236.931 322.028 234.903 C 324.715 233.561,326.170 232.625,326.330 232.137 C 327.269 229.267,327.496 82.505,326.563 81.352 C 325.071 79.509,319.434 78.883,304.193 78.867 C 278.442 78.840,278.713 79.120,278.691 52.532 L 278.680 38.874 277.456 36.398 C 276.783 35.035,275.731 33.193,275.119 32.304 L 274.007 30.687 244.854 30.748 C 228.819 30.782,212.168 30.920,207.850 31.056 M298.458 49.688 C 297.281 51.080,295.836 54.122,295.584 55.741 C 295.417 56.806,295.611 57.121,297.707 59.185 L 300.013 61.456 301.925 60.832 C 303.222 60.407,304.323 59.705,305.352 58.643 C 307.131 56.809,307.165 56.657,305.939 56.001 C 304.546 55.256,301.726 52.018,300.854 50.163 C 299.939 48.217,299.736 48.177,298.458 49.688 M206.423 79.277 C 212.703 79.304,218.726 79.208,219.808 79.062 C 223.722 78.535,225.643 81.257,226.044 87.896 L 226.278 91.761 224.379 93.606 L 222.480 95.450 203.747 95.449 L 185.013 95.448 182.159 94.292 C 180.589 93.657,178.849 92.771,178.292 92.322 L 177.280 91.508 177.869 87.243 C 178.519 82.547,178.613 82.349,180.708 81.270 C 184.578 79.275,186.543 78.846,190.901 79.042 C 193.158 79.144,200.143 79.250,206.423 79.277 M239.761 91.079 C 239.775 91.423,239.545 91.704,239.251 91.704 C 238.694 91.704,238.475 89.922,238.972 89.425 C 239.257 89.140,239.722 90.114,239.761 91.079 M241.392 110.276 C 253.756 110.467,269.893 110.709,277.252 110.814 C 296.830 111.093,300.049 111.731,302.438 115.808 C 303.456 117.545,303.363 117.964,301.578 119.662 C 299.023 122.093,295.196 122.314,248.350 122.734 C 225.879 122.935,202.817 123.170,197.101 123.255 C 183.574 123.457,179.386 122.676,176.157 119.351 C 173.384 116.497,176.559 112.673,183.586 110.402 C 186.397 109.493,190.123 109.485,241.392 110.276 M248.631 136.309 C 301.665 136.774,301.322 136.738,304.053 142.092 C 304.948 143.847,304.760 144.409,302.606 146.424 C 299.727 149.117,300.012 149.100,250.491 149.542 C 177.899 150.190,178.594 150.232,174.616 145.016 L 173.654 143.754 174.385 142.249 C 177.717 135.390,174.368 135.658,248.631 136.309 M107.128 150.411 L 105.602 152.344 107.128 154.669 C 107.967 155.947,108.938 157.088,109.286 157.203 C 109.634 157.319,110.838 158.254,111.962 159.283 C 114.293 161.415,114.815 161.658,119.708 162.888 C 124.484 164.088,128.515 166.496,129.762 168.893 C 130.827 170.939,134.020 171.989,139.184 171.989 L 143.666 171.989 144.488 170.877 L 145.310 169.765 144.480 167.991 C 143.861 166.670,143.160 165.894,141.730 164.944 C 140.675 164.244,139.420 163.079,138.941 162.355 C 137.975 160.896,135.899 159.809,132.739 159.109 C 129.128 158.309,125.644 156.186,123.218 153.308 C 121.965 151.822,118.661 150.559,113.470 149.581 C 111.409 149.192,109.483 148.785,109.188 148.676 C 108.836 148.545,108.132 149.138,107.128 150.411 M281.534 164.168 C 301.088 164.597,301.990 164.771,304.156 168.527 L 304.906 169.829 304.080 171.394 C 300.774 177.661,300.944 177.646,228.724 177.788 L 183.586 177.877 181.044 177.077 C 178.130 176.161,176.429 174.598,175.008 171.531 L 174.171 169.724 174.878 168.730 C 176.643 166.251,178.940 165.029,183.805 163.980 C 186.401 163.420,253.309 163.549,281.534 164.168 M107.135 184.774 C 106.333 186.476,105.401 188.655,105.063 189.618 C 104.354 191.636,102.510 193.836,101.003 194.460 C 98.875 195.342,99.210 196.490,102.111 198.252 C 103.281 198.963,105.242 200.530,106.469 201.735 L 108.700 203.925 110.590 198.037 C 112.747 191.321,113.667 189.496,115.604 188.093 L 116.976 187.098 114.777 186.013 C 113.568 185.417,111.681 184.198,110.586 183.305 L 108.593 181.681 107.135 184.774 M141.508 195.033 C 139.579 195.739,139.578 195.734,141.635 196.776 L 143.466 197.704 145.060 196.999 C 148.200 195.610,144.907 193.787,141.508 195.033 M72.818 212.180 C 71.923 213.318,71.924 212.907,72.800 217.177 C 73.795 222.033,73.717 221.881,75.401 222.311 C 76.716 222.647,80.012 223.634,85.776 225.419 C 87.648 225.999,90.012 227.891,90.822 229.458 C 91.217 230.222,91.940 230.628,94.278 231.401 C 95.904 231.938,97.819 232.674,98.532 233.035 C 99.246 233.397,100.883 233.862,102.170 234.067 C 103.457 234.273,105.453 234.734,106.606 235.093 L 108.702 235.746 109.906 233.071 L 111.110 230.396 109.974 229.448 C 109.350 228.927,107.957 228.222,106.879 227.882 C 104.421 227.107,102.184 225.402,101.203 223.553 C 100.252 221.762,100.151 221.693,97.770 221.202 C 92.137 220.042,87.247 217.448,85.479 214.684 C 84.086 212.507,83.367 212.200,78.299 211.614 C 73.837 211.098,73.654 211.117,72.818 212.180 M159.882 229.590 C 159.015 230.513,159.399 232.826,160.720 234.633 C 161.382 235.537,163.603 234.105,164.765 232.025 L 165.569 230.585 163.245 229.655 C 160.456 228.539,160.862 228.546,159.882 229.590 M212.484 246.928 C 211.038 248.526,212.337 249.063,217.651 249.063 C 221.279 249.063,222.002 248.972,222.186 248.492 C 222.490 247.701,221.695 247.294,219.804 247.271 C 218.921 247.260,217.032 247.046,215.606 246.796 C 213.290 246.390,212.958 246.404,212.484 246.928 M229.210 255.974 L 228.225 256.821 229.425 257.442 C 230.710 258.106,233.230 258.015,236.574 257.182 L 238.180 256.782 235.147 256.196 C 233.479 255.873,231.682 255.501,231.154 255.368 C 230.429 255.185,229.954 255.333,229.210 255.974 M246.143 264.062 C 242.817 265.819,246.870 267.730,250.962 266.336 C 253.148 265.591,253.082 265.410,250.214 264.285 C 247.381 263.173,247.785 263.195,246.143 264.062 M263.247 273.049 C 259.908 274.984,265.201 276.637,269.280 274.933 C 270.872 274.268,270.655 274.015,267.638 273.017 C 264.838 272.091,264.900 272.091,263.247 273.049 M129.353 279.724 C 130.725 280.344,132.409 281.291,133.095 281.829 C 133.782 282.366,135.245 283.083,136.346 283.421 C 139.870 284.505,143.433 288.304,143.444 290.990 C 143.450 292.375,151.669 300.256,153.555 300.684 C 156.112 301.265,158.526 302.414,159.915 303.712 C 160.526 304.283,161.495 305.083,162.067 305.491 C 162.640 305.898,163.503 306.857,163.985 307.621 L 164.862 309.010 163.993 310.348 C 162.835 312.130,158.516 316.257,156.980 317.047 C 156.306 317.394,155.074 318.275,154.244 319.003 C 152.131 320.857,154.505 320.776,101.997 320.789 L 55.083 320.800 51.901 319.878 C 44.244 317.659,40.129 312.282,41.933 306.851 C 43.241 302.911,45.774 301.460,52.523 300.783 L 56.696 300.365 56.931 299.246 C 57.633 295.897,61.282 288.993,63.096 287.581 C 66.093 285.248,68.272 283.675,68.508 283.675 C 68.656 283.675,69.764 282.794,70.971 281.718 C 72.178 280.641,73.523 279.687,73.960 279.597 C 74.397 279.508,75.397 279.322,76.182 279.185 C 79.244 278.650,91.239 278.394,108.658 278.493 L 126.860 278.596 129.353 279.724 M280.135 281.909 C 278.336 282.725,278.456 282.985,281.019 283.815 C 284.208 284.849,287.248 283.359,284.685 282.018 C 282.775 281.019,282.131 281.003,280.135 281.909 M297.948 290.326 C 292.665 291.097,292.519 291.425,296.940 292.585 L 300.035 293.396 301.133 292.615 C 301.736 292.185,302.230 291.714,302.230 291.567 C 302.230 291.227,299.849 290.082,299.274 290.147 C 299.036 290.173,298.439 290.254,297.948 290.326 " stroke="none" fill="#fafafa" fill-rule="evenodd"></path><path id="path2" d="M150.933 17.634 C 147.874 19.644,147.014 21.108,146.988 24.354 C 146.975 25.973,146.855 37.493,146.720 49.955 C 146.586 62.417,146.476 87.069,146.476 104.736 L 146.476 136.857 147.661 139.263 C 148.316 140.593,149.381 142.096,150.044 142.625 C 151.518 143.801,151.276 144.515,149.110 145.381 C 145.004 147.024,141.071 146.266,137.672 143.175 C 135.780 141.455,132.686 139.782,127.695 137.782 C 125.095 136.740,123.309 135.757,122.021 134.657 C 119.369 132.394,117.444 131.520,112.809 130.478 L 108.762 129.568 104.452 130.271 C 98.034 131.318,97.722 131.575,94.234 138.689 C 92.893 141.423,91.209 144.294,90.491 145.068 C 88.625 147.082,86.706 151.046,86.720 152.858 C 86.767 158.946,88.367 163.694,90.947 165.402 C 92.259 166.270,93.313 167.462,94.134 169.005 C 94.477 169.648,94.376 169.993,93.490 171.216 C 91.939 173.357,91.660 173.434,86.868 173.043 C 81.927 172.641,80.975 173.009,78.912 176.123 C 77.268 178.605,77.785 180.402,80.870 182.928 C 81.792 183.683,83.160 184.908,83.912 185.652 L 85.279 187.004 84.426 188.685 C 83.125 191.250,82.736 191.453,76.896 192.609 C 65.983 194.769,61.998 197.586,58.731 205.450 C 58.062 207.060,57.040 208.981,56.460 209.720 C 52.775 214.409,52.817 222.176,56.550 226.193 C 57.387 227.095,58.642 228.728,59.337 229.822 C 61.309 232.923,63.644 234.704,67.261 235.866 C 70.244 236.825,74.027 238.776,75.456 240.093 C 77.525 242.000,79.514 243.073,83.830 244.609 C 89.606 246.664,90.651 247.192,92.614 249.049 C 95.926 252.181,98.234 253.030,107.805 254.633 C 108.673 254.778,110.141 254.554,112.266 253.953 C 114.007 253.460,115.936 252.952,116.550 252.825 C 118.605 252.399,120.453 250.378,122.377 246.453 C 123.357 244.454,124.859 242.016,125.716 241.035 C 130.647 235.387,130.805 226.486,126.069 221.154 C 124.140 218.982,122.936 217.097,122.062 214.878 L 121.388 213.170 122.542 211.581 C 123.176 210.706,124.268 209.683,124.968 209.306 L 126.241 208.620 129.936 209.605 C 135.042 210.966,136.272 211.572,138.917 214.033 C 141.556 216.488,141.732 216.588,147.725 219.061 C 153.758 221.550,153.973 221.731,152.364 222.946 C 147.052 226.959,146.546 228.326,146.366 239.144 C 146.196 249.326,146.232 249.466,149.634 251.757 L 151.462 252.988 164.848 252.985 C 180.108 252.981,180.165 252.971,183.318 249.755 C 184.763 248.282,184.835 248.107,184.840 246.049 C 184.853 240.892,186.675 240.662,188.301 245.611 C 189.747 250.015,191.268 252.121,194.787 254.594 C 196.281 255.643,198.064 257.091,198.751 257.810 C 200.113 259.236,202.106 260.362,205.602 261.677 C 209.143 263.010,212.088 264.609,213.914 266.189 C 215.931 267.934,218.201 269.127,221.068 269.948 C 224.649 270.972,228.077 272.777,230.508 274.918 C 233.136 277.233,235.651 278.615,239.681 279.958 C 242.715 280.970,244.702 282.045,248.528 284.743 C 249.902 285.712,252.310 287.003,253.880 287.612 C 258.813 289.526,260.388 290.377,262.444 292.239 C 264.587 294.179,266.524 295.160,271.960 297.057 C 275.945 298.447,277.977 299.430,279.743 300.819 C 281.966 302.568,286.974 305.026,290.996 306.344 C 293.631 307.207,295.691 308.159,297.292 309.253 C 299.651 310.864,299.714 310.883,304.223 311.353 C 309.732 311.926,310.346 311.631,313.555 306.869 C 314.150 305.986,315.553 304.300,316.673 303.122 C 318.964 300.715,319.958 298.768,321.116 294.428 L 321.913 291.443 320.833 289.254 C 320.240 288.050,319.180 286.503,318.477 285.816 C 317.775 285.129,316.541 283.647,315.734 282.522 C 313.541 279.463,311.520 278.117,306.774 276.557 C 305.396 276.104,303.454 275.083,302.252 274.179 C 298.686 271.498,296.324 270.252,292.512 269.040 C 288.684 267.823,286.837 266.759,284.746 264.566 C 283.224 262.970,280.680 261.653,275.908 259.992 C 269.676 257.823,268.620 257.014,270.222 255.636 C 272.437 253.731,279.158 252.978,295.450 252.807 C 342.198 252.318,338.921 253.048,339.671 242.966 C 339.881 240.138,340.138 236.860,340.241 235.682 C 340.454 233.264,339.889 202.100,339.271 182.159 C 339.046 174.897,338.762 147.440,338.640 121.142 L 338.418 73.327 337.125 70.060 C 335.495 65.940,335.121 65.243,334.199 64.603 C 332.550 63.461,328.904 59.710,327.745 57.963 C 327.035 56.894,325.765 55.628,324.747 54.975 C 322.626 53.614,320.535 51.409,319.193 49.120 C 318.651 48.194,317.535 46.975,316.714 46.410 C 314.503 44.889,312.745 42.945,311.549 40.702 C 310.225 38.217,309.432 37.472,306.512 35.969 C 304.511 34.939,303.945 34.409,302.389 32.107 C 300.760 29.696,300.300 29.283,297.627 27.832 C 295.999 26.949,293.921 25.500,293.007 24.611 C 289.890 21.578,286.741 20.328,279.951 19.429 C 275.824 18.882,246.574 18.746,235.326 19.221 C 228.356 19.515,199.910 19.064,195.540 18.589 C 193.675 18.387,183.384 17.980,172.669 17.685 C 161.955 17.389,152.963 17.072,152.687 16.980 C 152.411 16.887,151.622 17.182,150.933 17.634 M195.540 19.804 C 202.914 20.418,229.555 20.517,236.753 19.957 C 258.351 18.276,285.802 19.753,285.822 22.598 C 285.832 24.043,286.362 24.379,288.884 24.537 C 291.051 24.673,291.466 24.827,292.929 26.045 C 293.825 26.792,295.843 28.047,297.413 28.834 C 299.891 30.076,300.381 30.483,301.123 31.910 C 302.248 34.071,304.288 35.871,307.107 37.190 C 309.315 38.223,309.439 38.353,310.637 40.878 C 312.135 44.034,313.199 45.352,315.502 46.903 C 316.461 47.548,317.717 48.820,318.293 49.728 C 319.684 51.922,321.932 54.327,324.030 55.868 C 324.971 56.558,326.458 58.120,327.335 59.338 C 328.213 60.556,330.350 62.940,332.084 64.636 C 334.740 67.235,335.433 68.161,336.485 70.524 L 337.734 73.327 337.832 112.400 C 337.885 133.889,337.788 165.847,337.615 183.417 C 337.427 202.570,337.432 218.359,337.628 222.846 C 337.916 229.423,337.860 231.389,337.170 239.072 C 336.180 250.090,336.605 249.420,330.625 249.421 C 328.255 249.421,324.068 249.660,321.320 249.952 C 317.855 250.320,312.335 250.484,303.301 250.486 C 295.070 250.487,287.217 250.699,281.963 251.061 C 272.782 251.693,272.266 251.631,270.644 249.703 C 269.407 248.234,269.527 247.584,271.344 245.909 C 273.377 244.036,273.641 243.983,279.969 244.184 C 282.891 244.277,292.847 244.517,302.095 244.718 C 311.342 244.920,320.583 245.196,322.629 245.334 C 327.847 245.683,330.565 244.106,331.266 240.321 C 332.033 236.177,332.225 84.689,331.467 81.143 C 330.638 77.265,327.882 73.507,324.674 71.882 C 322.578 70.820,321.399 69.418,320.434 66.838 C 319.853 65.284,319.095 64.241,317.255 62.461 C 315.014 60.293,314.767 59.898,313.829 56.986 C 312.740 53.602,311.733 52.359,309.722 51.918 C 308.644 51.681,305.085 48.444,305.085 47.700 C 305.085 45.241,302.457 43.194,298.179 42.321 C 293.310 41.327,291.977 40.481,288.591 36.236 C 286.182 33.216,285.103 30.687,285.103 28.065 C 285.103 24.627,286.716 24.891,264.662 24.726 C 254.022 24.646,242.988 24.410,240.143 24.200 C 228.933 23.375,205.277 23.415,195.240 24.276 C 187.292 24.957,184.436 25.038,173.595 24.889 C 160.183 24.704,159.745 24.748,157.532 26.514 C 154.602 28.852,153.783 36.039,154.453 53.524 C 154.668 59.117,154.950 79.752,155.081 99.380 L 155.319 135.068 154.509 136.669 C 154.063 137.549,153.379 138.722,152.990 139.274 L 152.282 140.279 151.395 139.453 C 150.908 138.998,150.124 137.869,149.652 136.943 L 148.796 135.260 148.814 115.177 C 148.824 104.131,149.016 84.737,149.240 72.079 C 149.464 59.420,149.657 42.933,149.668 35.439 L 149.688 21.815 150.718 20.738 C 152.045 19.352,151.253 19.404,171.989 19.338 C 184.488 19.299,191.030 19.428,195.540 19.804 M260.660 25.641 C 281.597 25.967,280.945 25.773,284.180 32.633 C 288.290 41.346,289.735 42.696,295.284 43.003 C 301.228 43.332,302.155 43.783,303.876 47.179 C 305.082 49.561,307.243 51.836,309.512 53.117 C 311.711 54.358,312.262 55.105,313.095 57.973 C 313.960 60.949,314.854 62.567,316.451 64.044 C 317.770 65.265,317.835 65.433,318.045 68.158 C 318.413 72.934,319.162 73.794,323.363 74.270 C 327.036 74.686,328.942 76.341,330.349 80.336 L 331.171 82.668 331.042 121.709 C 330.861 176.261,329.573 231.162,328.347 236.516 C 327.046 242.199,326.988 242.208,295.353 241.606 C 273.253 241.186,272.953 241.199,270.032 242.685 C 268.365 243.533,267.716 244.519,266.561 247.949 C 265.810 250.180,265.518 250.658,264.937 250.606 C 256.685 249.871,255.137 249.417,252.988 247.101 C 251.788 245.807,250.233 245.051,244.479 242.965 C 238.756 240.890,238.023 240.515,235.751 238.491 C 233.973 236.908,232.956 236.363,226.482 233.522 C 223.703 232.302,222.039 231.303,220.497 229.927 C 215.940 225.860,209.196 224.427,200.654 225.709 C 192.862 226.879,185.344 225.398,180.731 221.784 C 177.906 219.570,175.079 218.032,170.774 216.367 C 167.902 215.256,166.805 214.605,164.920 212.897 C 162.292 210.516,160.660 209.708,154.734 207.859 C 150.383 206.500,150.235 206.402,146.973 202.713 C 146.448 202.119,145.389 201.485,144.543 201.257 C 142.109 200.601,134.181 196.707,133.925 196.041 C 133.300 194.412,138.140 192.630,144.914 191.996 C 150.236 191.498,150.889 191.098,151.475 187.979 C 151.632 187.138,152.088 186.512,152.989 185.895 C 155.508 184.173,157.574 180.774,159.100 175.845 C 159.506 174.532,160.345 172.635,160.963 171.630 L 162.087 169.803 161.828 165.457 L 161.568 161.110 158.021 156.743 C 154.519 152.432,154.467 152.339,153.981 149.604 C 153.710 148.080,153.324 146.111,153.122 145.227 C 152.776 143.710,152.812 143.563,153.784 142.551 C 155.054 141.229,156.448 138.485,157.034 136.153 C 157.383 134.767,157.408 125.470,157.152 92.264 C 156.713 35.259,156.697 37.897,157.496 34.077 C 158.259 30.430,158.680 29.451,160.027 28.193 L 160.978 27.304 172.817 27.046 C 179.329 26.904,188.109 26.521,192.328 26.196 C 196.548 25.871,201.847 25.477,204.103 25.321 C 208.205 25.039,229.726 25.161,260.660 25.641 M289.160 60.962 C 288.389 61.521,287.365 62.719,286.884 63.624 L 286.011 65.271 287.009 67.306 C 290.912 75.264,295.472 75.329,296.361 67.440 L 296.583 65.477 293.965 62.708 C 290.996 59.567,291.056 59.589,289.160 60.962 M294.195 66.622 C 293.884 67.366,293.116 68.506,292.489 69.154 L 291.347 70.334 290.526 69.333 C 287.655 65.833,287.576 64.907,289.970 62.805 L 291.297 61.640 293.028 63.454 L 294.759 65.269 294.195 66.622 M184.924 116.056 C 182.635 117.434,182.635 117.435,184.808 118.453 L 186.566 119.276 210.054 118.853 C 222.972 118.620,238.359 118.280,244.246 118.096 C 250.134 117.913,257.266 117.760,260.095 117.757 C 262.924 117.754,265.171 117.684,265.088 117.601 C 264.763 117.276,233.102 116.203,206.423 115.613 C 197.591 115.418,189.563 115.184,188.582 115.093 C 187.047 114.951,186.535 115.086,184.924 116.056 M113.600 133.378 C 117.430 134.685,117.482 134.718,117.956 136.128 C 118.709 138.365,119.737 139.014,123.344 139.530 C 127.538 140.130,133.276 142.898,133.625 144.490 C 134.104 146.668,136.421 147.898,141.369 148.598 C 147.065 149.404,149.157 150.363,150.090 152.595 C 150.365 153.253,150.919 153.992,151.322 154.237 C 151.726 154.483,153.215 156.128,154.632 157.895 L 157.208 161.106 156.753 164.674 C 156.502 166.637,156.196 170.491,156.071 173.238 C 155.925 176.464,155.664 178.589,155.333 179.236 C 154.447 180.971,152.336 183.030,150.700 183.753 C 149.459 184.302,148.979 184.780,148.438 186.003 C 147.040 189.163,145.434 189.831,139.226 189.831 C 133.788 189.831,132.500 190.430,130.858 193.725 C 129.381 196.689,130.538 198.358,135.631 200.612 C 144.215 204.410,144.118 204.356,144.378 205.415 C 145.003 207.949,146.455 208.959,150.138 209.422 C 152.782 209.754,159.956 212.390,160.883 213.369 C 161.202 213.707,161.731 214.480,162.058 215.087 C 162.781 216.429,164.898 217.560,167.834 218.175 C 172.349 219.120,175.690 221.264,176.104 223.481 C 176.499 225.595,178.872 226.666,184.571 227.302 C 186.384 227.505,189.610 227.997,191.739 228.396 C 195.607 229.121,195.614 229.121,200.125 228.421 C 209.865 226.910,215.679 228.037,217.663 231.823 C 218.368 233.168,218.854 233.630,219.982 234.027 C 221.958 234.722,229.722 237.913,231.133 238.611 C 231.771 238.927,232.293 239.389,232.293 239.638 C 232.293 239.888,232.814 240.640,233.452 241.309 C 234.574 242.486,235.144 242.745,240.143 244.349 C 245.551 246.083,248.703 247.650,249.205 248.853 C 250.047 250.868,251.516 251.754,255.105 252.410 C 260.443 253.387,263.702 255.204,265.128 257.999 C 266.288 260.273,267.130 260.674,273.327 261.904 C 276.585 262.550,281.085 264.922,281.659 266.296 C 282.716 268.825,285.241 270.246,289.500 270.710 C 292.478 271.035,297.280 273.488,297.638 274.867 C 298.241 277.191,302.824 279.337,307.276 279.381 C 308.242 279.390,309.133 279.804,310.755 280.998 L 312.935 282.603 312.935 285.209 C 312.935 288.322,313.201 288.669,315.593 288.675 C 317.402 288.680,318.992 290.047,319.005 291.610 C 319.015 292.961,317.401 296.521,316.778 296.521 C 315.889 296.521,314.451 298.005,314.141 299.242 C 314.003 299.792,313.221 301.062,312.403 302.066 C 311.586 303.070,310.394 304.805,309.755 305.922 L 308.594 307.952 306.886 307.022 C 304.324 305.628,300.125 300.949,300.849 300.294 C 300.922 300.228,301.953 299.687,303.141 299.092 C 304.328 298.496,306.135 297.349,307.156 296.542 C 308.177 295.736,309.498 294.978,310.092 294.859 C 311.688 294.540,312.578 293.197,312.578 291.109 C 312.578 289.233,312.470 289.124,310.426 288.953 C 309.732 288.895,307.966 288.243,306.501 287.503 C 305.035 286.764,302.725 285.845,301.368 285.461 C 298.288 284.589,296.254 283.283,295.946 281.980 C 295.594 280.493,294.461 279.470,292.868 279.201 C 292.079 279.067,290.349 278.511,289.024 277.964 C 287.698 277.418,285.671 276.701,284.520 276.371 C 282.344 275.747,280.115 274.480,280.107 273.863 C 280.075 271.225,278.796 270.092,275.290 269.593 C 269.645 268.790,262.623 265.994,262.623 264.550 C 262.623 262.891,260.922 261.604,257.984 261.039 C 252.594 260.003,246.871 257.332,246.295 255.585 C 245.565 253.367,244.227 252.421,241.138 251.935 C 231.828 250.472,229.260 249.383,228.197 246.446 C 227.441 244.359,226.330 243.597,222.906 242.818 C 218.987 241.927,215.687 240.046,214.892 238.251 C 214.308 236.931,212.945 236.417,208.221 235.734 C 203.723 235.084,203.144 235.249,201.120 237.753 L 200.024 239.109 200.677 240.964 C 203.593 249.244,206.300 252.538,210.856 253.348 C 213.993 253.905,217.773 255.336,218.670 256.306 C 222.421 260.359,223.722 261.141,228.613 262.281 C 232.915 263.284,235.067 264.518,235.897 266.455 C 236.329 267.462,236.888 268.112,237.544 268.370 C 238.090 268.585,239.248 269.077,240.116 269.464 C 240.985 269.851,243.461 270.558,245.618 271.035 C 250.242 272.058,252.307 273.139,253.225 275.019 C 254.002 276.610,257.143 278.313,262.622 280.116 C 267.376 281.681,268.509 282.382,269.016 284.074 C 269.644 286.170,273.328 287.560,280.821 288.528 C 284.118 288.954,285.858 290.374,286.360 293.049 C 286.713 294.934,287.865 295.867,290.698 296.563 C 293.778 297.320,299.376 299.882,299.376 300.535 C 299.376 301.759,297.363 302.977,294.365 303.567 L 291.397 304.152 287.724 302.252 C 285.703 301.208,283.964 300.081,283.859 299.749 C 283.589 298.899,279.592 296.604,277.252 295.955 C 270.357 294.042,266.978 292.386,265.294 290.091 C 263.868 288.148,261.926 287.159,258.301 286.528 C 255.214 285.990,251.418 283.897,250.154 282.036 C 248.990 280.322,246.503 279.067,242.090 277.965 C 237.134 276.728,234.577 275.253,233.446 272.978 C 233.106 272.295,232.426 271.542,231.936 271.305 C 229.302 270.033,227.289 269.300,223.915 268.383 C 219.644 267.222,217.534 266.000,216.811 264.269 C 216.121 262.618,215.562 262.334,207.493 259.527 C 202.786 257.890,201.824 257.267,201.299 255.512 C 200.755 253.696,199.473 252.705,197.294 252.416 C 195.149 252.131,192.151 249.288,191.836 247.238 C 190.284 237.161,189.779 236.571,180.053 233.506 C 176.979 232.537,175.689 231.287,175.476 229.073 C 175.252 226.745,175.033 226.557,172.298 226.357 C 171.049 226.265,168.260 225.698,166.102 225.096 C 159.242 223.184,158.691 222.951,157.901 221.624 C 156.669 219.557,155.393 218.450,153.758 218.031 C 148.630 216.714,142.016 213.585,142.016 212.476 C 142.016 210.340,139.475 208.488,136.444 208.413 C 135.833 208.398,133.504 207.905,131.270 207.317 C 126.334 206.019,125.696 206.004,123.471 207.131 C 118.711 209.544,117.939 214.362,121.342 220.423 C 121.919 221.450,122.391 222.700,122.391 223.200 C 122.391 224.993,123.299 226.441,124.800 227.041 C 126.913 227.887,127.674 229.907,126.798 232.344 C 126.455 233.297,125.989 234.077,125.762 234.077 C 124.909 234.077,123.502 235.816,123.269 237.160 C 123.137 237.917,122.426 239.741,121.688 241.213 C 120.950 242.685,119.996 244.955,119.569 246.256 C 118.547 249.369,118.327 249.523,113.113 250.778 L 108.653 251.852 104.305 251.371 C 98.595 250.739,95.586 249.243,95.129 246.807 C 94.849 245.314,94.000 244.505,92.394 244.200 C 91.720 244.072,90.888 243.824,90.544 243.648 C 90.201 243.473,88.113 242.855,85.905 242.276 C 81.277 241.062,79.325 239.901,78.721 238.002 C 78.231 236.465,77.569 236.130,70.496 233.840 C 65.499 232.222,63.158 231.007,63.158 230.031 C 63.157 228.879,60.845 224.943,59.267 223.405 L 57.501 221.686 58.499 217.741 C 59.048 215.572,59.840 213.090,60.258 212.226 C 60.676 211.362,61.234 209.206,61.497 207.435 C 61.872 204.911,62.212 203.872,63.072 202.623 C 64.653 200.325,64.783 200.262,68.511 200.002 C 71.449 199.798,72.280 199.582,74.755 198.385 C 76.325 197.625,78.781 196.767,80.214 196.479 C 88.182 194.876,90.853 184.035,83.800 181.922 C 80.713 180.997,79.619 178.485,81.506 176.656 L 82.726 175.473 87.070 176.065 L 91.415 176.656 92.975 175.742 C 98.537 172.482,98.425 165.397,92.765 162.529 C 90.587 161.425,90.518 161.286,89.710 156.354 L 89.048 152.315 90.036 150.428 C 90.860 148.854,91.257 148.472,92.436 148.119 C 93.994 147.652,94.712 146.760,95.054 144.871 C 95.355 143.205,98.775 135.216,99.509 134.462 C 100.159 133.795,106.543 132.090,108.475 132.069 C 109.161 132.061,111.468 132.650,113.600 133.378 M107.398 140.317 C 106.741 140.761,105.733 141.927,105.159 142.908 C 103.354 145.993,100.327 149.289,98.907 149.715 C 95.769 150.657,95.990 155.093,99.226 156.120 C 99.573 156.230,100.615 157.557,101.543 159.070 C 104.712 164.236,105.499 164.771,112.915 166.803 C 118.754 168.403,120.103 169.144,120.385 170.905 C 120.640 172.502,121.959 174.023,123.342 174.315 C 124.628 174.587,127.367 175.495,131.668 177.074 C 135.521 178.489,138.833 179.354,141.681 179.689 L 143.639 179.919 146.008 177.407 C 150.806 172.321,151.189 170.545,148.948 163.778 C 146.971 157.808,147.447 158.245,140.232 155.785 C 133.455 153.475,132.737 153.044,132.121 150.916 C 131.498 148.767,131.092 148.467,128.067 147.929 C 125.441 147.462,115.880 144.069,115.702 143.541 C 114.617 140.335,110.016 138.549,107.398 140.317 M184.835 140.618 C 183.952 141.018,182.458 141.840,181.515 142.444 L 179.801 143.543 181.243 144.403 C 185.264 146.800,183.728 146.713,214.802 146.303 C 274.777 145.511,290.687 145.087,294.558 144.175 L 297.056 143.587 294.202 142.824 C 291.253 142.036,284.244 141.690,259.946 141.136 C 242.851 140.745,192.179 139.866,187.868 139.885 C 187.083 139.888,185.718 140.218,184.835 140.618 M111.108 144.708 C 112.373 145.404,114.587 146.359,116.026 146.831 C 123.129 149.161,126.674 150.829,128.772 152.830 C 131.016 154.971,132.530 155.845,136.399 157.234 C 143.716 159.862,144.845 160.907,147.242 167.276 L 148.097 169.547 147.180 171.231 C 146.675 172.158,145.668 173.597,144.942 174.430 L 143.622 175.943 139.036 175.543 C 132.786 174.997,128.284 173.143,124.353 169.495 C 121.813 167.137,119.984 166.185,114.719 164.480 C 107.689 162.202,107.822 162.298,104.321 156.988 L 101.275 152.367 103.203 150.136 C 104.264 148.908,105.908 146.900,106.856 145.674 C 107.804 144.447,108.631 143.443,108.693 143.443 C 108.756 143.443,109.842 144.012,111.108 144.708 M189.211 143.695 C 188.772 143.779,187.969 143.781,187.427 143.699 C 186.884 143.617,187.244 143.548,188.225 143.545 C 189.206 143.543,189.650 143.610,189.211 143.695 M185.013 167.642 C 180.860 169.412,180.732 169.614,182.794 171.144 C 186.133 173.621,183.914 173.472,211.506 173.072 C 281.716 172.052,294.955 171.533,296.756 169.732 C 297.944 168.545,284.013 168.119,218.733 167.351 C 183.660 166.939,186.725 166.912,185.013 167.642 M107.047 174.270 C 105.629 175.028,103.479 177.380,103.479 178.173 C 103.479 178.983,100.124 184.247,98.700 185.670 C 95.325 189.045,93.499 194.348,94.106 199.014 C 95.210 207.502,95.487 207.925,100.446 208.704 C 101.820 208.919,104.287 209.337,105.928 209.632 C 110.744 210.497,112.572 209.374,114.549 204.338 C 115.932 200.815,117.264 198.424,118.298 197.610 C 120.432 195.928,123.461 189.785,123.461 187.138 C 123.461 185.145,121.661 181.632,119.863 180.117 C 118.174 178.694,117.715 178.246,115.862 176.211 C 115.013 175.278,114.111 174.748,112.732 174.370 C 109.229 173.408,108.675 173.399,107.047 174.270 M110.992 177.644 C 111.864 178.204,112.899 179.026,113.292 179.472 C 113.684 179.918,114.933 180.915,116.067 181.687 C 117.326 182.544,118.635 183.854,119.431 185.054 L 120.735 187.017 119.823 188.870 C 119.322 189.889,118.189 191.686,117.305 192.864 C 115.479 195.299,114.029 198.087,112.572 201.963 C 111.937 203.652,111.076 205.149,110.235 206.024 L 108.905 207.410 106.459 206.797 C 99.705 205.103,98.935 204.407,97.194 198.412 L 96.411 195.718 97.628 193.390 C 98.297 192.109,99.481 190.291,100.259 189.349 C 101.598 187.730,103.114 185.180,105.575 180.414 C 107.632 176.430,108.446 176.013,110.992 177.644 M72.473 205.951 C 70.474 206.940,68.538 209.001,67.562 211.179 L 66.710 213.081 67.259 217.424 C 68.148 224.454,69.058 225.976,73.056 227.117 C 75.549 227.829,80.999 230.399,80.999 230.863 C 80.999 232.594,85.286 235.135,89.384 235.833 C 92.866 236.425,96.292 238.460,97.174 240.459 C 97.916 242.141,99.046 242.602,104.906 243.610 C 110.347 244.547,111.323 243.948,114.381 237.802 C 116.712 233.115,117.530 231.936,118.452 231.936 C 120.898 231.936,120.922 229.448,118.481 228.959 C 117.812 228.826,117.068 228.207,116.316 227.161 C 115.012 225.345,113.210 223.804,111.144 222.738 C 110.363 222.335,109.081 221.330,108.296 220.505 C 106.764 218.895,103.503 217.137,101.387 216.779 C 98.398 216.274,94.500 213.716,93.975 211.916 C 93.342 209.743,90.334 208.388,83.781 207.323 C 81.368 206.930,78.146 206.308,76.622 205.939 C 73.903 205.282,73.825 205.282,72.473 205.951 M79.449 209.074 C 84.667 209.938,86.854 210.852,89.920 213.450 C 92.852 215.936,94.784 217.049,98.532 218.411 C 101.849 219.618,104.208 220.998,105.807 222.668 C 106.391 223.278,107.672 224.239,108.653 224.804 C 110.555 225.898,112.850 227.900,114.105 229.559 L 114.871 230.571 112.602 235.089 C 111.354 237.574,109.933 239.980,109.443 240.436 L 108.553 241.264 105.332 240.185 C 101.746 238.983,100.880 238.570,96.848 236.132 C 95.309 235.202,93.241 234.176,92.253 233.853 C 89.655 233.004,87.821 232.023,85.995 230.507 C 84.037 228.881,80.358 227.002,76.539 225.677 C 71.392 223.892,70.975 223.374,69.954 217.491 L 69.224 213.287 69.940 212.128 C 71.045 210.341,73.790 207.959,74.501 208.172 C 74.837 208.273,77.063 208.679,79.449 209.074 M165.136 227.514 C 169.774 229.237,170.782 229.905,171.811 231.937 C 172.876 234.038,174.851 235.724,176.999 236.365 C 180.595 237.438,184.121 239.127,184.121 239.776 C 184.121 241.483,181.562 241.749,170.027 241.243 L 161.106 240.851 160.012 239.681 C 157.617 237.122,156.095 230.360,157.459 228.336 C 159.117 225.877,160.370 225.743,165.136 227.514 M154.162 230.763 C 155.964 239.462,156.682 241.183,159.241 242.939 L 160.749 243.974 169.785 244.288 L 178.821 244.603 180.247 246.133 C 181.916 247.922,181.888 248.176,179.870 249.599 L 178.352 250.669 165.088 250.778 L 151.824 250.886 150.310 249.590 L 148.796 248.294 148.797 244.308 C 148.801 235.085,149.399 230.552,150.869 228.624 L 152.186 226.898 152.960 227.798 C 153.386 228.293,153.927 229.627,154.162 230.763 M214.566 242.435 C 215.928 243.226,219.323 244.423,221.618 244.922 C 222.961 245.214,225.870 247.891,225.870 248.836 C 225.870 251.045,226.930 251.605,233.999 253.128 C 240.188 254.462,242.221 255.396,242.993 257.261 C 243.676 258.909,244.741 259.560,249.091 260.987 C 255.280 263.016,258.373 264.649,258.869 266.147 C 259.438 267.868,260.873 268.962,262.884 269.208 C 268.598 269.905,275.421 272.700,276.611 274.830 C 277.729 276.830,278.739 277.481,282.022 278.315 C 286.429 279.435,291.184 281.959,292.557 283.906 C 293.794 285.661,295.506 286.602,298.694 287.280 C 300.684 287.703,304.583 289.532,306.155 290.779 L 307.047 291.487 305.620 292.979 C 304.835 293.800,303.263 295.081,302.126 295.827 L 300.060 297.182 298.154 296.339 C 297.105 295.876,295.082 295.142,293.658 294.710 C 290.522 293.757,289.143 292.602,288.366 290.277 C 287.618 288.039,286.775 287.551,281.694 286.413 C 276.482 285.246,273.223 283.771,272.418 282.215 C 271.409 280.263,268.668 278.680,266.299 278.680 C 263.516 278.680,257.500 275.166,256.322 272.852 C 255.261 270.768,253.676 269.948,249.955 269.561 C 245.162 269.062,241.606 267.370,239.097 264.395 C 237.317 262.285,235.735 261.459,231.936 260.660 C 227.612 259.751,224.366 257.903,223.508 255.863 C 222.855 254.310,216.558 251.561,213.652 251.561 C 212.612 251.561,209.902 250.138,208.805 249.017 C 206.974 247.144,208.459 242.319,211.021 241.815 C 212.601 241.505,213.119 241.595,214.566 242.435 M77.609 284.445 C 74.134 284.731,73.469 284.898,71.809 285.904 C 68.007 288.207,62.749 293.955,60.540 298.222 C 58.370 302.414,57.178 303.505,54.416 303.826 C 49.198 304.433,47.748 304.926,46.125 306.644 C 44.262 308.615,44.245 309.087,45.949 311.536 C 48.749 315.560,57.301 316.019,121.138 315.568 L 152.891 315.344 154.880 313.993 C 156.764 312.713,158.178 311.200,159.079 309.496 C 160.277 307.232,154.718 303.656,148.265 302.539 C 142.267 301.500,142.348 301.580,141.259 295.624 C 139.975 288.596,138.149 286.660,131.373 285.141 C 127.194 284.204,86.881 283.682,77.609 284.445 M130.048 288.030 L 135.030 288.446 136.503 289.919 L 137.976 291.392 138.226 295.815 C 138.651 303.326,140.566 305.440,146.950 305.444 C 151.649 305.446,152.823 305.763,154.862 307.576 L 156.467 309.004 154.528 310.829 L 152.588 312.654 146.499 312.363 C 143.150 312.202,136.476 312.145,131.668 312.235 C 121.583 312.425,85.025 312.368,67.261 312.135 C 55.616 311.982,55.007 311.940,52.089 311.084 C 45.602 309.182,45.753 308.715,53.429 306.919 C 59.004 305.615,61.151 304.130,61.925 301.043 C 62.394 299.176,64.729 296.195,66.372 295.367 C 67.581 294.757,68.196 294.129,68.873 292.809 C 69.367 291.847,70.547 290.402,71.495 289.598 L 73.219 288.136 80.410 287.939 C 94.632 287.551,124.976 287.606,130.048 288.030 M79.027 295.944 C 73.899 298.431,72.993 300.377,75.808 302.854 C 78.840 305.523,78.547 305.496,103.756 305.455 L 126.114 305.418 127.581 304.559 C 133.314 301.199,130.787 295.988,123.004 295.120 C 120.980 294.895,111.734 294.737,100.539 294.737 L 81.514 294.737 79.027 295.944 M122.160 298.301 C 124.814 298.647,125.898 298.951,126.583 299.540 L 127.491 300.321 126.724 301.036 C 125.413 302.257,119.994 302.582,100.193 302.629 L 82.099 302.672 80.497 301.733 C 78.268 300.427,78.254 300.275,80.237 298.939 L 81.994 297.756 100.319 297.800 C 112.931 297.830,119.740 297.986,122.160 298.301 " stroke="none" fill="#6a847e" fill-rule="evenodd"></path><path id="path3" d="M153.791 19.625 C 153.301 19.782,153.140 19.925,153.434 19.941 C 156.036 20.089,159.495 22.000,158.393 22.681 C 157.935 22.964,156.298 26.366,156.293 27.046 C 156.290 27.321,156.833 27.085,157.627 26.466 C 159.847 24.735,160.285 24.692,173.618 24.882 C 184.461 25.037,187.276 24.958,195.240 24.275 C 205.278 23.415,228.937 23.376,240.143 24.200 C 242.988 24.410,254.022 24.646,264.662 24.726 C 286.716 24.891,285.103 24.627,285.103 28.065 C 285.103 30.687,286.182 33.216,288.591 36.236 C 291.977 40.481,293.310 41.327,298.179 42.321 C 302.457 43.194,305.085 45.241,305.085 47.700 C 305.085 48.444,308.644 51.681,309.722 51.918 C 311.733 52.359,312.740 53.602,313.829 56.986 C 314.767 59.898,315.014 60.293,317.255 62.461 C 319.095 64.241,319.853 65.284,320.434 66.838 C 321.399 69.418,322.578 70.820,324.674 71.882 C 327.898 73.515,330.601 77.213,331.498 81.215 C 331.708 82.151,331.876 103.047,331.929 134.773 C 331.977 163.387,332.098 192.578,332.199 199.643 L 332.382 212.489 333.004 206.780 C 333.346 203.640,333.801 199.304,334.016 197.145 C 334.678 190.472,334.876 189.839,335.184 193.399 C 335.328 195.067,335.591 197.716,335.769 199.286 C 335.947 200.856,336.296 204.228,336.545 206.780 C 337.432 215.856,337.561 208.165,337.648 140.589 L 337.734 73.327 336.485 70.524 C 335.433 68.161,334.740 67.235,332.084 64.636 C 330.350 62.940,328.213 60.556,327.335 59.338 C 326.458 58.120,324.971 56.558,324.030 55.868 C 321.932 54.327,319.684 51.922,318.293 49.728 C 317.717 48.820,316.461 47.548,315.502 46.903 C 313.199 45.352,312.135 44.034,310.637 40.878 C 309.439 38.353,309.315 38.223,307.107 37.190 C 304.288 35.871,302.248 34.071,301.123 31.910 C 300.381 30.483,299.891 30.076,297.413 28.834 C 295.843 28.047,293.825 26.792,292.929 26.045 C 291.466 24.827,291.051 24.673,288.884 24.537 C 286.362 24.379,285.832 24.043,285.822 22.598 C 285.802 19.753,258.351 18.276,236.753 19.957 C 229.555 20.517,202.914 20.418,195.540 19.804 C 188.735 19.237,155.449 19.094,153.791 19.625 M153.961 38.304 C 153.826 39.386,153.787 40.483,153.874 40.742 C 153.961 41.001,154.149 40.193,154.291 38.946 C 154.433 37.698,154.472 36.601,154.378 36.507 C 154.284 36.413,154.096 37.221,153.961 38.304 M149.956 39.429 C 149.960 40.214,150.033 40.493,150.119 40.049 C 150.204 39.606,150.201 38.963,150.111 38.622 C 150.022 38.281,149.952 38.644,149.956 39.429 M289.970 62.805 C 287.576 64.907,287.655 65.833,290.526 69.333 L 291.347 70.334 292.489 69.154 C 293.116 68.506,293.884 67.366,294.195 66.622 L 294.759 65.269 293.028 63.454 L 291.297 61.640 289.970 62.805 " stroke="none" fill="#916406" fill-rule="evenodd"></path><path id="path4" d="M149.364 14.990 C 147.122 15.866,145.842 17.108,144.819 19.400 L 144.001 21.231 143.702 70.830 C 143.537 98.109,143.481 125.687,143.577 132.114 C 143.684 139.230,143.622 143.800,143.419 143.800 C 143.236 143.800,143.087 142.927,143.087 141.861 C 143.087 138.109,142.685 137.757,138.091 137.485 C 133.278 137.200,128.726 135.389,126.072 132.702 C 121.995 128.575,113.167 126.486,104.098 127.502 C 96.710 128.330,94.414 129.657,92.984 133.926 C 92.094 136.583,91.539 137.446,89.785 138.900 C 85.943 142.085,83.624 149.411,84.202 156.536 C 84.403 159.009,84.570 162.654,84.573 164.637 C 84.580 169.296,84.555 169.265,88.389 169.532 C 91.150 169.724,90.944 169.748,86.667 169.734 C 82.051 169.719,81.706 169.768,79.763 170.719 C 73.423 173.820,73.574 183.148,80.021 186.641 L 81.050 187.199 77.724 188.321 C 75.895 188.938,73.113 189.623,71.543 189.843 C 65.997 190.620,63.729 191.441,62.055 193.277 C 60.571 194.905,57.558 199.657,57.073 201.137 C 56.827 201.885,55.692 203.519,54.550 204.768 C 48.635 211.237,48.530 223.815,54.341 230.065 C 55.756 231.587,57.296 233.402,57.764 234.098 C 58.909 235.801,60.562 236.823,64.113 238.023 C 66.580 238.857,67.380 239.329,68.810 240.798 C 71.215 243.267,76.512 245.805,82.345 247.282 C 83.414 247.553,84.428 248.225,85.735 249.532 C 86.761 250.557,88.243 251.690,89.028 252.049 C 89.813 252.407,91.192 253.075,92.092 253.532 C 93.988 254.493,96.430 255.228,100.433 256.040 C 102.542 256.468,103.580 256.885,104.458 257.655 C 107.727 260.525,109.300 260.564,112.308 257.846 C 113.321 256.931,114.482 256.384,116.793 255.733 C 121.881 254.300,122.831 253.395,124.720 248.186 C 125.401 246.306,126.072 245.542,128.403 243.991 C 132.190 241.471,133.661 232.803,131.902 223.372 C 131.591 221.704,131.241 219.725,131.124 218.974 C 130.884 217.432,129.519 216.592,127.250 216.592 C 126.156 216.592,125.917 216.408,125.084 214.918 L 124.148 213.243 125.143 212.257 L 126.137 211.271 129.235 212.204 C 131.819 212.983,132.368 213.278,132.546 213.985 C 132.663 214.451,133.193 215.028,133.725 215.266 C 134.257 215.505,135.125 216.191,135.653 216.790 C 136.867 218.165,139.435 219.564,142.194 220.352 C 143.372 220.688,144.780 221.190,145.324 221.467 L 146.313 221.971 145.427 223.483 C 144.939 224.315,144.278 226.035,143.957 227.306 C 143.637 228.577,143.229 229.769,143.052 229.955 C 142.221 230.829,143.113 247.706,144.126 250.270 C 144.897 252.222,146.062 253.440,148.050 254.372 L 150.045 255.308 165.031 255.308 C 181.981 255.308,182.859 255.198,185.591 252.730 C 186.963 251.490,187.659 251.488,187.684 252.723 C 187.694 253.215,194.258 259.626,196.075 260.919 C 198.239 262.458,199.812 263.136,202.537 263.701 C 205.457 264.308,206.814 265.046,207.831 266.582 C 209.627 269.296,213.073 271.034,219.031 272.228 C 223.160 273.056,224.642 273.696,224.993 274.803 C 225.837 277.463,230.711 280.438,236.687 281.941 C 239.359 282.613,239.909 282.879,240.336 283.703 C 241.603 286.154,248.118 289.405,254.716 290.880 C 256.454 291.269,256.728 291.471,257.807 293.158 C 259.701 296.118,264.901 298.722,271.327 299.927 C 272.298 300.109,273.001 300.599,273.970 301.768 C 275.589 303.721,277.563 304.919,280.927 305.993 C 288.675 308.464,289.871 308.997,291.704 310.794 C 294.920 313.948,298.669 315.071,305.977 315.070 C 311.713 315.068,314.262 313.704,316.159 309.617 C 316.718 308.415,317.339 307.708,318.245 307.242 C 321.654 305.488,323.153 302.257,324.341 294.101 C 325.094 288.939,322.112 281.868,318.153 279.421 C 317.470 278.998,316.859 278.538,316.796 278.399 C 316.238 277.161,313.490 275.799,309.451 274.759 C 308.270 274.455,307.729 274.051,307.037 272.954 C 305.311 270.220,300.040 267.758,293.319 266.547 C 290.699 266.075,289.741 265.658,289.741 264.991 C 289.741 262.127,283.183 258.403,275.789 257.067 L 274.219 256.784 275.647 256.510 C 282.374 255.221,283.232 255.186,309.021 255.164 C 336.606 255.140,336.402 255.153,339.331 253.215 C 343.075 250.737,343.230 248.686,342.861 206.537 C 342.704 188.615,342.580 151.392,342.586 123.818 L 342.597 73.684 341.318 69.258 C 339.778 63.933,338.556 61.556,336.726 60.327 C 334.138 58.590,332.869 57.329,332.019 55.652 C 331.007 53.655,329.245 51.913,326.930 50.620 C 325.769 49.972,324.775 48.982,323.731 47.435 C 321.668 44.376,320.941 43.661,318.842 42.634 C 316.871 41.669,315.449 40.122,314.549 37.965 C 313.744 36.035,312.009 34.313,309.902 33.353 C 307.959 32.469,306.025 30.641,305.623 29.309 C 305.214 27.957,302.957 25.710,301.021 24.729 C 298.432 23.417,297.330 22.519,295.946 20.593 C 294.074 17.988,292.191 16.986,287.325 16.007 L 283.140 15.165 243.176 15.134 C 221.195 15.117,193.497 14.918,181.624 14.693 C 152.489 14.141,151.516 14.150,149.364 14.990 M172.669 17.685 C 183.384 17.980,193.675 18.387,195.540 18.589 C 199.910 19.064,228.356 19.515,235.326 19.221 C 246.574 18.746,275.824 18.882,279.951 19.429 C 286.741 20.328,289.890 21.578,293.007 24.611 C 293.921 25.500,295.999 26.949,297.627 27.832 C 300.300 29.283,300.760 29.696,302.389 32.107 C 303.945 34.409,304.511 34.939,306.512 35.969 C 309.432 37.472,310.225 38.217,311.549 40.702 C 312.745 42.945,314.503 44.889,316.714 46.410 C 317.535 46.975,318.651 48.194,319.193 49.120 C 320.535 51.409,322.626 53.614,324.747 54.975 C 325.765 55.628,327.035 56.894,327.745 57.963 C 328.904 59.710,332.550 63.461,334.199 64.603 C 335.121 65.243,335.495 65.940,337.125 70.060 L 338.418 73.327 338.640 121.142 C 338.762 147.440,339.046 174.897,339.271 182.159 C 339.889 202.100,340.454 233.264,340.241 235.682 C 340.138 236.860,339.881 240.138,339.671 242.966 C 338.921 253.048,342.198 252.318,295.450 252.807 C 279.158 252.978,272.437 253.731,270.222 255.636 C 268.620 257.014,269.676 257.823,275.908 259.992 C 280.680 261.653,283.224 262.970,284.746 264.566 C 286.837 266.759,288.684 267.823,292.512 269.040 C 296.324 270.252,298.686 271.498,302.252 274.179 C 303.454 275.083,305.396 276.104,306.774 276.557 C 311.520 278.117,313.541 279.463,315.734 282.522 C 316.541 283.647,317.775 285.129,318.477 285.816 C 319.180 286.503,320.240 288.050,320.833 289.254 L 321.913 291.443 321.116 294.428 C 319.958 298.768,318.964 300.715,316.673 303.122 C 315.553 304.300,314.150 305.986,313.555 306.869 C 310.346 311.631,309.732 311.926,304.223 311.353 C 299.714 310.883,299.651 310.864,297.292 309.253 C 295.691 308.159,293.631 307.207,290.996 306.344 C 286.974 305.026,281.966 302.568,279.743 300.819 C 277.977 299.430,275.945 298.447,271.960 297.057 C 266.524 295.160,264.587 294.179,262.444 292.239 C 260.388 290.377,258.813 289.526,253.880 287.612 C 252.310 287.003,249.902 285.712,248.528 284.743 C 244.702 282.045,242.715 280.970,239.681 279.958 C 235.651 278.615,233.136 277.233,230.508 274.918 C 228.077 272.777,224.649 270.972,221.068 269.948 C 218.201 269.127,215.931 267.934,213.914 266.189 C 212.088 264.609,209.143 263.010,205.602 261.677 C 202.106 260.362,200.113 259.236,198.751 257.810 C 198.064 257.091,196.281 255.643,194.787 254.594 C 191.268 252.121,189.747 250.015,188.301 245.611 C 186.675 240.662,184.853 240.892,184.840 246.049 C 184.835 248.107,184.763 248.282,183.318 249.755 C 180.165 252.971,180.108 252.981,164.848 252.985 L 151.462 252.988 149.634 251.757 C 146.232 249.466,146.196 249.326,146.366 239.144 C 146.546 228.326,147.052 226.959,152.364 222.946 C 153.973 221.731,153.758 221.550,147.725 219.061 C 141.732 216.588,141.556 216.488,138.917 214.033 C 136.272 211.572,135.042 210.966,129.936 209.605 L 126.241 208.620 124.968 209.306 C 124.268 209.683,123.176 210.706,122.542 211.581 L 121.388 213.170 122.062 214.878 C 122.936 217.097,124.140 218.982,126.069 221.154 C 130.805 226.486,130.647 235.387,125.716 241.035 C 124.859 242.016,123.357 244.454,122.377 246.453 C 120.453 250.378,118.605 252.399,116.550 252.825 C 115.936 252.952,114.007 253.460,112.266 253.953 C 110.141 254.554,108.673 254.778,107.805 254.633 C 98.234 253.030,95.926 252.181,92.614 249.049 C 90.651 247.192,89.606 246.664,83.830 244.609 C 79.514 243.073,77.525 242.000,75.456 240.093 C 74.027 238.776,70.244 236.825,67.261 235.866 C 63.644 234.704,61.309 232.923,59.337 229.822 C 58.642 228.728,57.387 227.095,56.550 226.193 C 53.921 223.364,53.746 222.780,54.016 217.730 C 54.266 213.056,54.537 212.166,56.460 209.720 C 57.040 208.981,58.062 207.060,58.731 205.450 C 61.998 197.586,65.983 194.769,76.896 192.609 C 82.736 191.453,83.125 191.250,84.426 188.685 L 85.279 187.004 83.912 185.652 C 83.160 184.908,81.792 183.683,80.870 182.928 C 77.785 180.402,77.268 178.605,78.912 176.123 C 80.975 173.009,81.927 172.641,86.868 173.043 C 91.660 173.434,91.939 173.357,93.490 171.216 C 94.376 169.993,94.477 169.648,94.134 169.005 C 93.313 167.462,92.259 166.270,90.947 165.402 C 88.367 163.694,86.767 158.946,86.720 152.858 C 86.706 151.046,88.625 147.082,90.491 145.068 C 91.209 144.294,92.893 141.423,94.234 138.689 C 97.722 131.575,98.034 131.318,104.452 130.271 L 108.762 129.568 112.809 130.478 C 117.444 131.520,119.369 132.394,122.021 134.657 C 123.309 135.757,125.095 136.740,127.695 137.782 C 132.686 139.782,135.780 141.455,137.672 143.175 C 141.071 146.266,145.004 147.024,149.110 145.381 C 151.276 144.515,151.518 143.801,150.044 142.625 C 149.381 142.096,148.316 140.593,147.661 139.263 L 146.476 136.857 146.476 104.736 C 146.476 87.069,146.586 62.417,146.720 49.955 C 146.855 37.493,146.975 25.973,146.988 24.354 C 147.017 20.798,150.527 16.256,152.687 16.980 C 152.963 17.072,161.955 17.389,172.669 17.685 M204.103 25.321 C 201.847 25.477,196.548 25.871,192.328 26.196 C 188.109 26.521,179.329 26.904,172.817 27.046 L 160.978 27.304 160.027 28.193 C 158.680 29.451,158.259 30.430,157.496 34.077 C 156.697 37.897,156.713 35.259,157.152 92.264 C 157.408 125.470,157.383 134.767,157.034 136.153 C 156.448 138.485,155.054 141.229,153.784 142.551 C 152.812 143.563,152.776 143.710,153.122 145.227 C 153.324 146.111,153.710 148.080,153.981 149.604 C 154.467 152.339,154.519 152.432,158.021 156.743 L 161.568 161.110 161.828 165.457 L 162.087 169.803 160.963 171.630 C 160.345 172.635,159.506 174.532,159.100 175.845 C 157.574 180.774,155.508 184.173,152.989 185.895 C 152.088 186.512,151.632 187.138,151.475 187.979 C 150.889 191.098,150.236 191.498,144.914 191.996 C 138.140 192.630,133.300 194.412,133.925 196.041 C 134.181 196.707,142.109 200.601,144.543 201.257 C 145.389 201.485,146.448 202.119,146.973 202.713 C 150.235 206.402,150.383 206.500,154.734 207.859 C 160.660 209.708,162.292 210.516,164.920 212.897 C 166.805 214.605,167.902 215.256,170.774 216.367 C 175.079 218.032,177.906 219.570,180.731 221.784 C 185.344 225.398,192.862 226.879,200.654 225.709 C 209.196 224.427,215.940 225.860,220.497 229.927 C 222.039 231.303,223.703 232.302,226.482 233.522 C 232.956 236.363,233.973 236.908,235.751 238.491 C 238.023 240.515,238.756 240.890,244.479 242.965 C 250.233 245.051,251.788 245.807,252.988 247.101 C 255.137 249.417,256.685 249.871,264.937 250.606 C 265.518 250.658,265.810 250.180,266.561 247.949 C 267.716 244.519,268.365 243.533,270.032 242.685 C 272.953 241.199,273.253 241.186,295.353 241.606 C 326.988 242.208,327.046 242.199,328.347 236.516 C 329.573 231.162,330.861 176.261,331.042 121.709 L 331.171 82.668 330.349 80.336 C 328.942 76.341,327.036 74.686,323.363 74.270 C 319.162 73.794,318.413 72.934,318.045 68.158 C 317.835 65.433,317.770 65.265,316.451 64.044 C 314.854 62.567,313.960 60.949,313.095 57.973 C 312.262 55.105,311.711 54.358,309.512 53.117 C 307.243 51.836,305.082 49.561,303.876 47.179 C 302.155 43.783,301.228 43.332,295.284 43.003 C 289.735 42.696,288.290 41.346,284.180 32.633 C 280.945 25.773,281.597 25.967,260.660 25.641 C 229.726 25.161,208.205 25.039,204.103 25.321 M275.119 32.304 C 275.731 33.193,276.783 35.035,277.456 36.398 L 278.680 38.874 278.691 52.532 C 278.713 79.120,278.442 78.840,304.193 78.867 C 319.434 78.883,325.071 79.509,326.563 81.352 C 327.496 82.505,327.269 229.267,326.330 232.137 C 326.170 232.625,324.715 233.561,322.028 234.903 L 317.968 236.931 309.118 236.920 C 304.250 236.914,292.261 236.762,282.476 236.583 C 262.191 236.212,262.926 236.129,258.740 239.275 L 256.637 240.856 252.168 240.856 C 247.115 240.856,244.394 240.127,242.509 238.268 C 239.860 235.655,233.381 232.293,230.994 232.293 C 229.961 232.293,227.081 230.546,226.585 229.619 C 224.041 224.866,210.930 221.568,200.064 222.946 C 195.988 223.464,195.409 223.457,191.171 222.843 L 186.638 222.186 185.698 220.767 C 183.954 218.131,183.422 217.813,176.450 215.236 C 174.880 214.656,172.738 213.967,171.690 213.706 C 170.067 213.300,169.689 213.040,169.129 211.943 C 167.558 208.862,165.847 207.961,156.913 205.509 C 154.036 204.720,153.218 204.143,154.155 203.564 C 154.692 203.232,156.323 199.912,156.982 197.810 C 157.456 196.296,157.505 195.224,157.263 191.647 L 156.970 187.316 158.049 185.808 C 158.642 184.978,159.546 183.256,160.057 181.980 C 160.568 180.705,161.587 179.019,162.321 178.234 C 165.881 174.427,167.804 164.460,165.845 159.963 C 164.942 157.890,163.649 156.277,162.048 155.229 C 159.426 153.513,159.112 152.851,158.604 147.955 C 158.357 145.572,158.215 143.519,158.289 143.394 C 159.481 141.366,159.543 138.593,159.509 88.351 C 159.474 37.127,159.515 35.471,160.859 33.296 C 161.264 32.640,168.517 32.163,184.835 31.716 C 193.176 31.488,203.533 31.191,207.850 31.056 C 212.168 30.920,228.819 30.782,244.854 30.748 L 274.007 30.687 275.119 32.304 M300.854 50.163 C 301.726 52.018,304.546 55.256,305.939 56.001 C 307.165 56.657,307.131 56.809,305.352 58.643 C 304.323 59.705,303.222 60.407,301.925 60.832 L 300.013 61.456 297.707 59.185 C 295.087 56.604,295.018 56.196,296.622 52.708 C 298.521 48.576,299.759 47.832,300.854 50.163 M293.965 62.708 L 296.583 65.477 296.361 67.440 C 295.854 71.938,294.924 73.149,291.978 73.149 C 290.795 73.149,288.621 70.593,287.009 67.306 L 286.011 65.271 286.884 63.624 C 287.698 62.090,290.062 59.951,290.955 59.943 C 291.170 59.940,292.525 61.185,293.965 62.708 M184.478 79.690 C 178.741 81.748,178.608 81.900,177.869 87.243 L 177.280 91.508 178.292 92.322 C 178.849 92.771,180.589 93.657,182.159 94.292 L 185.013 95.448 203.747 95.449 L 222.480 95.450 224.379 93.606 L 226.278 91.761 226.044 87.896 C 225.643 81.257,223.722 78.535,219.808 79.062 C 217.655 79.352,197.460 79.338,190.901 79.042 C 187.225 78.877,186.556 78.944,184.478 79.690 M238.972 89.425 C 238.475 89.922,238.694 91.704,239.251 91.704 C 239.812 91.704,239.911 90.899,239.482 89.812 C 239.342 89.458,239.113 89.284,238.972 89.425 M183.586 110.402 C 179.225 111.811,177.191 113.221,175.443 116.045 C 174.591 117.422,174.679 117.829,176.157 119.351 C 179.386 122.676,183.574 123.457,197.101 123.255 C 202.817 123.170,225.879 122.935,248.350 122.734 C 295.196 122.314,299.023 122.093,301.578 119.662 C 303.363 117.964,303.456 117.545,302.438 115.808 C 300.049 111.731,296.830 111.093,277.252 110.814 C 269.893 110.709,253.756 110.467,241.392 110.276 C 190.123 109.485,186.397 109.493,183.586 110.402 M206.423 115.613 C 233.102 116.203,264.763 117.276,265.088 117.601 C 265.171 117.684,262.924 117.754,260.095 117.757 C 257.266 117.760,250.134 117.913,244.246 118.096 C 238.359 118.280,222.972 118.620,210.054 118.853 L 186.566 119.276 184.808 118.453 C 182.635 117.435,182.635 117.434,184.924 116.056 C 186.535 115.086,187.047 114.951,188.582 115.093 C 189.563 115.184,197.591 115.418,206.423 115.613 M182.516 136.615 C 177.769 137.631,176.049 138.823,174.385 142.249 L 173.654 143.754 174.616 145.016 C 178.594 150.232,177.899 150.190,250.491 149.542 C 300.012 149.100,299.727 149.117,302.606 146.424 C 304.760 144.409,304.948 143.847,304.053 142.092 C 301.322 136.738,301.665 136.774,248.631 136.309 C 192.687 135.818,186.091 135.849,182.516 136.615 M210.526 140.218 C 272.702 141.211,290.208 141.756,294.202 142.824 L 297.056 143.587 294.558 144.175 C 290.687 145.087,274.777 145.511,214.802 146.303 C 183.728 146.713,185.264 146.800,181.243 144.403 L 179.801 143.543 181.515 142.444 C 184.144 140.759,186.297 139.891,187.868 139.885 C 188.653 139.881,198.849 140.031,210.526 140.218 M106.856 145.674 C 105.908 146.900,104.264 148.908,103.203 150.136 L 101.275 152.367 104.321 156.988 C 107.822 162.298,107.689 162.202,114.719 164.480 C 119.984 166.185,121.813 167.137,124.353 169.495 C 128.284 173.143,132.786 174.997,139.036 175.543 L 143.622 175.943 144.942 174.430 C 145.668 173.597,146.675 172.158,147.180 171.231 L 148.097 169.547 147.242 167.276 C 144.845 160.907,143.716 159.862,136.399 157.234 C 132.530 155.845,131.016 154.971,128.772 152.830 C 126.674 150.829,123.129 149.161,116.026 146.831 C 114.587 146.359,112.373 145.404,111.108 144.708 C 109.842 144.012,108.756 143.443,108.693 143.443 C 108.631 143.443,107.804 144.447,106.856 145.674 M113.470 149.581 C 118.661 150.559,121.965 151.822,123.218 153.308 C 125.644 156.186,129.128 158.309,132.739 159.109 C 135.899 159.809,137.975 160.896,138.941 162.355 C 139.420 163.079,140.675 164.244,141.730 164.944 C 143.160 165.894,143.861 166.670,144.480 167.991 L 145.310 169.765 144.488 170.877 L 143.666 171.989 139.184 171.989 C 134.020 171.989,130.827 170.939,129.762 168.893 C 128.515 166.496,124.484 164.088,119.708 162.888 C 114.815 161.658,114.293 161.415,111.962 159.283 C 110.838 158.254,109.634 157.319,109.286 157.203 C 108.938 157.088,107.967 155.947,107.128 154.669 L 105.602 152.344 107.128 150.411 C 108.132 149.138,108.836 148.545,109.188 148.676 C 109.483 148.785,111.409 149.192,113.470 149.581 M183.805 163.980 C 178.940 165.029,176.643 166.251,174.878 168.730 L 174.171 169.724 175.008 171.531 C 176.429 174.598,178.130 176.161,181.044 177.077 L 183.586 177.877 228.724 177.788 C 300.944 177.646,300.774 177.661,304.080 171.394 L 304.906 169.829 304.156 168.527 C 303.078 166.657,300.806 165.138,298.572 164.791 C 292.506 163.851,187.834 163.111,183.805 163.980 M218.733 167.351 C 284.013 168.119,297.944 168.545,296.756 169.732 C 294.955 171.533,281.716 172.052,211.506 173.072 C 183.914 173.472,186.133 173.621,182.794 171.144 C 180.732 169.614,180.860 169.412,185.013 167.642 C 186.725 166.912,183.660 166.939,218.733 167.351 M107.451 177.470 C 107.016 177.933,106.172 179.258,105.575 180.414 C 103.114 185.180,101.598 187.730,100.259 189.349 C 99.481 190.291,98.297 192.109,97.628 193.390 L 96.411 195.718 97.194 198.412 C 98.935 204.407,99.705 205.103,106.459 206.797 L 108.905 207.410 110.235 206.024 C 111.076 205.149,111.937 203.652,112.572 201.963 C 114.029 198.087,115.479 195.299,117.305 192.864 C 118.189 191.686,119.322 189.889,119.823 188.870 L 120.735 187.017 119.431 185.054 C 118.635 183.854,117.326 182.544,116.067 181.687 C 114.933 180.915,113.684 179.918,113.292 179.472 C 111.145 177.033,108.662 176.181,107.451 177.470 M114.777 186.013 L 116.976 187.098 115.604 188.093 C 113.667 189.496,112.747 191.321,110.590 198.037 L 108.700 203.925 106.469 201.735 C 105.242 200.530,103.281 198.963,102.111 198.252 C 99.210 196.490,98.875 195.342,101.003 194.460 C 102.510 193.836,104.354 191.636,105.063 189.618 C 105.401 188.655,106.333 186.476,107.135 184.774 L 108.593 181.681 110.586 183.305 C 111.681 184.198,113.568 185.417,114.777 186.013 M145.220 195.043 C 147.055 195.777,147.026 196.129,145.060 196.999 L 143.466 197.704 141.635 196.776 C 139.578 195.734,139.579 195.739,141.508 195.033 C 143.332 194.364,143.525 194.365,145.220 195.043 M72.273 209.479 C 71.383 210.299,70.334 211.491,69.940 212.128 L 69.224 213.287 69.954 217.491 C 70.975 223.374,71.392 223.892,76.539 225.677 C 80.358 227.002,84.037 228.881,85.995 230.507 C 87.821 232.023,89.655 233.004,92.253 233.853 C 93.241 234.176,95.309 235.202,96.848 236.132 C 100.880 238.570,101.746 238.983,105.332 240.185 L 108.553 241.264 109.443 240.436 C 109.933 239.980,111.354 237.574,112.602 235.089 L 114.871 230.571 114.105 229.559 C 112.850 227.900,110.555 225.898,108.653 224.804 C 107.672 224.239,106.391 223.278,105.807 222.668 C 104.208 220.998,101.849 219.618,98.532 218.411 C 94.784 217.049,92.852 215.936,89.920 213.450 C 86.854 210.852,84.667 209.938,79.449 209.074 C 77.063 208.679,74.837 208.273,74.501 208.172 C 74.112 208.056,73.302 208.530,72.273 209.479 M78.299 211.614 C 83.367 212.200,84.086 212.507,85.479 214.684 C 87.247 217.448,92.137 220.042,97.770 221.202 C 100.151 221.693,100.252 221.762,101.203 223.553 C 102.184 225.402,104.421 227.107,106.879 227.882 C 107.957 228.222,109.350 228.927,109.974 229.448 L 111.110 230.396 109.906 233.071 L 108.702 235.746 106.606 235.093 C 105.453 234.734,103.457 234.273,102.170 234.067 C 100.883 233.862,99.246 233.397,98.532 233.035 C 97.819 232.674,95.904 231.938,94.278 231.401 C 91.940 230.628,91.217 230.222,90.822 229.458 C 90.012 227.891,87.648 225.999,85.776 225.419 C 80.012 223.634,76.716 222.647,75.401 222.311 C 73.717 221.881,73.795 222.033,72.800 217.177 C 71.924 212.907,71.923 213.318,72.818 212.180 C 73.654 211.117,73.837 211.098,78.299 211.614 M159.154 226.683 C 157.975 227.280,156.646 229.312,156.646 230.519 C 156.646 232.417,158.864 238.454,160.012 239.681 L 161.106 240.851 170.027 241.243 C 181.562 241.749,184.121 241.483,184.121 239.776 C 184.121 239.127,180.595 237.438,176.999 236.365 C 174.851 235.724,172.876 234.038,171.811 231.937 C 170.226 228.809,161.836 225.326,159.154 226.683 M163.245 229.655 L 165.569 230.585 164.765 232.025 C 162.715 235.695,160.832 235.764,159.652 232.213 C 158.633 229.142,159.831 228.288,163.245 229.655 M211.021 241.815 C 208.459 242.319,206.974 247.144,208.805 249.017 C 209.902 250.138,212.612 251.561,213.652 251.561 C 216.558 251.561,222.855 254.310,223.508 255.863 C 224.366 257.903,227.612 259.751,231.936 260.660 C 235.735 261.459,237.317 262.285,239.097 264.395 C 241.606 267.370,245.162 269.062,249.955 269.561 C 253.676 269.948,255.261 270.768,256.322 272.852 C 257.500 275.166,263.516 278.680,266.299 278.680 C 268.668 278.680,271.409 280.263,272.418 282.215 C 273.223 283.771,276.482 285.246,281.694 286.413 C 286.775 287.551,287.618 288.039,288.366 290.277 C 289.143 292.602,290.522 293.757,293.658 294.710 C 295.082 295.142,297.105 295.876,298.154 296.339 L 300.060 297.182 302.126 295.827 C 303.263 295.081,304.835 293.800,305.620 292.979 L 307.047 291.487 306.155 290.779 C 304.583 289.532,300.684 287.703,298.694 287.280 C 295.506 286.602,293.794 285.661,292.557 283.906 C 291.184 281.959,286.429 279.435,282.022 278.315 C 278.739 277.481,277.729 276.830,276.611 274.830 C 275.421 272.700,268.598 269.905,262.884 269.208 C 260.873 268.962,259.438 267.868,258.869 266.147 C 258.373 264.649,255.280 263.016,249.091 260.987 C 244.741 259.560,243.676 258.909,242.993 257.261 C 242.221 255.396,240.188 254.462,233.999 253.128 C 226.930 251.605,225.870 251.045,225.870 248.836 C 225.870 247.891,222.961 245.214,221.618 244.922 C 219.323 244.423,215.928 243.226,214.566 242.435 C 213.119 241.595,212.601 241.505,211.021 241.815 M219.804 247.271 C 221.695 247.294,222.490 247.701,222.186 248.492 C 221.719 249.710,211.954 249.163,211.954 247.919 C 211.954 246.631,212.939 246.328,215.606 246.796 C 217.032 247.046,218.921 247.260,219.804 247.271 M235.147 256.196 L 238.180 256.782 236.574 257.182 C 233.230 258.015,230.710 258.106,229.425 257.442 L 228.225 256.821 229.210 255.974 C 229.954 255.333,230.429 255.185,231.154 255.368 C 231.682 255.501,233.479 255.873,235.147 256.196 M250.214 264.285 C 253.082 265.410,253.148 265.591,250.962 266.336 C 248.748 267.090,247.542 267.053,245.825 266.177 C 244.220 265.358,244.265 265.054,246.143 264.062 C 247.785 263.195,247.381 263.173,250.214 264.285 M267.638 273.017 C 270.655 274.015,270.872 274.268,269.280 274.933 C 266.445 276.117,261.909 275.571,261.909 274.045 C 261.909 272.693,264.987 272.141,267.638 273.017 M84.032 278.663 C 78.248 278.908,76.561 279.065,73.960 279.597 C 73.523 279.687,72.178 280.641,70.971 281.718 C 69.764 282.794,68.656 283.675,68.508 283.675 C 68.272 283.675,66.093 285.248,63.096 287.581 C 61.282 288.993,57.633 295.897,56.931 299.246 L 56.696 300.365 52.523 300.783 C 45.774 301.460,43.241 302.911,41.933 306.851 C 40.129 312.282,44.244 317.659,51.901 319.878 L 55.083 320.800 101.997 320.789 C 154.505 320.776,152.131 320.857,154.244 319.003 C 155.074 318.275,156.306 317.394,156.980 317.047 C 158.516 316.257,162.835 312.130,163.993 310.348 L 164.862 309.010 163.985 307.621 C 163.503 306.857,162.640 305.898,162.067 305.491 C 161.495 305.083,160.526 304.283,159.915 303.712 C 158.526 302.414,156.112 301.265,153.555 300.684 C 151.669 300.256,143.450 292.375,143.444 290.990 C 143.433 288.304,139.870 284.505,136.346 283.421 C 135.245 283.083,133.782 282.366,133.095 281.829 C 132.409 281.291,130.725 280.344,129.353 279.724 L 126.860 278.596 108.658 278.493 C 98.646 278.436,87.565 278.512,84.032 278.663 M284.685 282.018 C 287.248 283.359,284.208 284.849,281.019 283.815 C 278.456 282.985,278.336 282.725,280.135 281.909 C 282.131 281.003,282.775 281.019,284.685 282.018 M131.373 285.141 C 138.149 286.660,139.975 288.596,141.259 295.624 C 142.348 301.580,142.267 301.500,148.265 302.539 C 154.718 303.656,160.277 307.232,159.079 309.496 C 158.178 311.200,156.764 312.713,154.880 313.993 L 152.891 315.344 121.138 315.568 C 57.301 316.019,48.749 315.560,45.949 311.536 C 43.060 307.384,45.876 304.820,54.416 303.826 C 57.178 303.505,58.370 302.414,60.540 298.222 C 62.749 293.955,68.007 288.207,71.809 285.904 C 74.514 284.265,77.547 284.108,104.550 284.205 C 127.374 284.287,127.596 284.295,131.373 285.141 M300.969 290.699 C 302.509 291.434,302.526 291.623,301.133 292.615 L 300.035 293.396 296.940 292.585 C 295.238 292.138,293.708 291.652,293.540 291.505 C 293.216 291.220,296.379 290.471,299.274 290.147 C 299.513 290.120,300.276 290.369,300.969 290.699 M80.237 298.939 C 78.254 300.275,78.268 300.427,80.497 301.733 L 82.099 302.672 100.193 302.629 C 119.994 302.582,125.413 302.257,126.724 301.036 L 127.491 300.321 126.583 299.540 C 124.960 298.144,120.486 297.848,100.319 297.800 L 81.994 297.756 80.237 298.939 " stroke="none" fill="#9facae" fill-rule="evenodd"></path></g></svg>