<svg id="svg" version="1.1" xmlns="http://www.w3.org/2000/svg" xmlns:xlink="http://www.w3.org/1999/xlink" width="400" height="320" viewBox="0, 0, 400,320"><g id="svgg"><path id="path0" d="M179.314 27.686 C 179.211 27.953,179.311 28.616,179.537 29.160 L 179.946 30.149 180.390 29.301 C 180.895 28.337,180.667 27.200,179.968 27.200 C 179.711 27.200,179.416 27.419,179.314 27.686 M59.584 35.027 C 59.114 36.058,59.112 36.207,59.544 37.339 L 59.888 38.240 60.333 37.440 C 60.897 36.425,60.915 35.479,60.384 34.753 C 59.997 34.224,59.941 34.243,59.584 35.027 M39.716 42.087 C 33.651 43.654,33.953 44.639,41.046 46.418 C 44.577 47.303,45.760 47.115,47.483 45.392 L 48.758 44.118 47.819 43.362 C 45.024 41.110,44.076 40.961,39.716 42.087 M178.927 169.956 L 177.854 172.266 178.224 175.813 C 178.935 182.626,180.161 182.663,181.296 175.906 L 181.987 171.792 180.993 169.719 L 180.000 167.646 178.927 169.956 M194.813 175.920 C 192.122 178.782,192.241 181.482,195.174 184.136 C 195.985 184.871,200.753 185.232,201.154 184.589 C 202.421 182.559,200.900 178.580,197.971 176.264 C 196.125 174.804,195.886 174.778,194.813 175.920 M145.440 183.410 C 144.208 183.546,140.392 184.023,136.960 184.469 C 133.528 184.916,129.145 185.369,127.221 185.476 C 123.793 185.666,123.704 185.690,122.901 186.664 C 118.981 191.413,114.765 192.529,103.966 191.674 C 99.964 191.358,99.357 191.385,96.446 192.008 C 94.705 192.382,91.805 192.875,90.002 193.105 C 86.652 193.533,85.424 194.035,84.779 195.239 C 82.860 198.825,79.008 200.220,71.986 199.873 L 67.600 199.656 65.606 201.619 C 63.795 203.403,63.631 203.674,63.813 204.583 C 64.172 206.381,65.341 208.360,66.568 209.249 L 67.771 210.121 71.726 209.724 C 73.901 209.506,77.573 208.855,79.886 208.278 L 84.093 207.227 86.511 207.797 C 87.841 208.111,89.661 208.732,90.555 209.178 L 92.181 209.988 93.285 209.234 C 94.353 208.504,95.327 206.748,95.819 204.665 C 96.547 201.584,98.638 200.588,103.840 200.842 C 107.644 201.028,108.328 200.971,111.840 200.172 C 116.002 199.225,119.787 199.197,128.000 200.055 C 132.364 200.510,133.811 200.452,137.661 199.667 C 141.463 198.893,147.141 198.483,150.240 198.760 C 151.472 198.870,155.027 198.978,158.139 199.000 C 163.879 199.041,166.176 199.342,170.116 200.574 C 173.130 201.516,176.883 200.146,178.895 197.368 L 179.810 196.106 178.105 194.040 C 177.168 192.904,175.728 190.774,174.905 189.308 C 172.714 185.405,172.749 185.426,167.520 184.685 C 158.574 183.417,149.902 182.916,145.440 183.410 M233.479 183.268 C 233.353 183.393,228.757 183.518,223.265 183.544 C 215.049 183.584,212.331 183.716,207.926 184.292 C 204.981 184.676,202.321 184.948,202.015 184.895 C 201.552 184.816,201.437 185.099,201.339 186.560 C 201.195 188.711,199.983 190.565,197.460 192.493 C 194.870 194.472,194.496 195.447,195.255 198.240 L 195.864 200.480 200.572 200.274 C 203.161 200.161,207.512 199.965,210.240 199.837 C 213.287 199.695,216.102 199.734,217.538 199.939 C 220.793 200.403,222.336 199.690,224.091 196.910 C 226.503 193.088,236.125 192.426,241.760 195.694 C 245.357 197.780,250.749 199.038,256.115 199.044 C 258.077 199.046,261.478 199.332,263.680 199.680 C 265.880 200.027,269.615 200.468,271.980 200.659 C 277.464 201.102,279.139 202.021,279.817 204.960 C 280.617 208.424,283.041 209.855,286.042 208.634 C 287.208 208.160,288.975 207.535,289.969 207.246 L 291.777 206.720 295.863 207.840 C 304.248 210.138,308.586 209.522,311.687 205.591 L 312.940 204.002 311.430 202.462 C 308.709 199.687,308.508 199.621,303.978 200.015 C 297.921 200.541,295.109 199.894,292.777 197.437 C 291.203 195.779,290.472 195.482,286.441 194.862 C 284.826 194.613,283.211 194.063,281.321 193.117 C 277.169 191.039,276.543 190.915,271.988 191.272 C 266.970 191.664,264.337 191.054,260.160 188.530 C 258.353 187.438,256.769 186.856,254.699 186.521 C 253.391 186.310,250.592 185.572,248.480 184.880 C 243.841 183.362,234.399 182.348,233.479 183.268 M314.606 185.578 C 312.889 188.167,312.889 188.146,314.590 189.046 C 316.128 189.859,317.057 189.799,319.126 188.751 C 320.226 188.195,320.299 188.078,319.954 187.430 C 319.210 186.032,318.269 184.959,317.144 184.224 L 316.000 183.477 314.606 185.578 M58.025 185.163 C 56.609 185.665,55.040 187.005,55.040 187.712 C 55.040 188.988,59.639 189.774,61.379 188.796 L 62.654 188.079 61.327 186.361 C 59.867 184.470,59.923 184.491,58.025 185.163 M171.104 211.133 L 170.251 212.024 171.154 212.365 C 172.573 212.900,173.274 212.250,172.519 211.100 L 171.957 210.243 171.104 211.133 M323.705 213.720 C 323.599 213.891,321.822 215.355,319.756 216.973 L 316.000 219.915 311.794 219.694 C 308.913 219.542,307.520 219.580,307.375 219.816 C 307.227 220.055,308.465 220.160,311.421 220.160 L 315.679 220.160 318.239 221.453 C 319.648 222.164,321.569 222.946,322.510 223.192 L 324.220 223.638 325.651 222.319 C 327.865 220.278,327.894 220.133,326.615 217.496 C 325.421 215.032,324.018 213.212,323.705 213.720 M50.190 216.592 C 47.770 219.294,47.733 219.852,49.850 221.786 C 51.932 223.689,52.028 223.693,57.280 222.102 C 59.268 221.500,61.428 221.109,63.520 220.972 C 65.280 220.858,67.561 220.607,68.588 220.415 L 70.456 220.066 69.228 218.848 L 68.000 217.631 64.000 217.433 C 61.158 217.292,59.568 217.057,58.508 216.620 C 53.682 214.634,51.948 214.628,50.190 216.592 M179.206 219.307 C 178.102 221.869,178.013 227.877,179.053 229.651 L 179.914 231.120 181.132 229.720 C 181.810 228.940,182.509 227.698,182.710 226.917 C 183.536 223.706,185.267 221.871,188.006 221.302 C 188.538 221.192,189.373 220.839,189.863 220.517 L 190.754 219.933 189.377 219.578 C 188.620 219.383,186.704 219.065,185.120 218.872 C 183.536 218.679,181.686 218.398,181.010 218.248 C 179.788 217.976,179.776 217.984,179.206 219.307 M195.697 227.257 C 195.568 227.728,195.598 228.356,195.764 228.653 C 196.181 229.398,196.458 228.349,196.148 227.200 L 195.932 226.400 195.697 227.257 M35.088 240.716 C 34.595 241.075,33.836 241.932,33.401 242.622 L 32.610 243.875 33.244 244.898 C 33.592 245.460,34.370 246.396,34.971 246.977 L 36.065 248.033 37.711 247.408 C 39.743 246.636,41.893 245.394,42.655 244.552 C 43.306 243.832,42.929 243.546,38.231 241.191 L 35.983 240.064 35.088 240.716 M203.126 241.589 C 201.264 243.054,201.401 244.962,203.505 246.866 C 204.304 247.590,205.917 247.077,208.817 245.178 L 210.614 244.000 207.467 242.494 C 203.771 240.725,204.130 240.800,203.126 241.589 M339.377 243.809 C 338.783 244.041,338.786 244.061,339.457 244.236 C 339.935 244.361,340.160 244.276,340.160 243.970 C 340.160 243.723,340.124 243.530,340.080 243.542 C 340.036 243.555,339.720 243.675,339.377 243.809 M47.040 255.987 C 33.910 256.182,34.953 255.983,32.218 258.809 L 30.996 260.072 32.378 261.264 C 35.441 263.905,28.604 263.638,96.360 263.764 L 156.640 263.875 159.807 264.594 C 163.568 265.447,164.252 265.774,165.869 267.495 C 167.391 269.116,170.979 270.872,173.760 271.357 C 174.904 271.556,176.792 271.998,177.955 272.340 C 180.626 273.123,186.868 273.199,189.249 272.477 C 190.112 272.215,192.128 271.843,193.729 271.649 C 197.398 271.205,200.768 269.663,202.880 267.462 C 206.604 263.581,205.117 263.653,279.867 263.757 L 339.733 263.840 341.090 262.900 C 344.332 260.655,344.429 259.464,341.567 257.051 L 340.255 255.944 273.062 255.952 C 236.105 255.957,205.448 256.047,204.934 256.153 C 204.420 256.259,202.148 256.952,199.885 257.693 L 195.769 259.040 194.542 260.837 C 193.105 262.941,191.853 264.059,189.730 265.135 L 188.191 265.915 183.819 265.265 C 178.069 264.411,176.654 263.673,174.713 260.518 C 171.838 255.846,171.014 255.792,102.400 255.805 C 78.376 255.810,53.464 255.892,47.040 255.987 " stroke="none" fill="#364e56" fill-rule="evenodd"></path><path id="path1" d="M225.354 10.894 C 223.820 11.660,223.362 12.061,223.206 12.774 C 223.096 13.272,222.642 14.022,222.197 14.440 L 221.387 15.200 212.213 15.218 C 202.493 15.236,202.072 15.289,198.883 16.888 C 193.607 19.534,190.808 24.174,190.251 31.200 C 189.482 40.892,187.386 40.818,186.409 31.064 C 185.820 25.179,184.643 23.091,180.975 21.424 C 179.537 20.771,178.750 20.138,177.760 18.839 C 176.798 17.578,175.888 16.833,174.342 16.044 L 172.236 14.967 135.958 14.963 C 89.968 14.957,90.270 14.931,85.949 19.319 C 83.527 21.780,82.680 22.008,74.400 22.424 C 58.584 23.219,56.190 24.557,54.056 33.793 C 53.258 37.248,52.404 38.892,51.587 38.549 C 48.421 37.223,47.105 37.006,41.384 36.874 L 35.568 36.740 33.301 37.931 C 31.622 38.813,30.461 39.757,28.831 41.565 L 26.630 44.007 26.048 47.204 C 25.499 50.213,25.454 54.753,25.268 124.960 C 25.118 181.525,24.975 200.215,24.674 202.400 C 24.360 204.682,24.358 208.504,24.664 220.800 C 25.090 237.944,25.050 237.656,27.342 240.071 C 27.967 240.729,28.317 241.679,28.777 243.966 C 29.577 247.943,30.524 249.817,32.358 251.057 L 33.804 252.034 32.022 252.887 C 31.042 253.356,29.455 254.465,28.497 255.350 C 27.538 256.236,26.651 256.960,26.527 256.960 C 26.402 256.960,25.860 257.625,25.321 258.438 C 24.168 260.180,24.399 261.051,26.436 262.628 C 27.069 263.119,28.160 263.986,28.860 264.557 C 30.375 265.791,32.240 266.656,34.411 267.131 C 35.504 267.370,53.728 267.531,92.825 267.646 C 133.066 267.765,149.921 267.917,150.577 268.167 C 151.088 268.361,152.461 268.720,153.630 268.966 C 154.809 269.214,156.485 269.867,157.396 270.434 C 159.059 271.467,162.786 272.726,168.320 274.124 C 174.136 275.593,174.548 275.759,175.580 277.043 C 177.337 279.230,179.204 279.964,184.057 280.379 L 188.320 280.743 190.177 279.831 C 191.843 279.013,194.240 276.885,194.240 276.223 C 194.240 275.910,195.881 275.335,197.600 275.045 C 199.003 274.808,204.942 272.961,207.595 271.937 C 208.516 271.581,209.918 270.719,210.710 270.022 C 213.272 267.767,210.732 267.853,274.880 267.841 C 343.835 267.828,342.800 267.875,345.728 264.633 C 349.295 260.685,347.852 254.160,343.040 252.482 L 341.920 252.092 343.090 250.863 C 344.575 249.305,345.484 246.878,345.923 243.298 C 346.366 239.687,346.724 238.364,347.543 237.324 C 348.986 235.489,349.284 227.676,348.327 216.800 C 347.684 209.495,347.156 187.891,347.071 165.440 C 347.006 148.360,346.990 147.947,346.276 145.440 C 345.417 142.417,345.165 137.563,344.650 114.080 C 344.469 105.808,344.169 94.648,343.984 89.280 C 343.575 77.426,343.738 51.714,344.237 49.440 C 345.799 42.313,343.716 39.724,335.840 39.003 L 331.680 38.622 330.046 39.453 C 328.425 40.278,325.440 43.219,325.440 43.991 C 325.440 44.213,325.133 44.783,324.759 45.260 L 324.078 46.126 323.006 45.087 C 321.738 43.858,321.148 42.210,320.486 38.047 C 319.190 29.892,316.851 26.783,310.425 24.673 C 308.493 24.039,307.702 24.000,296.770 24.000 C 283.571 24.000,284.160 23.880,284.160 26.567 C 284.160 29.701,288.559 31.600,296.800 32.024 C 310.677 32.739,310.493 32.634,311.703 40.482 L 312.392 44.948 312.027 75.994 C 311.827 93.069,311.575 123.456,311.468 143.520 L 311.273 180.000 309.666 182.188 C 308.252 184.112,307.959 184.354,307.229 184.202 C 305.954 183.935,300.151 183.125,295.394 182.549 C 290.791 181.992,287.372 181.106,286.698 180.294 C 286.104 179.578,283.638 178.404,281.760 177.942 C 277.106 176.798,270.075 175.629,263.520 174.911 C 255.821 174.066,253.520 173.574,251.309 172.296 C 248.585 170.722,244.589 169.677,239.200 169.130 C 236.384 168.844,233.144 168.475,232.000 168.311 C 228.374 167.791,223.417 168.013,214.400 169.101 C 210.926 169.520,207.713 170.577,205.293 172.097 L 204.027 172.892 202.611 171.328 C 201.832 170.468,200.298 168.496,199.202 166.946 L 197.209 164.128 197.001 138.144 C 196.887 123.853,196.631 96.886,196.432 78.218 L 196.070 44.276 196.892 42.218 C 197.345 41.086,197.997 39.152,198.342 37.920 C 198.688 36.688,199.264 34.944,199.623 34.044 C 199.982 33.144,200.508 31.287,200.791 29.916 C 201.700 25.514,202.268 25.090,207.898 24.613 C 217.051 23.838,224.291 21.516,224.802 19.191 C 225.320 16.833,227.461 16.282,235.014 16.567 C 237.680 16.668,238.080 16.950,238.080 18.725 L 238.080 20.092 241.619 21.244 C 249.453 23.793,249.801 23.828,267.306 23.835 C 285.098 23.841,283.964 24.028,283.774 21.120 C 283.468 16.439,266.434 14.570,241.690 16.504 C 238.256 16.772,238.025 16.573,238.312 13.595 C 238.507 11.577,237.736 11.117,232.947 10.398 C 228.444 9.722,227.587 9.778,225.354 10.894 M120.800 18.897 C 123.088 19.069,125.680 19.398,126.560 19.627 L 128.160 20.044 126.240 20.421 C 120.128 21.621,102.233 21.979,97.200 21.003 C 92.709 20.131,92.626 20.029,95.869 19.356 C 101.177 18.255,110.099 18.090,120.800 18.897 M172.845 19.520 L 173.600 20.160 172.838 20.805 C 172.229 21.321,171.778 21.417,170.598 21.281 C 169.785 21.187,165.880 20.964,161.920 20.784 C 157.960 20.605,154.144 20.346,153.440 20.210 L 152.160 19.963 153.760 19.694 C 155.466 19.408,163.071 19.020,168.685 18.933 C 171.670 18.887,172.182 18.959,172.845 19.520 M208.320 19.593 L 210.400 19.964 207.219 20.572 C 204.230 21.143,203.970 21.148,202.923 20.649 L 201.809 20.118 202.745 19.485 C 203.735 18.814,203.987 18.819,208.320 19.593 M148.000 23.976 C 151.872 24.319,157.632 24.692,160.800 24.806 C 172.235 25.216,173.365 25.608,173.905 29.352 C 174.026 30.192,174.421 32.032,174.782 33.440 C 175.433 35.982,175.437 36.443,175.385 99.840 L 175.333 163.680 173.712 167.360 C 172.820 169.384,172.060 171.074,172.023 171.115 C 171.986 171.157,170.382 170.839,168.458 170.408 C 156.986 167.841,136.503 168.157,128.320 171.028 C 120.838 173.653,120.689 173.687,114.400 174.225 C 102.486 175.244,92.380 177.672,91.042 179.837 C 90.250 181.119,87.492 181.816,79.680 182.709 C 76.424 183.081,72.536 183.595,71.040 183.852 C 69.544 184.108,68.218 184.318,68.094 184.319 C 67.969 184.320,67.080 183.345,66.116 182.152 L 64.365 179.985 64.347 112.179 L 64.329 44.373 65.101 41.467 C 65.526 39.868,65.971 37.933,66.091 37.167 C 66.522 34.397,67.253 34.018,72.958 33.603 C 83.313 32.849,87.107 31.696,90.342 28.317 C 93.040 25.499,93.406 25.448,114.080 24.953 C 120.944 24.789,127.623 24.498,128.922 24.305 C 132.416 23.787,139.584 23.121,140.320 23.245 C 140.672 23.305,144.128 23.634,148.000 23.976 M182.703 27.200 C 183.424 28.218,182.906 31.130,181.479 34.080 C 180.012 37.114,179.925 51.013,181.121 91.680 C 181.291 97.488,181.518 113.904,181.625 128.160 C 181.858 159.259,182.017 163.519,183.004 165.165 C 185.986 170.140,184.136 181.546,179.780 185.047 C 177.123 187.182,177.135 187.503,180.033 191.438 C 182.261 194.466,182.569 195.617,181.954 198.615 C 180.969 203.414,180.272 205.236,179.175 205.884 C 177.822 206.683,177.184 208.326,177.149 211.102 C 177.116 213.742,177.249 213.947,179.392 214.564 C 180.255 214.811,182.184 215.402,183.680 215.876 C 185.992 216.608,187.128 216.759,191.254 216.882 L 196.108 217.027 197.444 222.541 L 198.781 228.054 198.290 230.657 C 197.763 233.453,196.725 236.160,196.181 236.160 C 195.997 236.160,195.126 234.756,194.246 233.040 C 189.554 223.890,188.586 223.331,185.491 227.974 C 182.826 231.971,180.458 234.373,179.471 234.079 C 176.719 233.259,175.993 230.733,176.229 222.805 C 176.419 216.425,176.118 215.360,174.124 215.360 C 172.661 215.360,169.568 214.436,166.969 213.222 L 164.498 212.067 165.849 210.439 C 166.592 209.544,168.236 207.721,169.502 206.389 L 171.804 203.967 170.782 203.564 C 164.652 201.149,159.957 200.684,152.475 201.748 C 149.491 202.172,144.250 203.585,143.520 204.162 C 141.728 205.578,133.390 205.604,130.642 204.202 C 125.907 201.786,113.387 201.113,110.308 203.109 C 110.094 203.247,107.616 203.432,104.800 203.520 L 99.680 203.680 99.767 204.460 C 99.885 205.518,99.608 205.431,104.123 205.831 C 106.344 206.028,108.160 206.286,108.160 206.405 C 108.160 206.648,110.329 209.945,111.349 211.253 L 112.014 212.105 110.487 212.460 C 108.483 212.925,98.274 213.744,94.363 213.753 C 91.304 213.760,91.276 213.753,89.427 212.498 C 88.404 211.804,86.746 210.929,85.742 210.553 L 83.917 209.871 80.143 210.858 C 78.067 211.400,76.310 211.904,76.237 211.976 C 76.136 212.078,77.834 216.453,79.239 219.711 C 79.607 220.564,70.849 222.629,64.480 223.192 C 61.840 223.425,57.969 223.984,55.878 224.433 L 52.077 225.251 50.847 224.623 C 49.242 223.804,47.550 222.303,46.721 220.961 L 46.057 219.888 46.736 217.864 C 48.225 213.422,49.818 212.482,55.861 212.475 C 61.355 212.469,61.248 212.579,61.405 206.757 C 61.495 203.401,61.928 202.391,64.218 200.184 C 66.838 197.661,67.457 197.479,72.160 197.848 L 76.320 198.174 78.015 197.314 C 80.076 196.268,80.220 195.950,79.437 194.180 C 78.564 192.206,77.092 190.874,74.417 189.638 C 71.274 188.186,71.256 188.022,74.162 187.257 C 81.095 185.433,85.645 185.638,90.080 187.975 L 92.000 188.987 95.680 188.765 C 98.654 188.586,100.158 188.670,103.520 189.206 C 107.884 189.902,111.752 189.628,115.401 188.364 L 116.548 187.968 115.474 187.150 C 113.536 185.674,109.052 183.711,106.560 183.247 C 105.005 182.957,103.480 181.961,102.913 180.864 L 102.435 179.939 105.047 179.029 C 111.316 176.847,118.882 177.153,124.000 179.796 C 128.656 182.200,131.125 182.528,136.800 181.499 C 144.933 180.023,149.681 179.909,166.880 180.773 C 173.716 181.116,173.652 181.169,174.877 174.188 C 175.215 172.266,175.841 170.532,177.249 167.628 L 179.162 163.680 179.524 100.000 L 179.887 36.320 178.947 34.240 C 176.266 28.309,176.254 26.229,178.893 24.886 L 179.981 24.331 181.058 25.366 C 181.651 25.935,182.391 26.760,182.703 27.200 M197.320 26.957 C 197.767 27.822,197.739 28.007,196.871 29.860 L 195.944 31.840 195.092 30.171 C 194.043 28.115,194.042 27.961,195.064 26.455 C 195.982 25.105,196.411 25.200,197.320 26.957 M78.654 26.404 C 79.762 26.665,81.199 27.152,81.848 27.485 L 83.029 28.090 80.314 28.950 C 78.127 29.642,76.451 29.887,71.680 30.209 C 63.980 30.730,63.940 30.752,63.406 34.911 C 63.209 36.446,62.623 38.406,61.741 40.480 C 59.925 44.751,59.960 43.680,60.194 87.040 C 60.300 106.840,60.314 135.799,60.224 151.394 L 60.060 179.748 63.310 183.778 C 66.849 188.167,66.916 188.322,65.804 189.522 C 64.651 190.766,63.419 191.275,60.203 191.832 C 55.871 192.584,54.631 193.217,53.605 195.200 C 53.164 196.054,53.753 202.311,54.387 203.495 C 54.727 204.131,54.404 205.749,53.611 207.383 C 51.746 211.222,50.496 207.839,49.938 197.440 C 49.734 193.656,49.353 188.256,49.090 185.440 C 48.680 181.053,48.625 171.121,48.706 116.101 L 48.800 51.882 47.872 50.913 C 46.860 49.857,46.326 49.708,39.761 48.647 C 35.214 47.912,33.649 47.222,32.289 45.351 L 31.307 44.000 32.964 42.472 C 35.280 40.338,35.914 40.080,40.257 39.515 L 44.094 39.016 46.213 39.864 C 48.396 40.739,51.327 43.047,51.685 44.174 C 51.921 44.920,54.427 45.047,56.732 44.431 L 58.112 44.061 57.376 43.325 C 55.203 41.152,57.556 30.223,60.414 29.217 C 60.714 29.111,61.277 28.740,61.664 28.391 C 64.120 26.183,73.207 25.120,78.654 26.404 M335.661 43.553 C 338.310 44.011,338.180 44.121,334.155 44.833 C 332.402 45.143,332.043 45.117,331.297 44.628 L 330.443 44.069 331.201 43.455 C 331.627 43.110,332.249 42.907,332.620 42.991 C 332.983 43.074,334.351 43.327,335.661 43.553 M334.474 50.259 C 335.579 50.622,336.820 51.173,337.233 51.484 L 337.983 52.050 337.424 55.225 C 336.963 57.842,336.822 61.437,336.625 75.680 C 336.494 85.184,336.219 100.016,336.014 108.640 C 335.527 129.164,335.359 162.529,335.716 168.000 C 336.021 172.685,335.564 205.029,335.062 214.328 C 334.787 219.414,334.811 219.964,335.360 221.208 C 337.123 225.198,337.542 227.729,337.159 232.087 C 336.757 236.666,336.900 236.430,333.440 238.216 L 332.000 238.959 271.840 238.839 C 212.619 238.720,211.655 238.709,210.080 238.080 C 209.200 237.729,207.472 237.110,206.240 236.706 C 202.758 235.562,202.475 234.822,200.966 222.929 C 200.459 218.927,201.323 217.831,205.790 216.815 C 208.949 216.096,211.227 214.974,215.585 211.991 C 218.269 210.153,219.202 209.924,224.000 209.924 C 230.141 209.923,236.066 210.898,239.400 212.457 C 245.150 215.146,253.906 216.419,269.440 216.826 C 282.011 217.155,285.215 217.736,287.877 220.170 C 291.045 223.066,291.951 223.362,301.920 224.755 C 318.920 227.131,319.232 227.168,322.308 227.186 C 329.501 227.227,332.405 222.890,330.869 214.400 C 330.420 211.922,330.006 190.028,329.616 148.160 C 329.431 128.360,329.130 103.736,328.947 93.440 C 328.446 65.291,328.438 52.471,328.921 51.583 C 329.941 49.703,331.586 49.311,334.474 50.259 M44.160 52.914 L 44.160 53.989 42.193 54.194 C 36.735 54.765,34.880 54.206,34.880 51.989 C 34.880 51.907,36.968 51.840,39.520 51.840 L 44.160 51.840 44.160 52.914 M317.102 124.473 C 317.405 126.291,318.797 129.694,319.774 131.004 C 320.852 132.447,322.560 137.246,322.560 138.829 C 322.560 139.609,322.861 140.758,323.267 141.533 C 324.042 143.008,324.039 142.950,324.628 175.520 C 324.825 186.402,324.909 187.708,325.667 191.661 L 326.492 195.963 326.106 203.956 C 325.733 211.676,325.741 211.978,326.338 212.784 C 328.516 215.731,329.547 219.347,328.685 221.020 C 326.578 225.108,322.917 225.917,317.280 223.542 C 316.434 223.186,314.697 222.944,312.160 222.830 C 308.349 222.659,304.161 221.836,300.589 220.557 L 298.939 219.966 299.949 218.069 C 301.133 215.847,302.410 214.993,305.660 214.250 L 307.800 213.761 309.423 214.771 C 310.316 215.326,312.149 216.098,313.495 216.486 L 315.944 217.192 318.204 215.446 C 319.447 214.486,320.926 213.295,321.489 212.799 L 322.515 211.899 322.040 210.082 C 321.486 207.960,320.137 204.992,319.478 204.445 C 319.085 204.119,319.113 203.964,319.675 203.366 C 320.582 202.399,321.598 199.354,321.797 197.004 C 322.086 193.569,320.793 192.347,315.978 191.507 C 312.842 190.960,311.072 190.169,310.149 188.903 L 309.508 188.023 310.864 186.251 C 311.610 185.277,312.880 183.472,313.685 182.240 L 315.149 180.000 315.497 154.240 C 315.688 140.072,315.856 126.752,315.869 124.640 C 315.894 120.566,316.440 120.492,317.102 124.473 M188.818 176.895 C 189.017 182.524,189.733 185.471,191.303 187.123 C 192.151 188.016,192.155 188.036,191.614 189.132 C 190.583 191.222,190.044 195.579,190.413 198.836 C 191.028 204.264,192.005 211.589,192.145 211.816 C 192.358 212.161,189.770 213.729,188.637 213.942 C 187.927 214.075,186.860 213.834,185.020 213.124 L 182.409 212.117 182.866 211.024 C 185.376 205.016,185.825 193.954,183.731 189.680 C 182.842 187.866,182.838 187.832,183.450 187.280 C 185.162 185.734,186.318 182.066,187.390 174.778 C 188.128 169.762,188.590 170.446,188.818 176.895 M198.240 173.724 C 200.252 174.879,202.710 177.483,203.390 179.181 L 203.909 180.480 212.275 180.483 C 217.618 180.485,221.969 180.652,224.320 180.946 C 227.775 181.379,228.255 181.366,232.160 180.746 C 237.091 179.963,245.090 180.051,249.529 180.939 L 252.177 181.468 254.649 180.356 C 258.646 178.556,259.418 178.449,264.159 179.034 C 270.576 179.825,270.512 179.787,268.361 181.549 C 267.591 182.180,266.658 183.341,266.288 184.130 C 264.230 188.507,265.289 189.510,271.200 188.779 C 275.936 188.194,277.111 188.262,280.480 189.312 C 284.699 190.627,285.200 190.549,290.400 187.755 C 292.228 186.773,298.647 186.549,301.653 187.362 L 303.728 187.924 302.824 188.520 C 302.327 188.848,301.056 189.410,300.000 189.769 C 297.858 190.497,297.339 190.838,296.608 192.000 C 293.822 196.431,296.516 198.722,303.813 198.129 C 307.945 197.793,307.978 197.795,309.425 198.591 C 311.602 199.790,314.880 203.052,314.880 204.021 C 314.880 204.962,312.091 208.490,310.312 209.800 L 308.410 211.200 303.689 211.200 C 300.127 211.200,298.153 211.033,295.645 210.519 C 291.747 209.720,291.016 209.833,286.783 211.889 L 284.125 213.179 273.823 213.018 C 267.065 212.911,262.749 212.705,261.280 212.419 L 259.040 211.982 261.224 211.389 C 262.425 211.063,264.513 210.264,265.864 209.613 C 267.215 208.962,269.040 208.257,269.920 208.046 C 272.584 207.408,276.160 205.441,276.160 204.612 C 276.160 203.802,275.903 203.716,272.000 203.204 C 270.504 203.008,267.059 202.423,264.345 201.904 C 260.342 201.138,258.498 200.954,254.585 200.926 C 251.931 200.907,248.464 200.799,246.880 200.686 C 241.880 200.328,237.893 201.637,237.761 203.680 C 237.672 205.050,236.283 205.280,228.160 205.272 L 220.320 205.263 218.080 204.258 C 213.926 202.395,212.611 202.203,207.520 202.718 C 200.114 203.467,199.112 204.376,203.286 206.560 C 205.132 207.526,206.312 208.865,207.209 211.013 L 207.651 212.070 205.895 212.959 C 202.745 214.552,199.728 213.782,198.404 211.048 C 197.995 210.203,197.308 209.382,196.780 209.110 C 196.035 208.725,195.742 208.208,195.194 206.319 C 194.824 205.043,194.320 203.352,194.074 202.560 C 192.060 196.075,192.571 193.039,196.278 189.459 L 197.749 188.037 195.878 186.854 C 190.606 183.521,189.649 178.181,193.630 174.320 C 195.468 172.538,196.044 172.464,198.240 173.724 M317.385 194.877 C 318.905 195.978,318.874 196.382,317.064 199.062 L 316.076 200.523 314.662 199.011 C 313.883 198.179,312.501 197.146,311.590 196.715 L 309.933 195.932 311.047 195.343 C 311.922 194.880,314.470 194.143,315.872 193.947 C 315.978 193.932,316.659 194.351,317.385 194.877 M63.311 195.228 L 64.701 195.831 63.320 196.885 C 62.560 197.464,61.479 198.541,60.918 199.277 C 59.749 200.809,59.803 200.842,58.149 197.576 L 57.326 195.953 58.660 195.088 C 60.134 194.133,60.834 194.154,63.311 195.228 M37.047 208.393 C 36.733 210.905,36.355 213.320,36.207 213.760 C 35.868 214.774,35.369 204.393,35.695 203.094 L 35.920 202.197 36.770 203.011 L 37.620 203.825 37.047 208.393 M261.280 203.804 L 262.240 204.050 261.120 204.637 C 258.307 206.112,250.996 206.193,248.320 204.778 L 246.880 204.017 249.416 203.689 C 252.161 203.333,259.724 203.407,261.280 203.804 M160.160 204.187 C 157.644 204.339,155.880 204.320,155.696 204.139 C 155.507 203.953,157.084 203.858,159.856 203.888 L 164.320 203.935 160.160 204.187 M317.135 212.676 C 316.012 213.621,315.670 213.625,314.151 212.705 L 312.943 211.973 313.889 211.273 C 314.410 210.888,315.093 210.138,315.407 209.606 L 315.979 208.638 317.011 210.275 L 318.043 211.912 317.135 212.676 M141.920 211.010 C 142.800 211.253,144.456 211.884,145.600 212.413 C 148.740 213.863,153.235 214.976,158.230 215.541 C 160.699 215.820,164.160 216.396,165.920 216.821 C 167.680 217.245,169.808 217.686,170.649 217.801 C 173.454 218.184,173.877 219.091,173.685 224.315 C 173.493 229.510,173.195 230.354,170.560 233.171 C 169.504 234.300,168.640 235.398,168.639 235.612 C 168.639 235.977,166.449 237.592,164.898 238.371 C 164.392 238.625,147.287 238.700,103.778 238.642 L 43.360 238.560 40.480 237.299 C 38.896 236.605,37.566 236.019,37.524 235.997 C 37.295 235.872,36.078 228.119,36.118 227.040 C 36.275 222.804,37.381 221.646,41.635 221.261 L 44.005 221.046 44.413 222.176 C 45.911 226.318,50.099 227.748,57.780 226.742 C 59.705 226.489,63.800 226.052,66.880 225.770 C 81.631 224.418,84.341 223.735,87.824 220.495 C 90.548 217.961,93.678 217.281,104.800 216.804 C 116.335 216.310,124.376 214.778,128.512 212.287 C 131.413 210.540,137.962 209.916,141.920 211.010 M191.234 235.413 C 192.870 238.484,193.916 239.804,195.277 240.515 C 196.564 241.188,197.011 242.069,197.722 245.334 C 198.440 248.634,199.286 250.523,200.457 251.445 L 201.252 252.070 197.745 253.271 C 193.239 254.813,192.059 255.674,190.682 258.425 C 188.981 261.823,188.765 261.915,183.847 261.312 C 179.299 260.754,179.137 260.681,178.614 258.935 C 177.631 255.652,175.766 254.333,170.123 252.928 C 166.140 251.936,166.146 251.904,170.618 250.393 C 174.528 249.071,177.598 245.938,177.600 243.267 C 177.600 242.332,178.958 240.299,180.334 239.171 C 182.043 237.771,186.210 232.896,187.266 231.061 L 187.992 229.798 188.860 231.192 C 189.337 231.958,190.405 233.858,191.234 235.413 M37.321 238.594 C 38.002 238.876,39.812 239.734,41.343 240.499 L 44.126 241.890 104.063 241.938 C 172.110 241.992,167.036 242.201,171.082 239.175 C 173.238 237.562,175.234 242.996,173.312 245.243 C 171.067 247.867,168.321 247.957,90.240 247.984 C 70.968 247.990,52.750 247.904,49.755 247.793 C 44.520 247.598,44.256 247.618,42.888 248.316 C 42.106 248.715,40.236 249.292,38.733 249.597 L 36.000 250.153 34.677 249.247 C 30.288 246.239,29.979 240.801,34.080 238.728 C 35.623 237.947,35.749 237.942,37.321 238.594 M206.418 239.552 C 207.544 240.010,209.294 240.802,210.305 241.313 L 212.145 242.241 252.072 242.229 C 274.033 242.223,300.949 242.317,311.887 242.439 L 331.774 242.662 334.059 241.927 C 335.315 241.523,337.148 240.708,338.130 240.116 C 340.396 238.752,340.292 238.733,341.425 240.718 C 342.828 243.173,342.915 243.931,341.980 245.527 C 340.380 248.258,340.450 248.239,335.432 247.241 L 331.040 246.367 316.160 246.737 C 307.976 246.941,281.197 247.178,256.650 247.264 L 212.021 247.420 210.460 248.211 C 209.601 248.646,207.803 249.282,206.464 249.624 L 204.030 250.247 202.918 249.346 C 197.049 244.597,199.811 236.868,206.418 239.552 M167.042 254.561 C 173.576 255.985,174.288 256.377,176.639 259.838 C 178.453 262.510,179.253 262.894,184.111 263.429 L 188.221 263.881 189.847 262.740 C 190.741 262.113,192.132 260.751,192.937 259.714 C 194.905 257.179,195.388 256.868,199.870 255.243 L 203.741 253.840 272.127 254.008 L 340.514 254.175 341.967 255.138 C 346.523 258.155,346.301 261.772,341.395 264.490 L 339.680 265.440 275.680 265.600 L 211.680 265.760 209.998 266.450 C 209.073 266.829,206.966 267.946,205.316 268.931 C 201.436 271.245,199.415 272.158,195.945 273.159 C 192.797 274.068,190.462 275.142,189.051 276.329 C 188.258 276.996,187.902 277.088,186.776 276.916 C 182.810 276.313,179.527 275.538,178.321 274.923 C 177.574 274.541,175.207 273.728,173.061 273.116 C 169.114 271.991,167.105 271.126,163.040 268.800 C 161.808 268.095,159.648 267.127,158.240 266.648 L 155.680 265.778 95.840 265.609 L 36.000 265.440 34.159 264.577 C 32.276 263.695,28.800 260.713,28.800 259.979 C 28.800 259.203,31.930 256.155,33.953 254.960 L 35.985 253.760 99.675 253.760 L 163.364 253.760 167.042 254.561 " stroke="none" fill="#a1a79d" fill-rule="evenodd"></path><path id="path2" d="M0.000 160.000 L 0.000 320.000 200.000 320.000 L 400.000 320.000 400.000 160.000 L 400.000 0.000 200.000 0.000 L 0.000 0.000 0.000 160.000 M232.947 10.398 C 237.736 11.117,238.507 11.577,238.312 13.595 C 238.025 16.573,238.256 16.772,241.690 16.504 C 266.434 14.570,283.468 16.439,283.774 21.120 C 283.964 24.028,285.098 23.841,267.306 23.835 C 249.801 23.828,249.453 23.793,241.619 21.244 L 238.080 20.092 238.080 18.725 C 238.080 16.950,237.680 16.668,235.014 16.567 C 227.461 16.282,225.320 16.833,224.802 19.191 C 224.291 21.516,217.051 23.838,207.898 24.613 C 202.268 25.090,201.700 25.514,200.791 29.916 C 200.508 31.287,199.982 33.144,199.623 34.044 C 199.264 34.944,198.688 36.688,198.342 37.920 C 197.997 39.152,197.345 41.086,196.892 42.218 L 196.070 44.276 196.432 78.218 C 196.631 96.886,196.887 123.853,197.001 138.144 L 197.209 164.128 199.202 166.946 C 200.298 168.496,201.832 170.468,202.611 171.328 L 204.027 172.892 205.293 172.097 C 207.713 170.577,210.926 169.520,214.400 169.101 C 223.417 168.013,228.374 167.791,232.000 168.311 C 233.144 168.475,236.384 168.844,239.200 169.130 C 244.589 169.677,248.585 170.722,251.309 172.296 C 253.520 173.574,255.821 174.066,263.520 174.911 C 270.075 175.629,277.106 176.798,281.760 177.942 C 283.638 178.404,286.104 179.578,286.698 180.294 C 287.372 181.106,290.791 181.992,295.394 182.549 C 300.151 183.125,305.954 183.935,307.229 184.202 C 307.959 184.354,308.252 184.112,309.666 182.188 L 311.273 180.000 311.468 143.520 C 311.575 123.456,311.827 93.069,312.027 75.994 L 312.392 44.948 311.703 40.482 C 310.493 32.634,310.677 32.739,296.800 32.024 C 288.559 31.600,284.160 29.701,284.160 26.567 C 284.160 23.880,283.571 24.000,296.770 24.000 C 307.702 24.000,308.493 24.039,310.425 24.673 C 316.851 26.783,319.190 29.892,320.486 38.047 C 321.148 42.210,321.738 43.858,323.006 45.087 L 324.078 46.126 324.759 45.260 C 325.133 44.783,325.440 44.213,325.440 43.991 C 325.440 43.219,328.425 40.278,330.046 39.453 L 331.680 38.622 335.840 39.003 C 343.716 39.724,345.799 42.313,344.237 49.440 C 343.738 51.714,343.575 77.426,343.984 89.280 C 344.169 94.648,344.469 105.808,344.650 114.080 C 345.165 137.563,345.417 142.417,346.276 145.440 C 346.990 147.947,347.006 148.360,347.071 165.440 C 347.156 187.891,347.684 209.495,348.327 216.800 C 349.284 227.676,348.986 235.489,347.543 237.324 C 346.724 238.364,346.366 239.687,345.923 243.298 C 345.484 246.878,344.575 249.305,343.090 250.863 L 341.920 252.092 343.040 252.482 C 347.852 254.160,349.295 260.685,345.728 264.633 C 342.800 267.875,343.835 267.828,274.880 267.841 C 210.732 267.853,213.272 267.767,210.710 270.022 C 209.918 270.719,208.516 271.581,207.595 271.937 C 204.942 272.961,199.003 274.808,197.600 275.045 C 195.881 275.335,194.240 275.910,194.240 276.223 C 194.240 276.885,191.843 279.013,190.177 279.831 L 188.320 280.743 184.057 280.379 C 179.204 279.964,177.337 279.230,175.580 277.043 C 174.548 275.759,174.136 275.593,168.320 274.124 C 162.786 272.726,159.059 271.467,157.396 270.434 C 156.485 269.867,154.809 269.214,153.630 268.966 C 152.461 268.720,151.088 268.361,150.577 268.167 C 149.921 267.917,133.066 267.765,92.825 267.646 C 53.728 267.531,35.504 267.370,34.411 267.131 C 32.240 266.656,30.375 265.791,28.860 264.557 C 28.160 263.986,27.069 263.119,26.436 262.628 C 24.399 261.051,24.168 260.180,25.321 258.438 C 25.860 257.625,26.402 256.960,26.527 256.960 C 26.651 256.960,27.538 256.236,28.497 255.350 C 29.455 254.465,31.042 253.356,32.022 252.887 L 33.804 252.034 32.358 251.057 C 30.524 249.817,29.577 247.943,28.777 243.966 C 28.317 241.679,27.967 240.729,27.342 240.071 C 25.050 237.656,25.090 237.944,24.664 220.800 C 24.358 208.504,24.360 204.682,24.674 202.400 C 24.975 200.215,25.118 181.525,25.268 124.960 C 25.454 54.753,25.499 50.213,26.048 47.204 L 26.630 44.007 28.831 41.565 C 30.461 39.757,31.622 38.813,33.301 37.931 L 35.568 36.740 41.384 36.874 C 47.105 37.006,48.421 37.223,51.587 38.549 C 52.404 38.892,53.258 37.248,54.056 33.793 C 56.190 24.557,58.584 23.219,74.400 22.424 C 82.680 22.008,83.527 21.780,85.949 19.319 C 90.270 14.931,89.968 14.957,135.958 14.963 L 172.236 14.967 174.342 16.044 C 175.888 16.833,176.798 17.578,177.760 18.839 C 178.750 20.138,179.537 20.771,180.975 21.424 C 184.643 23.091,185.820 25.179,186.409 31.064 C 187.386 40.818,189.482 40.892,190.251 31.200 C 190.808 24.174,193.607 19.534,198.883 16.888 C 202.072 15.289,202.493 15.236,212.213 15.218 L 221.387 15.200 222.197 14.440 C 222.642 14.022,223.096 13.272,223.206 12.774 C 223.704 10.503,227.494 9.579,232.947 10.398 M135.482 23.546 C 133.173 23.771,130.221 24.113,128.922 24.305 C 127.623 24.498,120.944 24.789,114.080 24.953 C 93.406 25.448,93.040 25.499,90.342 28.317 C 87.107 31.696,83.313 32.849,72.958 33.603 C 67.253 34.018,66.522 34.397,66.091 37.167 C 65.971 37.933,65.526 39.868,65.101 41.467 L 64.329 44.373 64.347 112.179 L 64.365 179.985 66.116 182.152 C 67.080 183.345,67.969 184.320,68.094 184.319 C 68.218 184.318,69.544 184.108,71.040 183.852 C 72.536 183.595,76.424 183.081,79.680 182.709 C 87.492 181.816,90.250 181.119,91.042 179.837 C 92.380 177.672,102.486 175.244,114.400 174.225 C 120.689 173.687,120.838 173.653,128.320 171.028 C 136.503 168.157,156.986 167.841,168.458 170.408 C 170.382 170.839,171.986 171.157,172.023 171.115 C 172.060 171.074,172.820 169.384,173.712 167.360 L 175.333 163.680 175.385 99.840 C 175.437 36.443,175.433 35.982,174.782 33.440 C 174.421 32.032,174.026 30.192,173.905 29.352 C 173.365 25.608,172.235 25.216,160.800 24.806 C 155.937 24.631,142.428 23.602,140.320 23.245 C 139.968 23.186,137.791 23.321,135.482 23.546 M330.340 50.224 C 328.270 51.487,328.225 52.857,328.947 93.440 C 329.130 103.736,329.431 128.360,329.616 148.160 C 330.006 190.028,330.420 211.922,330.869 214.400 C 332.405 222.890,329.501 227.227,322.308 227.186 C 319.232 227.168,318.920 227.131,301.920 224.755 C 291.951 223.362,291.045 223.066,287.877 220.170 C 285.215 217.736,282.011 217.155,269.440 216.826 C 253.906 216.419,245.150 215.146,239.400 212.457 C 236.066 210.898,230.141 209.923,224.000 209.924 C 219.202 209.924,218.269 210.153,215.585 211.991 C 211.227 214.974,208.949 216.096,205.790 216.815 C 201.323 217.831,200.459 218.927,200.966 222.929 C 202.475 234.822,202.758 235.562,206.240 236.706 C 207.472 237.110,209.200 237.729,210.080 238.080 C 211.655 238.709,212.619 238.720,271.840 238.839 L 332.000 238.959 333.440 238.216 C 336.900 236.430,336.757 236.666,337.159 232.087 C 337.542 227.729,337.123 225.198,335.360 221.208 C 334.811 219.964,334.787 219.414,335.062 214.328 C 335.564 205.029,336.021 172.685,335.716 168.000 C 335.359 162.529,335.527 129.164,336.014 108.640 C 336.219 100.016,336.494 85.184,336.625 75.680 C 336.822 61.437,336.963 57.842,337.424 55.225 L 337.983 52.050 337.233 51.484 C 335.206 49.955,331.802 49.333,330.340 50.224 M34.880 51.989 C 34.880 54.206,36.735 54.765,42.193 54.194 L 44.160 53.989 44.160 52.914 L 44.160 51.840 39.520 51.840 C 36.968 51.840,34.880 51.907,34.880 51.989 M187.390 174.778 C 186.318 182.066,185.162 185.734,183.450 187.280 C 182.838 187.832,182.842 187.866,183.731 189.680 C 185.825 193.954,185.376 205.016,182.866 211.024 L 182.409 212.117 185.020 213.124 C 186.860 213.834,187.927 214.075,188.637 213.942 C 189.770 213.729,192.358 212.161,192.145 211.816 C 192.005 211.589,191.028 204.264,190.413 198.836 C 190.044 195.579,190.583 191.222,191.614 189.132 C 192.155 188.036,192.151 188.016,191.303 187.123 C 189.733 185.471,189.017 182.524,188.818 176.895 C 188.590 170.446,188.128 169.762,187.390 174.778 M313.920 194.364 C 312.952 194.579,311.659 195.019,311.047 195.343 L 309.933 195.932 311.590 196.715 C 312.501 197.146,313.883 198.179,314.662 199.011 L 316.076 200.523 317.064 199.062 C 318.874 196.382,318.905 195.978,317.385 194.877 C 316.659 194.351,315.978 193.932,315.872 193.947 C 315.766 193.962,314.888 194.149,313.920 194.364 M58.660 195.088 L 57.326 195.953 58.149 197.576 C 59.803 200.842,59.749 200.809,60.918 199.277 C 61.479 198.541,62.560 197.464,63.320 196.885 L 64.701 195.831 63.311 195.228 C 60.834 194.154,60.134 194.133,58.660 195.088 M35.695 203.094 C 35.369 204.393,35.868 214.774,36.207 213.760 C 36.355 213.320,36.733 210.905,37.047 208.393 L 37.620 203.825 36.770 203.011 L 35.920 202.197 35.695 203.094 M249.416 203.689 L 246.880 204.017 248.320 204.778 C 250.996 206.193,258.307 206.112,261.120 204.637 L 262.240 204.050 261.280 203.804 C 259.724 203.407,252.161 203.333,249.416 203.689 M155.696 204.139 C 155.880 204.320,157.644 204.339,160.160 204.187 L 164.320 203.935 159.856 203.888 C 157.084 203.858,155.507 203.953,155.696 204.139 M315.407 209.606 C 315.093 210.138,314.410 210.888,313.889 211.273 L 312.943 211.973 314.151 212.705 C 315.670 213.625,316.012 213.621,317.135 212.676 L 318.043 211.912 317.011 210.275 L 315.979 208.638 315.407 209.606 M131.512 210.892 C 130.891 211.040,129.541 211.667,128.512 212.287 C 124.376 214.778,116.335 216.310,104.800 216.804 C 93.678 217.281,90.548 217.961,87.824 220.495 C 84.341 223.735,81.631 224.418,66.880 225.770 C 63.800 226.052,59.705 226.489,57.780 226.742 C 50.099 227.748,45.911 226.318,44.413 222.176 L 44.005 221.046 41.635 221.261 C 37.381 221.646,36.275 222.804,36.118 227.040 C 36.078 228.119,37.295 235.872,37.524 235.997 C 37.566 236.019,38.896 236.605,40.480 237.299 L 43.360 238.560 103.778 238.642 C 147.287 238.700,164.392 238.625,164.898 238.371 C 166.449 237.592,168.639 235.977,168.639 235.612 C 168.640 235.398,169.504 234.300,170.560 233.171 C 173.195 230.354,173.493 229.510,173.685 224.315 C 173.877 219.091,173.454 218.184,170.649 217.801 C 169.808 217.686,167.680 217.245,165.920 216.821 C 164.160 216.396,160.699 215.820,158.230 215.541 C 153.235 214.976,148.740 213.863,145.600 212.413 C 141.752 210.635,135.456 209.956,131.512 210.892 M187.266 231.061 C 186.210 232.896,182.043 237.771,180.334 239.171 C 178.958 240.299,177.600 242.332,177.600 243.267 C 177.598 245.938,174.528 249.071,170.618 250.393 C 166.146 251.904,166.140 251.936,170.123 252.928 C 175.766 254.333,177.631 255.652,178.614 258.935 C 179.137 260.681,179.299 260.754,183.847 261.312 C 188.765 261.915,188.981 261.823,190.682 258.425 C 192.059 255.674,193.239 254.813,197.745 253.271 L 201.252 252.070 200.457 251.445 C 199.286 250.523,198.440 248.634,197.722 245.334 C 197.011 242.069,196.564 241.188,195.277 240.515 C 193.916 239.804,192.870 238.484,191.234 235.413 C 190.405 233.858,189.337 231.958,188.860 231.192 L 187.992 229.798 187.266 231.061 " stroke="none" fill="#fbfbfb" fill-rule="evenodd"></path><path id="path3" d="M111.097 19.366 C 108.577 19.555,105.697 19.617,104.697 19.505 C 102.340 19.241,98.936 19.372,97.920 19.767 C 96.760 20.217,100.200 20.906,102.299 20.644 C 104.280 20.397,108.622 20.432,113.273 20.732 C 118.574 21.075,123.349 20.980,125.920 20.483 L 128.160 20.050 126.560 19.601 C 124.514 19.026,117.146 18.915,111.097 19.366 M160.320 19.206 C 157.592 19.327,154.640 19.547,153.760 19.694 L 152.160 19.963 153.440 20.210 C 154.144 20.346,157.960 20.605,161.920 20.784 C 165.880 20.964,169.785 21.187,170.598 21.281 C 171.778 21.417,172.229 21.321,172.838 20.805 L 173.600 20.160 172.845 19.520 C 172.004 18.808,170.265 18.765,160.320 19.206 M202.745 19.485 L 201.809 20.118 202.923 20.649 C 203.970 21.148,204.230 21.143,207.219 20.572 L 210.400 19.964 208.320 19.593 C 203.987 18.819,203.735 18.814,202.745 19.485 M178.893 24.886 C 176.253 26.229,176.266 28.326,178.951 34.240 L 179.895 36.320 179.824 56.480 C 179.785 67.568,179.795 78.728,179.846 81.280 L 179.938 85.920 180.215 82.240 C 180.367 80.216,180.453 72.440,180.406 64.960 C 180.359 57.480,180.327 47.976,180.336 43.840 L 180.351 36.320 181.380 34.240 C 183.665 29.618,183.600 27.806,181.058 25.366 L 179.981 24.331 178.893 24.886 M195.064 26.455 C 194.042 27.961,194.043 28.115,195.092 30.171 L 195.944 31.840 196.871 29.860 C 198.264 26.885,196.733 23.999,195.064 26.455 M74.400 27.369 C 73.696 27.623,72.832 27.847,72.480 27.868 C 72.039 27.894,72.139 27.988,72.800 28.172 C 75.529 28.930,76.320 29.057,76.779 28.811 C 77.055 28.664,77.352 28.538,77.440 28.531 C 78.983 28.413,79.056 27.906,77.603 27.411 C 75.772 26.787,76.009 26.790,74.400 27.369 M180.636 27.827 C 180.745 28.171,180.635 28.835,180.390 29.301 L 179.946 30.149 179.537 29.160 C 179.311 28.616,179.211 27.953,179.314 27.686 C 179.578 26.996,180.400 27.084,180.636 27.827 M331.201 43.455 L 330.443 44.069 331.297 44.628 C 332.043 45.117,332.402 45.143,334.155 44.833 C 338.180 44.121,338.310 44.011,335.661 43.553 C 334.351 43.327,332.983 43.074,332.620 42.991 C 332.249 42.907,331.627 43.110,331.201 43.455 M50.518 48.880 C 49.662 50.640,49.651 50.690,49.444 53.440 C 49.214 56.503,49.246 97.967,49.480 100.960 C 50.046 108.187,50.205 117.506,49.817 120.800 C 49.583 122.788,49.508 126.182,49.619 129.760 C 49.768 134.555,49.726 170.275,49.559 180.800 C 49.514 183.656,49.663 185.862,50.078 188.480 C 50.175 189.096,50.259 189.872,50.264 190.205 C 50.269 190.538,50.564 191.381,50.920 192.079 C 51.276 192.776,51.398 193.242,51.192 193.115 C 50.906 192.938,50.904 193.047,51.183 193.568 C 51.385 193.945,51.469 194.384,51.370 194.545 C 51.271 194.705,51.347 194.933,51.540 195.052 C 51.955 195.309,51.612 198.452,51.137 198.754 C 50.187 199.357,50.266 206.720,51.222 206.720 C 51.375 206.720,51.426 206.913,51.335 207.149 C 51.245 207.385,51.393 207.762,51.665 207.988 C 52.078 208.330,52.160 208.310,52.160 207.866 C 52.160 207.574,52.459 206.749,52.824 206.034 C 53.232 205.234,53.324 204.831,53.064 204.988 C 52.724 205.192,52.717 205.148,53.030 204.761 C 53.428 204.268,53.380 203.570,52.757 200.851 C 51.819 196.756,52.694 185.504,54.246 181.683 C 54.895 180.088,55.033 179.227,55.002 176.985 C 54.980 175.351,54.882 174.621,54.762 175.182 C 54.651 175.699,54.560 167.253,54.560 156.412 C 54.560 145.571,54.668 136.768,54.800 136.849 C 55.255 137.131,55.057 120.349,54.567 117.131 C 54.314 115.465,54.228 114.025,54.377 113.931 C 54.526 113.837,54.628 112.824,54.604 111.680 C 54.580 110.536,54.746 107.368,54.972 104.640 C 55.249 101.292,55.405 91.827,55.451 75.520 L 55.520 51.360 54.649 50.021 C 52.650 46.946,51.599 46.656,50.518 48.880 M315.869 124.640 C 315.856 126.752,315.688 140.072,315.497 154.240 L 315.149 180.000 313.685 182.240 C 312.880 183.472,311.610 185.277,310.864 186.251 L 309.508 188.023 310.149 188.903 C 311.072 190.169,312.842 190.960,315.978 191.507 C 321.994 192.556,322.926 194.451,320.870 201.452 C 320.130 203.970,320.290 206.275,321.258 207.040 C 321.370 207.128,321.707 208.246,322.007 209.524 L 322.553 211.848 321.197 213.044 C 320.450 213.702,318.963 215.104,317.891 216.160 C 316.767 217.267,315.683 218.063,315.331 218.040 C 313.339 217.908,310.953 217.551,310.232 217.277 C 309.068 216.834,307.775 216.882,307.031 217.395 C 306.684 217.635,306.137 217.790,305.815 217.740 C 305.413 217.678,305.287 217.797,305.412 218.121 C 305.511 218.381,305.472 218.519,305.325 218.428 C 305.178 218.337,304.667 218.671,304.189 219.170 C 303.344 220.052,303.378 220.205,304.480 220.478 C 304.656 220.521,305.160 220.696,305.600 220.867 C 307.189 221.483,307.935 221.580,313.402 221.888 C 315.612 222.012,316.395 222.185,316.922 222.666 C 318.786 224.368,323.381 225.535,324.993 224.716 C 329.656 222.348,330.152 217.944,326.338 212.784 C 325.741 211.978,325.733 211.676,326.106 203.956 L 326.492 195.963 325.667 191.661 C 324.909 187.708,324.825 186.402,324.628 175.520 C 324.039 142.950,324.042 143.008,323.267 141.533 C 322.861 140.758,322.560 139.609,322.560 138.829 C 322.560 137.246,320.852 132.447,319.774 131.004 C 318.797 129.694,317.405 126.291,317.102 124.473 C 316.440 120.492,315.894 120.566,315.869 124.640 M179.668 166.282 C 179.557 166.787,179.268 167.915,179.028 168.788 C 178.462 170.841,178.630 170.987,179.360 169.077 L 179.931 167.579 180.537 168.670 C 180.870 169.269,181.070 169.472,180.983 169.120 C 180.895 168.768,180.687 167.857,180.520 167.095 C 180.134 165.334,179.923 165.132,179.668 166.282 M194.720 174.358 C 192.458 175.762,190.721 179.104,191.336 180.868 C 192.183 183.299,195.234 186.198,196.518 185.793 C 196.761 185.716,197.373 185.562,197.878 185.451 C 199.082 185.186,198.736 184.886,197.082 184.762 C 195.308 184.630,192.640 181.774,192.640 180.007 C 192.640 178.138,195.296 174.824,196.490 175.203 C 198.251 175.762,201.280 179.411,201.280 180.973 C 201.280 181.929,201.399 182.364,201.621 182.227 C 201.809 182.111,201.894 181.947,201.811 181.864 C 201.727 181.780,201.776 181.301,201.920 180.799 C 202.827 177.638,197.342 172.731,194.720 174.358 M259.816 179.622 C 259.570 180.200,259.687 180.858,260.092 181.186 C 260.477 181.498,260.544 181.502,260.363 181.200 C 260.227 180.975,260.279 180.800,260.480 180.800 C 260.677 180.800,260.740 180.642,260.620 180.448 C 260.463 180.193,260.581 180.192,261.049 180.442 C 261.569 180.720,261.737 180.681,261.905 180.244 C 262.020 179.944,262.023 179.790,261.913 179.901 C 261.802 180.011,261.291 179.981,260.776 179.833 C 260.261 179.685,259.829 179.591,259.816 179.622 M318.932 185.845 C 320.434 187.886,320.448 188.082,319.126 188.751 C 317.057 189.799,316.128 189.859,314.590 189.046 C 312.889 188.146,312.889 188.167,314.606 185.578 L 316.000 183.477 317.144 184.224 C 317.773 184.634,318.577 185.364,318.932 185.845 M298.240 187.084 C 292.700 187.896,291.220 188.393,291.771 189.257 C 291.892 189.446,291.992 189.744,291.995 189.920 C 291.998 190.096,292.344 190.289,292.765 190.348 C 293.359 190.432,293.486 190.341,293.332 189.941 C 293.168 189.513,293.242 189.483,293.767 189.764 C 294.287 190.042,294.401 190.001,294.405 189.531 C 294.409 189.089,294.472 189.058,294.685 189.394 C 294.880 189.702,295.025 189.724,295.182 189.469 C 295.304 189.271,295.574 189.215,295.782 189.344 C 296.496 189.787,300.149 189.728,301.049 189.258 C 301.528 189.008,302.100 188.803,302.320 188.802 C 302.540 188.801,302.720 188.656,302.720 188.480 C 302.720 188.304,302.972 188.145,303.280 188.127 C 304.042 188.083,300.485 186.913,299.680 186.943 C 299.328 186.956,298.680 187.020,298.240 187.084 M83.632 187.666 C 83.410 187.906,83.373 188.242,83.538 188.510 C 83.930 189.143,84.646 188.396,84.273 187.744 C 84.056 187.364,83.924 187.348,83.632 187.666 M275.302 189.783 C 274.918 189.926,273.690 190.132,272.573 190.240 C 271.457 190.347,270.259 190.489,269.912 190.553 C 269.564 190.618,268.272 190.698,267.040 190.731 L 264.800 190.791 266.413 191.186 C 267.619 191.482,269.020 191.504,271.975 191.273 C 276.486 190.920,277.172 191.048,281.040 192.971 C 284.003 194.443,284.116 194.377,281.680 192.592 C 280.668 191.851,279.734 191.091,279.605 190.902 C 279.476 190.714,279.368 190.660,279.365 190.782 C 279.362 190.905,278.604 190.671,277.680 190.264 C 276.513 189.749,275.787 189.602,275.302 189.783 M291.715 192.264 C 291.886 193.009,290.685 194.357,290.064 194.118 C 289.791 194.013,289.645 194.055,289.742 194.210 C 289.838 194.366,289.694 194.578,289.422 194.683 C 289.086 194.812,289.003 194.745,289.165 194.476 C 289.318 194.221,289.208 194.239,288.854 194.526 C 288.207 195.050,288.242 195.113,289.287 195.311 C 289.723 195.394,290.485 195.618,290.981 195.811 C 292.214 196.289,292.246 196.269,291.663 195.379 C 291.339 194.884,290.956 194.661,290.616 194.769 C 290.157 194.916,290.149 194.891,290.560 194.595 C 291.114 194.197,291.858 194.128,291.802 194.480 C 291.715 195.029,291.853 195.613,292.028 195.438 C 292.424 195.043,292.393 192.035,291.991 191.881 C 291.747 191.787,291.640 191.936,291.715 192.264 M287.040 194.499 C 287.040 194.671,287.268 194.899,287.547 195.006 C 287.858 195.126,288.005 195.054,287.927 194.820 C 287.767 194.342,287.040 194.078,287.040 194.499 M292.663 197.083 C 292.365 197.564,294.229 198.958,295.840 199.459 C 298.479 200.279,299.854 200.373,303.978 200.015 C 308.508 199.621,308.709 199.687,311.430 202.462 L 312.940 204.002 311.687 205.591 C 308.347 209.825,303.628 210.225,293.280 207.151 C 292.024 206.778,294.099 208.602,295.982 209.527 C 298.780 210.901,307.354 211.038,309.727 209.747 C 312.844 208.050,315.229 204.748,314.423 203.243 C 312.426 199.511,308.900 197.689,304.451 198.091 C 299.685 198.522,294.179 198.179,293.403 197.403 C 293.084 197.084,292.751 196.940,292.663 197.083 M263.680 199.781 C 263.680 200.349,268.317 201.253,270.960 201.200 C 274.150 201.137,275.123 200.644,272.080 200.634 C 270.414 200.628,267.485 200.308,264.720 199.831 C 264.148 199.732,263.680 199.709,263.680 199.781 M326.615 217.496 C 327.894 220.133,327.865 220.278,325.651 222.319 L 324.220 223.638 322.510 223.192 C 321.569 222.946,319.648 222.164,318.239 221.453 L 315.679 220.160 311.421 220.160 C 308.465 220.160,307.227 220.055,307.375 219.816 C 307.520 219.580,308.913 219.542,311.794 219.694 L 316.000 219.915 319.756 216.973 C 321.822 215.355,323.599 213.891,323.705 213.720 C 324.018 213.212,325.421 215.032,326.615 217.496 M51.334 214.500 C 51.144 214.718,50.721 215.325,50.393 215.848 L 49.797 216.800 50.756 215.920 C 51.347 215.378,52.077 215.039,52.658 215.038 L 53.600 215.036 52.683 214.558 C 51.613 214.000,51.765 214.006,51.334 214.500 M58.983 221.544 C 58.424 221.751,57.853 222.035,57.714 222.175 C 57.301 222.594,60.549 222.158,61.760 221.632 L 62.880 221.145 61.440 221.157 C 60.648 221.163,59.542 221.338,58.983 221.544 M339.026 242.582 C 338.919 242.755,338.663 242.869,338.456 242.835 C 338.249 242.801,337.576 242.872,336.960 242.993 C 334.576 243.461,332.742 243.603,326.560 243.798 L 320.160 244.000 326.080 244.270 C 329.336 244.419,332.648 244.594,333.440 244.659 C 339.018 245.119,340.155 245.087,340.489 244.463 C 340.999 243.511,339.580 241.687,339.026 242.582 M340.160 243.970 C 340.160 244.276,339.935 244.361,339.457 244.236 C 338.778 244.059,338.958 243.858,340.080 243.542 C 340.124 243.530,340.160 243.723,340.160 243.970 M335.573 254.289 C 335.544 254.316,322.920 254.430,307.520 254.542 C 292.120 254.655,276.064 254.900,271.840 255.089 C 267.616 255.277,253.216 255.532,239.840 255.655 C 221.004 255.829,229.581 255.886,277.879 255.905 L 340.237 255.929 341.559 257.043 C 344.429 259.464,344.334 260.653,341.090 262.900 L 339.733 263.840 278.907 263.770 C 245.452 263.731,217.288 263.809,216.320 263.944 C 215.352 264.078,226.584 264.288,241.280 264.409 C 255.976 264.530,268.792 264.694,269.760 264.774 C 277.660 265.420,291.760 265.666,314.400 265.551 L 339.680 265.423 341.395 264.482 C 346.268 261.807,346.526 258.280,342.074 255.196 C 340.886 254.373,336.194 253.718,335.573 254.289 M34.744 256.212 C 33.752 256.750,33.184 257.266,32.166 258.560 C 31.763 259.072,31.994 258.951,32.808 258.223 C 34.869 256.380,35.199 256.192,36.756 255.973 L 38.240 255.766 36.960 255.736 C 36.256 255.719,35.259 255.934,34.744 256.212 M31.840 261.131 C 32.576 262.026,32.997 262.393,34.584 263.518 C 35.662 264.283,35.855 264.313,37.944 264.045 L 40.160 263.761 38.144 263.720 C 35.921 263.676,34.826 263.233,32.640 261.496 C 31.640 260.701,31.395 260.590,31.840 261.131 " stroke="none" fill="#848c7c" fill-rule="evenodd"></path><path id="path4" d="M101.760 18.536 C 97.651 18.845,92.769 19.856,93.709 20.204 C 97.025 21.431,117.058 22.270,118.103 21.225 C 118.304 21.024,117.152 20.888,114.827 20.839 C 112.854 20.797,111.130 20.696,110.995 20.612 C 110.639 20.392,104.107 20.415,102.299 20.643 C 100.203 20.907,96.759 20.218,97.920 19.767 C 98.954 19.365,102.356 19.242,104.800 19.518 C 105.856 19.637,108.016 19.615,109.600 19.469 C 111.184 19.323,113.878 19.168,115.586 19.124 C 117.295 19.080,118.591 18.949,118.466 18.832 C 118.120 18.506,105.200 18.277,101.760 18.536 M64.864 26.857 C 63.492 27.352,62.052 28.043,61.664 28.391 C 61.277 28.740,60.714 29.111,60.414 29.217 C 57.556 30.223,55.203 41.152,57.376 43.325 L 58.112 44.061 56.732 44.431 C 54.427 45.047,51.921 44.920,51.685 44.174 C 51.327 43.047,48.396 40.739,46.213 39.864 L 44.094 39.016 40.257 39.515 C 35.914 40.080,35.280 40.338,32.964 42.472 L 31.307 44.000 32.289 45.351 C 33.649 47.222,35.214 47.912,39.761 48.647 C 46.327 49.708,46.860 49.857,47.872 50.913 L 48.800 51.882 48.769 64.581 C 48.751 71.624,48.847 76.496,48.982 75.520 C 49.117 74.552,49.294 68.720,49.376 62.560 C 49.539 50.273,49.477 51.022,50.518 48.880 C 51.599 46.656,52.650 46.946,54.649 50.021 L 55.520 51.360 55.451 75.520 C 55.405 91.827,55.249 101.292,54.972 104.640 C 54.746 107.368,54.580 110.536,54.604 111.680 C 54.628 112.824,54.526 113.837,54.377 113.931 C 54.228 114.025,54.314 115.465,54.567 117.131 C 55.057 120.349,55.255 137.131,54.800 136.849 C 54.668 136.768,54.560 145.571,54.560 156.412 C 54.560 167.253,54.651 175.699,54.762 175.182 C 54.882 174.621,54.980 175.351,55.002 176.985 C 55.033 179.227,54.895 180.088,54.246 181.683 C 52.694 185.504,51.819 196.756,52.757 200.851 C 53.322 203.318,53.431 204.236,53.203 204.605 C 53.086 204.794,52.959 205.167,52.922 205.434 C 52.780 206.432,51.945 208.318,51.736 208.110 C 51.446 207.819,51.469 208.385,51.767 208.853 C 52.596 210.155,55.152 204.926,54.387 203.495 C 53.753 202.311,53.164 196.054,53.605 195.200 C 54.631 193.217,55.871 192.584,60.203 191.832 C 63.419 191.275,64.651 190.766,65.804 189.522 C 66.916 188.322,66.849 188.167,63.310 183.778 L 60.060 179.748 60.224 151.394 C 60.314 135.799,60.300 106.840,60.194 87.040 C 59.960 43.680,59.925 44.751,61.741 40.480 C 62.623 38.406,63.209 36.446,63.406 34.911 C 63.940 30.752,63.980 30.730,71.680 30.209 C 76.451 29.887,78.127 29.642,80.314 28.950 L 83.029 28.090 81.848 27.485 C 78.219 25.623,69.205 25.290,64.864 26.857 M77.603 27.411 C 79.056 27.906,78.983 28.413,77.440 28.531 C 77.352 28.538,77.055 28.664,76.779 28.811 C 76.320 29.057,75.529 28.930,72.800 28.172 C 72.139 27.988,72.039 27.894,72.480 27.868 C 72.832 27.847,73.696 27.623,74.400 27.369 C 76.009 26.790,75.772 26.787,77.603 27.411 M60.789 35.981 C 60.782 36.344,60.577 37.000,60.333 37.440 L 59.888 38.240 59.544 37.339 C 58.941 35.761,59.612 33.697,60.384 34.753 C 60.613 35.066,60.795 35.619,60.789 35.981 M45.650 41.943 C 46.326 42.307,47.302 42.946,47.819 43.362 L 48.758 44.118 47.483 45.392 C 45.760 47.115,44.577 47.303,41.046 46.418 C 33.953 44.639,33.651 43.654,39.716 42.087 C 43.434 41.127,44.105 41.111,45.650 41.943 M180.497 76.000 C 180.445 77.760,180.299 80.712,180.174 82.560 L 179.947 85.920 179.830 81.280 C 179.683 75.434,179.308 114.908,179.247 142.805 L 179.200 163.850 177.270 167.700 C 175.805 170.622,175.229 172.182,174.880 174.175 C 173.652 181.171,173.718 181.116,166.880 180.773 C 149.681 179.909,144.933 180.023,136.800 181.499 C 131.125 182.528,128.656 182.200,124.000 179.796 C 118.882 177.153,111.316 176.847,105.047 179.029 L 102.435 179.939 102.913 180.864 C 103.480 181.961,105.005 182.957,106.560 183.247 C 109.052 183.711,113.536 185.674,115.474 187.150 L 116.548 187.968 115.401 188.364 C 111.752 189.628,107.884 189.902,103.520 189.206 C 100.158 188.670,98.654 188.586,95.680 188.765 L 92.000 188.987 90.080 187.975 C 85.645 185.638,81.095 185.433,74.162 187.257 C 71.256 188.022,71.274 188.186,74.417 189.638 C 77.092 190.874,78.564 192.206,79.437 194.180 C 80.220 195.950,80.076 196.268,78.015 197.314 L 76.320 198.174 72.160 197.848 C 67.457 197.479,66.838 197.661,64.218 200.184 C 61.928 202.391,61.495 203.401,61.405 206.757 C 61.248 212.579,61.355 212.469,55.861 212.475 C 49.818 212.482,48.225 213.422,46.736 217.864 L 46.057 219.888 46.721 220.961 C 47.550 222.303,49.242 223.804,50.847 224.623 L 52.077 225.251 55.878 224.433 C 57.969 223.984,61.840 223.425,64.480 223.192 C 70.849 222.629,79.607 220.564,79.239 219.711 C 77.834 216.453,76.136 212.078,76.237 211.976 C 76.310 211.904,78.067 211.400,80.143 210.858 L 83.917 209.871 85.742 210.553 C 86.746 210.929,88.404 211.804,89.427 212.498 C 91.276 213.753,91.304 213.760,94.363 213.753 C 98.274 213.744,108.483 212.925,110.487 212.460 L 112.014 212.105 111.349 211.253 C 110.329 209.945,108.160 206.648,108.160 206.405 C 108.160 206.286,106.344 206.028,104.123 205.831 C 99.608 205.431,99.885 205.518,99.767 204.460 L 99.680 203.680 104.800 203.520 C 107.616 203.432,110.094 203.247,110.308 203.109 C 113.387 201.113,125.907 201.786,130.642 204.202 C 133.390 205.604,141.728 205.578,143.520 204.162 C 144.250 203.585,149.491 202.172,152.475 201.748 C 159.957 200.684,164.652 201.149,170.782 203.564 L 171.804 203.967 169.502 206.389 C 168.236 207.721,166.592 209.544,165.849 210.439 L 164.498 212.067 166.969 213.222 C 169.568 214.436,172.661 215.360,174.124 215.360 C 176.118 215.360,176.419 216.425,176.229 222.805 C 175.993 230.733,176.719 233.259,179.471 234.079 C 180.458 234.373,182.826 231.971,185.491 227.974 C 187.680 224.691,188.146 224.479,189.860 225.987 C 191.107 227.083,191.587 227.855,194.246 233.040 C 195.126 234.756,195.997 236.160,196.181 236.160 C 196.725 236.160,197.763 233.453,198.290 230.657 L 198.781 228.054 197.444 222.541 L 196.108 217.027 191.254 216.882 C 187.128 216.759,185.992 216.608,183.680 215.876 C 182.184 215.402,180.255 214.811,179.392 214.564 C 177.249 213.947,177.116 213.742,177.149 211.102 C 177.184 208.326,177.822 206.683,179.175 205.884 C 180.272 205.236,180.969 203.414,181.954 198.615 C 182.569 195.617,182.261 194.466,180.033 191.438 C 177.135 187.503,177.123 187.182,179.780 185.047 C 184.137 181.545,185.987 170.129,183.001 165.165 C 182.064 163.606,181.810 158.905,181.772 142.400 C 181.724 120.933,180.719 68.598,180.497 76.000 M48.882 85.440 C 48.414 98.378,48.580 179.981,49.086 185.440 C 49.347 188.256,49.646 192.288,49.750 194.400 C 49.854 196.512,50.035 199.248,50.152 200.480 L 50.365 202.720 50.584 200.843 C 50.705 199.810,50.947 198.874,51.123 198.763 C 51.608 198.455,51.962 195.313,51.540 195.052 C 51.347 194.933,51.271 194.705,51.370 194.545 C 51.469 194.384,51.385 193.945,51.183 193.568 C 50.904 193.047,50.906 192.938,51.192 193.115 C 51.398 193.242,51.276 192.776,50.920 192.079 C 50.564 191.381,50.269 190.538,50.264 190.205 C 50.259 189.872,50.175 189.096,50.078 188.480 C 49.663 185.862,49.514 183.656,49.559 180.800 C 49.726 170.275,49.768 134.555,49.619 129.760 C 49.508 126.182,49.583 122.788,49.817 120.800 C 50.160 117.884,50.137 113.649,49.736 105.920 C 49.659 104.424,49.519 98.160,49.427 92.000 C 49.224 78.531,49.160 77.760,48.882 85.440 M180.780 168.118 C 181.002 169.151,181.361 170.419,181.578 170.936 C 182.207 172.433,180.724 180.800,179.828 180.800 C 178.278 180.800,177.514 173.546,178.672 169.818 C 179.119 168.378,179.576 166.770,179.687 166.245 C 179.942 165.044,180.226 165.530,180.780 168.118 M193.829 174.086 C 192.487 175.268,190.992 177.978,191.437 178.423 C 191.530 178.517,191.757 178.160,191.941 177.632 C 192.381 176.369,194.054 174.555,195.226 174.069 C 197.752 173.023,202.712 178.039,201.911 180.832 C 201.764 181.342,201.724 181.760,201.822 181.760 C 201.919 181.760,201.831 181.961,201.627 182.207 C 201.423 182.454,201.322 183.021,201.403 183.469 C 201.581 184.449,201.167 184.829,199.680 185.052 C 199.064 185.145,197.995 185.368,197.304 185.549 C 195.784 185.947,194.644 185.460,192.994 183.711 C 191.829 182.476,191.922 182.854,193.211 184.596 C 193.649 185.187,194.849 186.204,195.878 186.854 L 197.749 188.037 196.278 189.459 C 192.571 193.039,192.060 196.075,194.074 202.560 C 194.320 203.352,194.824 205.043,195.194 206.319 C 195.742 208.208,196.035 208.725,196.780 209.110 C 197.308 209.382,197.995 210.203,198.404 211.048 C 199.728 213.782,202.745 214.552,205.895 212.959 L 207.651 212.070 207.209 211.013 C 206.312 208.865,205.132 207.526,203.286 206.560 C 199.112 204.376,200.114 203.467,207.520 202.718 C 212.611 202.203,213.926 202.395,218.080 204.258 L 220.320 205.263 228.160 205.272 C 236.283 205.280,237.672 205.050,237.761 203.680 C 237.893 201.637,241.880 200.328,246.880 200.686 C 248.464 200.799,251.931 200.907,254.585 200.926 C 258.498 200.954,260.342 201.138,264.345 201.904 C 267.059 202.423,270.504 203.008,272.000 203.204 C 275.903 203.716,276.160 203.802,276.160 204.612 C 276.160 205.441,272.584 207.408,269.920 208.046 C 269.040 208.257,267.215 208.962,265.864 209.613 C 264.513 210.264,262.425 211.063,261.224 211.389 L 259.040 211.982 261.280 212.419 C 262.749 212.705,267.065 212.911,273.823 213.018 L 284.125 213.179 286.783 211.889 C 291.016 209.833,291.747 209.720,295.645 210.519 C 298.153 211.033,300.127 211.200,303.689 211.200 L 308.410 211.200 310.365 209.761 C 312.740 208.012,312.940 207.626,310.683 209.145 C 306.715 211.815,297.070 211.081,293.477 207.835 L 292.152 206.638 290.212 207.182 C 289.145 207.482,287.293 208.125,286.097 208.612 L 283.923 209.496 282.761 208.900 C 281.493 208.250,280.167 206.474,279.817 204.960 C 279.091 201.809,277.405 200.977,272.096 201.148 C 268.063 201.278,267.787 201.244,265.069 200.300 C 262.518 199.414,261.673 199.289,256.480 199.036 C 249.107 198.677,245.489 197.856,241.760 195.694 C 236.125 192.426,226.503 193.088,224.091 196.910 C 222.336 199.690,220.793 200.403,217.538 199.939 C 216.102 199.734,213.287 199.695,210.240 199.837 C 207.512 199.965,203.161 200.161,200.572 200.274 L 195.864 200.480 195.255 198.240 C 194.496 195.447,194.870 194.472,197.460 192.493 C 199.983 190.565,201.195 188.711,201.339 186.560 C 201.437 185.099,201.552 184.816,202.015 184.895 C 202.321 184.948,204.981 184.676,207.926 184.292 C 212.245 183.728,215.197 183.577,223.200 183.512 C 229.057 183.464,233.553 183.293,234.178 183.093 C 236.200 182.446,244.033 183.425,248.480 184.880 C 250.592 185.571,253.391 186.310,254.699 186.521 C 256.767 186.855,258.328 187.429,260.160 188.528 C 263.492 190.527,264.594 190.815,268.110 190.607 C 272.236 190.364,274.421 190.112,275.323 189.775 C 275.782 189.604,276.542 189.762,277.680 190.264 C 278.604 190.671,279.362 190.905,279.365 190.782 C 279.368 190.660,279.476 190.712,279.605 190.897 C 279.734 191.082,280.416 191.650,281.120 192.160 C 281.824 192.669,282.727 193.373,283.127 193.725 C 283.527 194.077,284.103 194.415,284.407 194.476 C 285.917 194.780,286.904 194.768,287.126 194.441 C 287.298 194.189,287.498 194.245,287.791 194.626 C 288.186 195.141,288.244 195.141,288.790 194.626 C 289.109 194.326,289.270 194.258,289.148 194.476 C 289.000 194.742,289.091 194.810,289.422 194.683 C 289.694 194.578,289.838 194.366,289.742 194.210 C 289.645 194.055,289.791 194.013,290.064 194.118 C 290.685 194.357,291.886 193.009,291.715 192.264 C 291.640 191.936,291.747 191.787,291.991 191.881 C 292.393 192.035,292.424 195.043,292.028 195.438 C 291.853 195.613,291.715 195.029,291.802 194.480 C 291.858 194.128,291.114 194.197,290.560 194.595 C 290.154 194.887,290.165 194.913,290.635 194.762 C 291.122 194.606,292.065 195.617,291.939 196.160 C 291.918 196.248,292.103 196.506,292.351 196.733 C 292.598 196.960,292.800 197.068,292.800 196.973 C 292.800 196.878,293.088 197.088,293.440 197.440 C 293.930 197.930,294.511 198.081,295.920 198.084 C 296.932 198.087,298.120 198.165,298.560 198.259 C 299.094 198.373,298.935 198.209,298.080 197.768 C 295.472 196.420,295.258 196.135,295.667 194.538 C 296.260 192.222,297.012 191.081,298.395 190.397 C 299.102 190.047,299.608 189.747,299.520 189.731 C 299.432 189.714,298.640 189.675,297.760 189.645 C 296.880 189.614,295.990 189.481,295.782 189.349 C 295.574 189.217,295.304 189.271,295.182 189.469 C 295.025 189.724,294.880 189.702,294.685 189.394 C 294.472 189.058,294.409 189.089,294.405 189.531 C 294.401 190.001,294.287 190.042,293.767 189.764 C 293.242 189.483,293.168 189.513,293.332 189.941 C 293.486 190.341,293.359 190.432,292.765 190.348 C 292.344 190.289,291.998 190.096,291.995 189.920 C 291.992 189.744,291.892 189.446,291.771 189.257 C 291.364 188.619,292.666 187.953,295.059 187.577 C 296.368 187.370,297.800 187.139,298.240 187.063 C 298.680 186.986,297.382 186.958,295.355 186.999 C 292.299 187.062,291.453 187.192,290.395 187.759 C 285.186 190.551,284.698 190.627,280.480 189.312 C 277.111 188.262,275.936 188.194,271.200 188.779 C 265.289 189.510,264.230 188.507,266.288 184.130 C 266.658 183.341,267.591 182.180,268.361 181.549 C 270.512 179.787,270.576 179.825,264.159 179.034 C 259.418 178.449,258.646 178.556,254.649 180.356 L 252.177 181.468 249.529 180.939 C 245.090 180.051,237.091 179.963,232.160 180.746 C 228.255 181.366,227.775 181.379,224.320 180.946 C 221.969 180.652,217.618 180.485,212.275 180.483 L 203.909 180.480 203.390 179.181 C 202.381 176.661,197.900 172.812,195.965 172.803 C 195.594 172.801,194.633 173.379,193.829 174.086 M261.913 179.901 C 262.023 179.790,262.020 179.944,261.905 180.244 C 261.737 180.681,261.569 180.720,261.049 180.442 C 260.581 180.192,260.463 180.193,260.620 180.448 C 260.740 180.642,260.677 180.800,260.480 180.800 C 260.279 180.800,260.227 180.975,260.363 181.200 C 260.544 181.502,260.477 181.498,260.092 181.186 C 259.687 180.858,259.570 180.200,259.816 179.622 C 259.829 179.591,260.261 179.685,260.776 179.833 C 261.291 179.981,261.802 180.011,261.913 179.901 M159.520 183.713 C 172.062 184.912,172.534 185.084,174.905 189.308 C 175.728 190.774,177.168 192.904,178.105 194.040 L 179.810 196.106 178.895 197.368 C 176.883 200.146,173.130 201.516,170.116 200.574 C 166.176 199.342,163.879 199.041,158.139 199.000 C 155.027 198.978,151.472 198.870,150.240 198.760 C 147.141 198.483,141.463 198.893,137.661 199.667 C 133.811 200.452,132.364 200.510,128.000 200.055 C 119.787 199.197,116.002 199.225,111.840 200.172 C 108.328 200.971,107.644 201.028,103.840 200.842 C 98.638 200.588,96.547 201.584,95.819 204.665 C 95.327 206.748,94.353 208.504,93.285 209.234 L 92.181 209.988 90.555 209.178 C 89.661 208.732,87.841 208.111,86.511 207.797 L 84.093 207.227 79.886 208.278 C 77.573 208.855,73.901 209.506,71.726 209.724 L 67.771 210.121 66.568 209.249 C 65.341 208.360,64.172 206.381,63.813 204.583 C 63.631 203.674,63.795 203.403,65.606 201.619 L 67.600 199.656 71.986 199.873 C 79.008 200.220,82.860 198.825,84.779 195.239 C 85.424 194.035,86.652 193.533,90.002 193.105 C 91.805 192.875,94.705 192.382,96.446 192.008 C 99.357 191.385,99.964 191.358,103.966 191.674 C 114.765 192.529,118.981 191.413,122.901 186.664 C 123.704 185.690,123.793 185.666,127.221 185.476 C 129.145 185.369,133.528 184.916,136.960 184.469 C 140.392 184.023,144.208 183.546,145.440 183.410 C 148.139 183.111,154.698 183.253,159.520 183.713 M61.327 186.361 L 62.654 188.079 61.379 188.796 C 59.639 189.774,55.040 188.988,55.040 187.712 C 55.040 186.716,57.966 184.795,59.680 184.666 C 59.856 184.653,60.597 185.416,61.327 186.361 M84.180 188.588 C 83.660 189.108,83.128 188.212,83.632 187.666 C 83.924 187.348,84.056 187.364,84.273 187.744 C 84.439 188.034,84.402 188.366,84.180 188.588 M319.796 203.169 L 319.112 204.014 319.874 204.967 C 320.644 205.929,320.808 205.815,320.341 204.640 C 320.201 204.288,320.215 203.656,320.372 203.236 C 320.763 202.190,320.604 202.171,319.796 203.169 M172.570 212.332 C 172.196 212.605,171.815 212.614,171.154 212.365 L 170.251 212.024 171.104 211.133 L 171.957 210.243 172.519 211.100 C 173.032 211.882,173.037 211.990,172.570 212.332 M305.280 214.341 C 302.178 215.153,301.112 215.899,299.949 218.075 L 298.939 219.966 300.589 220.557 C 304.161 221.836,308.349 222.659,312.160 222.830 C 314.617 222.941,316.445 223.189,317.235 223.520 C 317.914 223.805,318.550 223.957,318.648 223.859 C 318.746 223.760,318.670 223.680,318.478 223.680 C 318.286 223.680,317.691 223.312,317.157 222.862 C 316.320 222.158,315.792 222.021,313.372 221.886 C 307.941 221.581,307.187 221.482,305.600 220.867 C 305.160 220.696,304.656 220.521,304.480 220.478 C 303.378 220.205,303.344 220.052,304.189 219.170 C 304.667 218.671,305.178 218.337,305.325 218.428 C 305.472 218.519,305.511 218.381,305.412 218.121 C 305.287 217.797,305.413 217.678,305.815 217.740 C 306.137 217.790,306.684 217.635,307.031 217.395 C 307.775 216.882,309.068 216.834,310.232 217.277 C 310.963 217.555,312.369 217.767,315.200 218.028 C 315.788 218.082,316.391 217.696,317.479 216.571 C 319.215 214.774,319.151 214.609,317.305 216.122 L 315.985 217.204 313.516 216.492 C 312.158 216.100,310.316 215.325,309.422 214.770 C 308.529 214.214,307.699 213.768,307.579 213.778 C 307.458 213.789,306.424 214.042,305.280 214.341 M53.010 214.676 C 55.991 216.119,60.583 217.244,64.320 217.447 L 68.000 217.647 69.220 218.823 L 70.440 220.000 68.900 220.369 C 68.053 220.572,66.606 220.752,65.683 220.769 C 64.761 220.786,63.249 221.098,62.323 221.461 C 61.398 221.825,59.689 222.181,58.527 222.253 C 57.365 222.325,55.570 222.603,54.540 222.872 C 51.880 223.565,51.766 223.537,49.801 221.742 C 47.785 219.899,47.783 219.992,49.891 216.644 C 51.695 213.780,51.462 213.926,53.010 214.676 M185.120 218.872 C 186.704 219.065,188.620 219.383,189.377 219.578 L 190.754 219.933 189.863 220.517 C 189.373 220.839,188.538 221.192,188.006 221.302 C 185.267 221.871,183.536 223.706,182.710 226.917 C 182.509 227.698,181.810 228.940,181.132 229.720 L 179.914 231.120 179.053 229.651 C 178.208 228.209,178.196 228.114,178.412 224.411 C 178.714 219.227,179.287 217.865,181.010 218.248 C 181.686 218.398,183.536 218.679,185.120 218.872 M196.215 228.596 C 196.079 229.144,196.041 229.148,195.764 228.653 C 195.598 228.356,195.568 227.728,195.697 227.257 L 195.932 226.400 196.148 227.200 C 196.266 227.640,196.297 228.268,196.215 228.596 M34.080 238.728 C 29.979 240.801,30.288 246.239,34.677 249.247 L 36.000 250.153 38.733 249.597 C 40.236 249.292,42.106 248.715,42.888 248.316 C 44.256 247.618,44.520 247.598,49.755 247.793 C 55.824 248.019,114.551 248.046,144.960 247.836 C 174.079 247.636,175.983 247.144,173.441 240.481 C 172.722 238.594,172.226 238.320,171.082 239.175 C 167.036 242.201,172.110 241.992,104.063 241.938 L 44.126 241.890 41.343 240.499 C 35.986 237.821,35.910 237.802,34.080 238.728 M202.021 239.188 C 198.765 240.605,199.276 246.399,202.918 249.346 L 204.030 250.247 206.464 249.624 C 207.803 249.282,209.601 248.646,210.460 248.211 L 212.021 247.420 256.650 247.264 C 281.197 247.178,307.976 246.941,316.160 246.737 L 331.040 246.367 335.432 247.241 C 340.450 248.239,340.380 248.258,341.980 245.527 C 342.915 243.931,342.828 243.173,341.425 240.718 C 340.292 238.733,340.396 238.752,338.130 240.116 C 337.148 240.708,335.315 241.523,334.059 241.927 L 331.774 242.662 311.887 242.439 C 300.949 242.317,274.033 242.223,252.072 242.229 L 212.145 242.241 210.305 241.313 C 205.419 238.846,203.776 238.425,202.021 239.188 M41.854 243.118 C 43.734 244.212,42.349 245.646,37.711 247.408 L 36.065 248.033 34.971 246.977 C 34.370 246.396,33.592 245.460,33.244 244.898 L 32.610 243.875 33.401 242.622 C 33.836 241.932,34.595 241.075,35.088 240.716 L 35.983 240.064 38.231 241.191 C 39.468 241.811,41.098 242.678,41.854 243.118 M207.467 242.494 L 210.614 244.000 208.817 245.178 C 205.917 247.077,204.304 247.590,203.505 246.866 C 201.401 244.962,201.264 243.054,203.126 241.589 C 204.130 240.800,203.771 240.725,207.467 242.494 M340.414 243.214 C 341.519 244.983,340.338 245.227,333.440 244.659 C 332.648 244.594,329.336 244.419,326.080 244.270 L 320.160 244.000 326.560 243.798 C 332.742 243.603,334.576 243.461,336.960 242.993 C 337.576 242.872,338.249 242.801,338.456 242.835 C 338.663 242.869,338.919 242.755,339.026 242.582 C 339.293 242.151,339.932 242.442,340.414 243.214 M33.953 254.960 C 31.930 256.155,28.800 259.203,28.800 259.979 C 28.800 260.713,32.276 263.695,34.159 264.577 L 36.000 265.440 95.840 265.609 L 155.680 265.778 158.240 266.648 C 159.648 267.127,161.808 268.095,163.040 268.800 C 167.105 271.126,169.114 271.991,173.061 273.116 C 175.207 273.728,177.574 274.541,178.321 274.923 C 179.527 275.538,182.810 276.313,186.776 276.916 C 187.902 277.088,188.258 276.996,189.051 276.329 C 190.462 275.142,192.797 274.068,195.945 273.159 C 199.415 272.158,201.436 271.245,205.316 268.931 C 211.212 265.412,206.505 265.779,247.680 265.625 C 280.509 265.502,283.032 265.457,276.320 265.108 C 272.272 264.898,265.591 264.702,261.473 264.673 C 257.355 264.644,253.889 264.560,253.770 264.486 C 253.651 264.412,243.628 264.329,231.497 264.300 L 209.440 264.248 206.880 265.105 C 204.798 265.802,204.051 266.242,202.880 267.462 C 200.768 269.663,197.398 271.205,193.729 271.649 C 192.128 271.843,190.112 272.215,189.249 272.477 C 186.868 273.199,180.626 273.123,177.955 272.340 C 176.792 271.998,174.904 271.556,173.760 271.357 C 170.979 270.872,167.391 269.116,165.869 267.495 C 164.236 265.758,163.561 265.441,159.646 264.576 L 156.320 263.842 98.080 263.841 C 66.048 263.840,38.898 263.949,37.747 264.082 C 35.442 264.349,33.361 263.277,31.731 260.982 L 31.059 260.036 31.905 258.898 C 32.370 258.272,32.987 257.527,33.276 257.243 C 34.733 255.808,32.262 255.870,90.720 255.810 C 171.760 255.727,171.765 255.727,174.713 260.518 C 176.654 263.673,178.069 264.411,183.819 265.265 L 188.191 265.915 189.730 265.135 C 191.853 264.059,193.105 262.941,194.542 260.837 L 195.769 259.040 199.885 257.694 C 202.148 256.954,204.360 256.259,204.800 256.149 C 205.240 256.039,218.920 255.826,235.200 255.675 C 251.480 255.525,268.040 255.255,272.000 255.077 C 275.960 254.898,291.872 254.659,307.360 254.546 C 322.848 254.432,335.558 254.302,335.605 254.258 C 335.652 254.213,306.006 254.100,269.725 254.005 L 203.760 253.834 199.880 255.240 C 195.387 256.868,194.906 257.178,192.937 259.714 C 192.132 260.751,190.741 262.113,189.847 262.740 L 188.221 263.881 184.111 263.429 C 179.253 262.894,178.453 262.510,176.639 259.838 C 174.288 256.377,173.576 255.985,167.042 254.561 L 163.364 253.760 99.675 253.760 L 35.985 253.760 33.953 254.960 " stroke="none" fill="#748c94" fill-rule="evenodd"></path></g></svg>